<?xml version="1.0" standalone="no"?>
<!DOCTYPE svg PUBLIC "-//W3C//DTD SVG 1.1//EN" "http://www.w3.org/Graphics/SVG/1.1/DTD/svg11.dtd" >
<svg>
<metadata>
Created by FontForge 20090914 at Sat Oct 25 02:46:52 2014
 By www-data
2004 T.26 Digital Type Foundry www.t26.com PSID#5134577 designer: Neil Summerour / Positype
</metadata>
<defs>
<font id="AauxProMedium" horiz-adv-x="252" >
  <font-face 
    font-family="Aaux ProMedium"
    font-weight="400"
    font-stretch="normal"
    units-per-em="1000"
    panose-1="0 0 4 0 0 0 0 0 0 0"
    ascent="800"
    descent="-200"
    x-height="487"
    cap-height="698"
    bbox="-100 -226.001 971 978"
    underline-thickness="40"
    underline-position="-115"
    unicode-range="U+0020-U+F002"
  />
<missing-glyph horiz-adv-x="500" 
d="M63 0v775h375v-775h-375zM125 63h250v650h-250v-650z" />
    <glyph glyph-name=".notdef" horiz-adv-x="500" 
d="M63 0v775h375v-775h-375zM125 63h250v650h-250v-650z" />
    <glyph glyph-name="space" unicode=" " horiz-adv-x="280" 
 />
    <glyph glyph-name="exclam" unicode="!" horiz-adv-x="295" 
d="M202 698v-334l-5 -198h-79l-5 198v334h89zM215 49c0 -15.333 -5.66699 -28.666 -17 -39.999s-25 -17 -41 -17c-15.333 0 -28.666 5.66699 -39.999 17s-17 24.666 -17 39.999c0 16 5.66699 29.667 17 41s24.666 17 39.999 17c16 0 29.667 -5.66699 41 -17s17 -25 17 -41z
" />
    <glyph glyph-name="quotedbl" unicode="&#x22;" horiz-adv-x="361" 
d="M301 547h-86v148c0 11.333 4.16699 21.333 12.5 30s18.5 13 30.5 13s22.167 -4.33301 30.5 -13s12.5 -18.667 12.5 -30v-148zM146 547h-86v148c0 11.333 4.16699 21.333 12.5 30s18.5 13 30.5 13s22.167 -4.33301 30.5 -13s12.5 -18.667 12.5 -30v-148z" />
    <glyph glyph-name="numbersign" unicode="#" horiz-adv-x="715" 
d="M660 496l-18 -81h-121l-28 -132h121l-17 -81h-122l-44 -202h-82l44 202h-134l-44 -202h-82l43 202h-121l17 81h122l28 132h-121l17 81h122l43 202h83l-44 -202h134l44 202h82l-43 -202h121zM438 415h-133l-29 -132h134z" />
    <glyph glyph-name="dollar" unicode="$" horiz-adv-x="528" 
d="M486 228c0 -49.333 -17.665 -90.3311 -52.998 -122.998c-32.667 -28.667 -73.334 -46 -122.001 -52v-53h-79v54c-106 12.667 -167.667 68 -185 166l78 21c11.333 -62 47 -98 107 -108v201c-50.667 12 -87.667 26.667 -111 44c-35.333 25.333 -53 61.666 -53 108.999
c0 45.333 17 82 51 110c30 24 67.667 38.333 113 43v58h79v-59c73.333 -10.667 127.666 -54.334 162.999 -131.001l-72 -33c-22 47.333 -52.333 75 -91 83v-161c54.667 -13.333 94.667 -30 120 -50c36.667 -28 55 -67.667 55 -119zM232.002 416.002v144
c-56 -8.66699 -84 -33 -84 -73c0 -32 28 -55.667 84 -71zM406.002 228.002c0 42 -31.667 71.333 -95 88v-183c63.333 11.333 95 43 95 95z" />
    <glyph glyph-name="percent" unicode="%" horiz-adv-x="788" 
d="M733 186c0 -54.667 -9.66699 -97.334 -29 -128.001c-27.333 -45.333 -67.333 -68 -120 -68s-93 22.667 -121 68c-18.667 30.667 -28 73.334 -28 128.001c0 55.333 9.33301 98.333 28 129c28 45.333 68.333 68 121 68s92.667 -22.667 120 -68
c19.333 -31.333 29 -74.333 29 -129zM591 698l-314 -698h-80l314 698h80zM353 511c0 -54.667 -9.33301 -97.667 -28 -129c-28 -45.333 -68.333 -68 -121 -68s-93 22.667 -121 68c-18.667 31.333 -28 74.333 -28 129s9.33301 97.667 28 129c28 45.333 68.333 68 121 68
s93 -22.667 121 -68c18.667 -31.333 28 -74.333 28 -129zM664 186c0 42 -6.66699 73.833 -20 95.5s-33.333 32.5 -60 32.5s-47.334 -11.333 -62.001 -34c-12 -20.667 -18 -52 -18 -94c0 -41.333 6 -72.333 18 -93c14.667 -23.333 35.334 -35 62.001 -35s47 11.667 61 35
c12.667 20.667 19 51.667 19 93zM284 511c0 42 -6.33398 73 -19.001 93c-14 23.333 -34.333 35 -61 35s-47 -11.667 -61 -35c-12.667 -20 -19 -51 -19 -93s6.33301 -73 19 -93c14 -23.333 34.333 -35 61 -35s47.334 11.667 62.001 35c12 20 18 51 18 93z" />
    <glyph glyph-name="ampersand" unicode="&#x26;" horiz-adv-x="645" 
d="M596 65l-44 -74c-22 16.667 -49 38.667 -81 66c-52 -44.667 -119.333 -67 -202 -67c-63.333 0 -117 16.667 -161 50c-48 36.667 -72 86.667 -72 150c0 84.667 43.667 154 131 208c-37.333 57.333 -56 109 -56 155c0 44 14.167 80.333 42.5 109s64.833 43 109.5 43
c44 0 79.333 -13.667 106 -41s40 -62.666 40 -105.999c0 -66.667 -41 -126.667 -123 -180c54.667 -72 112 -137 172 -195c18.667 39.333 28 90.666 28 153.999h86c0 -87.333 -16.333 -158.333 -49 -213zM323 558c0 42 -20 62.999 -60 62.999c-44 0 -66 -22.667 -66 -68
c0 -32 14 -69 42 -111c56 36.667 84 75.334 84 116.001zM406 115.999c-66.667 64 -130 135.667 -190 215c-32.667 -20.667 -56 -40.667 -70 -60c-16 -22.667 -24 -49.667 -24 -81c0 -35.333 15 -64 45 -86c28 -21.333 62 -32 102 -32c54 0 99.667 14.667 137 44z" />
    <glyph glyph-name="quotesingle" unicode="'" horiz-adv-x="206" 
d="M146 547h-86v148c0 11.333 4.16699 21.333 12.5 30s18.5 13 30.5 13s22.167 -4.33301 30.5 -13s12.5 -18.667 12.5 -30v-148z" />
    <glyph glyph-name="parenleft" unicode="(" horiz-adv-x="343" 
d="M303 0l-111 -0.00195312c-44.667 44 -79.667 97.667 -105 161c-24.667 61.333 -37 124 -37 188s12.5 127.333 37.5 190s59.833 115.667 104.5 159h111c-55.333 -44.667 -97.666 -98.667 -126.999 -162c-27.333 -59.333 -41 -121.666 -41 -186.999
s13.667 -127.666 41 -186.999c29.333 -63.333 71.666 -117.333 126.999 -162z" />
    <glyph glyph-name="parenright" unicode=")" horiz-adv-x="343" 
d="M293 349c0 -64 -12.333 -126.665 -37 -187.998c-25.333 -63.333 -60.333 -117 -105 -161h-111c55.333 44.667 97.666 98.667 126.999 162c27.333 59.333 41 121.666 41 186.999s-13.667 127.666 -41 186.999c-29.333 63.333 -71.666 117.333 -126.999 162h111
c44.667 -43.333 79.5 -96.333 104.5 -159s37.5 -126 37.5 -190z" />
    <glyph glyph-name="asterisk" unicode="*" horiz-adv-x="448" 
d="M403 552l-127 -37l81 -106l-58 -42l-75 110l-75 -110l-58 42l82 106l-128 37l22 68l125 -45l-3 133h71l-4 -133l125 45z" />
    <glyph glyph-name="plus" unicode="+" horiz-adv-x="511" 
d="M466 238h-175v-175h-71v175h-175v71h175v175h71v-175h175v-71z" />
    <glyph glyph-name="comma" unicode="," horiz-adv-x="235" 
d="M170 -14l-81 -126h-24v176c0 14 5.16699 25.833 15.5 35.5s22.5 14.5 36.5 14.5c14.667 0 27.167 -4.83301 37.5 -14.5s15.5 -21.5 15.5 -35.5v-50z" />
    <glyph glyph-name="hyphen" unicode="-" horiz-adv-x="407" 
d="M342 238h-277v71h277v-71z" />
    <glyph glyph-name="hyphen" unicode="&#x2010;" horiz-adv-x="407" 
d="M342 238h-277v71h277v-71z" />
    <glyph glyph-name="period" unicode="." 
d="M187 52c0 -16.667 -6 -30.834 -18 -42.501s-26.333 -17.5 -43 -17.5s-31 5.83301 -43 17.5s-18 25.834 -18 42.501c0 17.333 6 31.833 18 43.5s26.333 17.5 43 17.5s31 -5.83301 43 -17.5s18 -26.167 18 -43.5z" />
    <glyph glyph-name="slash" unicode="/" horiz-adv-x="416" 
d="M411 774l-320 -850h-86l320 850h86z" />
    <glyph glyph-name="zero" unicode="0" horiz-adv-x="585" 
d="M535 349c0 -96.667 -16 -175.667 -48 -237c-41.333 -79.333 -106 -119 -194 -119s-153 39.667 -195 119c-32 61.333 -48 140.333 -48 237s16 175.667 48 237c42 78 107 117 195 117s152.667 -39 194 -117c32 -61.333 48 -140.333 48 -237zM450 349
c0 182 -52.333 273 -157 273s-157 -91 -157 -273c0 -183.333 52.333 -275 157 -275s157 91.667 157 275z" />
    <glyph glyph-name="one" unicode="1" horiz-adv-x="392" 
d="M262 0h-87v581l-101 -69l-44 67l177 119h55v-698z" />
    <glyph glyph-name="two" unicode="2" horiz-adv-x="557" 
d="M507 0l-456.997 -0.00195312v72c41.333 106.667 103.666 191.667 186.999 255l107 72c38.667 30.667 58 66.334 58 107.001c0 36 -13.333 64.667 -40 86s-58.334 32 -95.001 32c-64.667 0 -110.667 -32 -138 -96l-75 35c41.333 95.333 112.333 143 213 143
c62 0 114 -17.667 156 -53c44 -37.333 66 -86.666 66 -147.999c0 -44.667 -10 -81.667 -30 -111c-14.667 -22.667 -39.334 -45.667 -74.001 -69l-95 -64c-64.667 -50 -111.667 -109.333 -141 -178h358v-83z" />
    <glyph glyph-name="three" unicode="3" horiz-adv-x="537" 
d="M487 201c0 -62.667 -21.333 -113.001 -64 -151.001s-96.334 -57 -161.001 -57c-112.667 0 -186.667 53 -222 159l81 25c22.667 -68 70 -102 142 -102c39.333 0 72 11.667 98 35s39 53.666 39 90.999c0 88 -56 131.667 -168 131v63c102 -0.666992 153 38.333 153 117
c0 31.333 -12.667 58 -38 80s-55 33 -89 33c-63.333 0 -106.333 -31.333 -129 -94l-77 31c38.667 96 107.334 144 206.001 144c60 0 110.167 -18 150.5 -54s60.5 -82.667 60.5 -140c0 -69.333 -26 -117.666 -78 -144.999c64 -31.333 96 -86.666 96 -165.999z" />
    <glyph glyph-name="four" unicode="4" horiz-adv-x="550" 
d="M510 173h-67v-173h-85v173h-328v68l298 457h94l-288 -444h224v278l85 -16v-262h67v-81z" />
    <glyph glyph-name="five" unicode="5" horiz-adv-x="542" 
d="M502 238c0 -73.333 -21.333 -132.499 -64 -177.499s-100.334 -67.5 -173.001 -67.5c-110.667 0 -182.334 50.667 -215.001 152l80 30c22 -66.667 67.333 -100 136 -100c48 0 85.333 15.333 112 46c25.333 28.667 38 67.667 38 117c0 48 -12.667 86.5 -38 115.5
s-61.666 43.5 -108.999 43.5c-46.667 0 -87.667 -16.333 -123 -49h-71v350h382v-81h-299v-171c36 21.333 72.667 32 110 32c72.667 0 129.834 -21.833 171.501 -65.5s62.5 -101.834 62.5 -174.501z" />
    <glyph glyph-name="six" unicode="6" horiz-adv-x="548" 
d="M508 215c0 -62.667 -21.332 -115.168 -63.999 -157.501s-95.667 -63.5 -159 -63.5c-70.667 0 -127.5 22.667 -170.5 68s-64.5 102 -64.5 170c0 192.667 84.333 347.667 253 465l119 1c-70 -50 -122.333 -93.333 -157 -130c-48 -49.333 -82.667 -104 -104 -164
c34 28 75.667 42 125 42c65.333 0 118.666 -22.167 159.999 -66.5s62 -99.166 62 -164.499zM425.001 214.999c0 42 -12.832 77.332 -38.499 105.999s-59.167 43 -100.5 43c-46 0 -82 -12.667 -108 -38s-39 -61 -39 -107c0 -39.333 14.667 -73.166 44 -101.499
s63.666 -42.5 102.999 -42.5s72.333 13.5 99 40.5s40 60.167 40 99.5z" />
    <glyph glyph-name="seven" unicode="7" horiz-adv-x="499" 
d="M469 626c-152.667 -162.667 -225.667 -371.333 -219 -626h-89c-1.33301 139.333 18.667 264.333 60 375c30.667 80.667 76 160.667 136 240h-245v-48h-82v131h439v-72z" />
    <glyph glyph-name="eight" unicode="8" horiz-adv-x="538" 
d="M498 203c0 -63.333 -22.665 -114.666 -67.998 -153.999c-42.667 -37.333 -96.334 -56 -161.001 -56s-118.334 18.667 -161.001 56c-45.333 39.333 -68 90.666 -68 153.999c0 73.333 30 128 90 164c-48 34.667 -72 82.334 -72 143.001c0 56.667 21.333 103.667 64 141
c40 35.333 89 53 147 53s107.5 -18 148.5 -54s61.5 -82.667 61.5 -140c0 -60.667 -23.667 -108.334 -71 -143.001c60 -36 90 -90.667 90 -164zM393.002 510c0 32.667 -12.333 59.5 -37 80.5s-53.667 31.5 -87 31.5s-62.333 -10.5 -87 -31.5s-37 -47.833 -37 -80.5
c0 -36 12 -63.667 36 -83c22 -18 51.333 -27 88 -27s66.5 9.33301 89.5 28s34.5 46 34.5 82zM411.002 203c0 40.667 -13.667 73.332 -41 97.999c-26 22.667 -59.667 34 -101 34c-42 0 -76.333 -11.667 -103 -35s-40 -55.666 -40 -96.999c0 -38 14.667 -69.333 44 -94
c26.667 -22.667 59.667 -34 99 -34c38.667 0 72 11.833 100 35.5s42 54.5 42 92.5z" />
    <glyph glyph-name="nine" unicode="9" horiz-adv-x="534" 
d="M489 458c2 -183.333 -82.335 -336.001 -253.002 -458.001h-113c76 58.667 133.667 111.334 173 158.001c34.667 41.333 63.667 90 87 146c-37.333 -28 -77.666 -42 -120.999 -42c-63.333 0 -116.166 21.5 -158.499 64.5s-63.5 95.5 -63.5 157.5
c0 60.667 21 112.667 63 156s94.333 65 157 65c70.667 0 127 -25 169 -75c39.333 -46 59.333 -103.333 60 -172zM399.998 483.999c0 39.333 -13.668 72.333 -41.001 99s-60.666 40 -99.999 40c-38 0 -70 -13.667 -96 -41s-39 -60 -39 -98c0 -38.667 13 -71.667 39 -99
s58 -41 96 -41c40 0 73.5 13.5 100.5 40.5s40.5 60.167 40.5 99.5z" />
    <glyph glyph-name="colon" unicode=":" 
d="M187 341c0 -17.333 -6 -31.833 -18 -43.5s-26.333 -17.5 -43 -17.5s-31 5.83301 -43 17.5s-18 26.167 -18 43.5c0 16.667 6 31 18 43s26.333 18 43 18s31 -6 43 -18s18 -26.333 18 -43zM187 52c0 -16.667 -6 -30.834 -18 -42.501s-26.333 -17.5 -43 -17.5
s-31 5.83301 -43 17.5s-18 25.834 -18 42.501c0 17.333 6 31.833 18 43.5s26.333 17.5 43 17.5s31 -5.83301 43 -17.5s18 -26.167 18 -43.5z" />
    <glyph glyph-name="semicolon" unicode=";" 
d="M187 341c0 -17.333 -6 -31.833 -18 -43.5s-26.333 -17.5 -43 -17.5s-31 5.83301 -43 17.5s-18 26.167 -18 43.5c0 16.667 6 31 18 43s26.333 18 43 18s31 -6 43 -18s18 -26.333 18 -43zM178 -14l-81 -126h-24v176c0 14 5.16699 25.833 15.5 35.5s22.833 14.5 37.5 14.5
c14 0 26.167 -4.83301 36.5 -14.5s15.5 -21.5 15.5 -35.5v-50z" />
    <glyph glyph-name="less" unicode="&#x3c;" horiz-adv-x="480" 
d="M430 0h-110l-270 349l270 349h110l-270 -349z" />
    <glyph glyph-name="equal" unicode="=" horiz-adv-x="521" 
d="M466 315h-411v69h411v-69zM466 116h-411v70h411v-70z" />
    <glyph glyph-name="greater" unicode="&#x3e;" horiz-adv-x="480" 
d="M430 349l-270 -349h-110l270 349l-270 349h110z" />
    <glyph glyph-name="question" unicode="?" horiz-adv-x="488" 
d="M451 518c0 -59.333 -29.332 -106.667 -87.999 -142c-27.333 -16 -45.666 -30 -54.999 -42c-12.667 -16 -20 -38 -22 -66l-4 -94h-64c-6 46.667 -9 78.334 -9 95.001c0 43.333 9.66699 78.666 29 105.999c12 18 32 35.667 60 53c26 16 42.333 27.333 49 34
c14 14.667 21 33.334 21 56.001c0 32 -11 57.5 -33 76.5s-50.333 28.5 -85 28.5s-63.334 -9.66699 -86.001 -29c-24.667 -22 -37 -52.333 -37 -91h-81c0 63.333 21 113.666 63 150.999c38 34.667 85 52 141 52c55.333 0 102.666 -17.333 141.999 -52s59 -80 59 -136z
M308.001 48.999c0 -16 -5.66699 -29.5 -17 -40.5s-24.666 -16.5 -39.999 -16.5c-16 0 -29.667 5.5 -41 16.5s-17 24.5 -17 40.5s5.66699 29.5 17 40.5s25 16.5 41 16.5c15.333 0 28.666 -5.5 39.999 -16.5s17 -24.5 17 -40.5z" />
    <glyph glyph-name="at" unicode="@" horiz-adv-x="715" 
d="M630 274l-17.002 -276.999l-83 5l4 65c-47.333 -53.333 -98.666 -80 -153.999 -80c-16.667 0 -33 3 -49 9c-34.667 12.667 -61.334 36 -80.001 70c-18 32 -27 70.333 -27 115c0 41.333 8 83 24 125c32.667 86 82.667 144 150 174c23.333 10.667 46.666 16 69.999 16
c36.667 0 68.334 -12.333 95.001 -37c-11.333 81.333 -44.333 132 -99 152c-12.667 4.66699 -26.667 7 -42 7c-45.333 0 -90.666 -20 -135.999 -60c-47.333 -42 -83.666 -97.333 -108.999 -166c-19.333 -50.667 -29 -100.334 -29 -149.001c0 -80 23.667 -141 71 -183
l-46 -69c-72 58 -108 141.667 -108 251c0 58.667 11.333 118.334 34 179.001c30.667 81.333 76.167 148.166 136.5 200.499s122.833 78.5 187.5 78.5c24 0 47.333 -4 70 -12c55.333 -20 97 -60 125 -120c21.333 -45.333 32 -97 32 -155c0 -46 -6.66699 -92.333 -20 -139z
M487.998 411.001c-16 5.33301 -34.333 3.66797 -55 -4.99902c-46.667 -21.333 -82.334 -64.333 -107.001 -129c-12 -32 -18 -63.667 -18 -95c0 -28 5 -52 15 -72c12.667 -26.667 31.334 -40 56.001 -40s50 12 76 36c28.667 25.333 50.667 58.666 66 99.999
c12.667 32.667 19 64.667 19 96c0 26.667 -4.66699 50 -14 70s-22 33 -38 39z" />
    <glyph glyph-name="A" unicode="A" horiz-adv-x="655" 
d="M645 0h-95l-79 202h-288l-78 -202h-95l273 698h89zM439 286l-112 284l-111 -284h223z" />
    <glyph glyph-name="B" unicode="B" horiz-adv-x="629" 
d="M574 199c0 -76 -27.999 -131.333 -83.999 -166c-36.667 -22 -87.667 -33 -153 -33h-262v698h244c63.333 0 112.666 -10.667 147.999 -32c54 -33.333 81 -87 81 -161c0 -58.667 -18.667 -105.667 -56 -141c54.667 -34.667 82 -89.667 82 -165zM461.001 505
c0 42.667 -14 72 -42 88c-21.333 12.667 -54.666 19 -99.999 19h-156v-213h156c45.333 0 78.666 6.33301 99.999 19c28 16 42 45 42 87zM486.001 199c0 45.333 -14.667 76.667 -44 94c-22 13.333 -57 20 -105 20h-174v-227h174c48 0 83 6.66699 105 20
c29.333 17.333 44 48.333 44 93z" />
    <glyph glyph-name="C" unicode="C" horiz-adv-x="602" 
d="M557 581l-68 -55.002c-27.333 32.667 -50.666 55.334 -69.999 68.001c-26 17.333 -56.667 26 -92 26c-129.333 0 -194 -90.333 -194 -271s64.667 -271 194 -271c35.333 0 66 8.66699 92 26c19.333 12.667 42.666 35.334 69.999 68.001l67 -55
c-36 -43.333 -69 -74 -99 -92c-37.333 -22.667 -80.666 -34 -129.999 -34c-98.667 0 -174 40 -226 120c-37.333 56.667 -56 136 -56 238c0 102.667 18.667 182 56 238c52 80 127.333 120 226 120c49.333 0 92.666 -11.333 129.999 -34c30 -18 63.333 -48.667 100 -92z" />
    <glyph glyph-name="D" unicode="D" horiz-adv-x="639" 
d="M584 349c0 -67.333 -2.66699 -119 -8 -155c-11.333 -76.667 -43.666 -129.667 -96.999 -159c-41.333 -23.333 -104.333 -35 -189 -35h-215v698h215c84.667 0 147.667 -11.667 189 -35c53.333 -29.333 85.666 -82.333 96.999 -159c5.33301 -35.333 8 -87 8 -155zM496 349
c0 63.333 -2.33301 111.333 -7 144c-7.33301 52 -30.333 86.333 -69 103c-24 10.667 -67.333 16 -130 16h-127v-525h127c62.667 0 106 5 130 15c38.667 16.667 61.667 51 69 103c4.66699 33.333 7 81.333 7 144z" />
    <glyph glyph-name="E" unicode="E" horiz-adv-x="579" 
d="M529 0h-454v698h454v-86h-367v-212h321v-80h-321v-234h367v-86z" />
    <glyph glyph-name="F" unicode="F" horiz-adv-x="559" 
d="M519 612h-357v-211h320v-81h-320v-320h-87v698h444v-86z" />
    <glyph glyph-name="G" unicode="G" horiz-adv-x="635" 
d="M570 380l-0.998047 -379.997h-79v72c-19.333 -30.667 -43 -52.334 -71 -65.001c-24.667 -10.667 -56.667 -16 -96 -16c-96 0 -168.333 37.333 -217 112c-40.667 63.333 -61 145.333 -61 246c0 102 20.667 184.333 62 247c49.333 74 122.666 111 219.999 111
c49.333 0 92.666 -11.333 129.999 -34c31.333 -18.667 64.666 -49.334 99.999 -92.001l-67 -55c-26.667 32 -50 54.667 -70 68c-26.667 17.333 -57.667 26 -93 26c-129.333 0 -194 -90.333 -194 -271s63.333 -271 190 -271c56.667 0 98.334 23.333 125.001 70
c22 37.333 33 86.666 33 147.999h-173v84h262z" />
    <glyph glyph-name="H" unicode="H" horiz-adv-x="664" 
d="M589 0h-88v320h-338v-320h-88v698h88v-295h338v295h88v-698z" />
    <glyph glyph-name="I" unicode="I" horiz-adv-x="251" 
d="M171 0h-91v698h91v-698z" />
    <glyph glyph-name="J" unicode="J" horiz-adv-x="526" 
d="M461 218c0 -64 -13.333 -113.334 -40 -148.001c-39.333 -51.333 -101.333 -77 -186 -77c-86 0 -148.667 29.667 -188 89c-12 18 -22.667 44.667 -32 80l84 22c7.33301 -26.667 14.333 -45 21 -55c22 -33.333 60.333 -49.666 115 -48.999c56 0 94.667 14 116 42
c14.667 19.333 22 51.333 22 96v480h88v-480z" />
    <glyph glyph-name="K" unicode="K" horiz-adv-x="579" 
d="M564 0h-103l-298 350v-350h-88v698h88v-344l257 344h96l-259 -346z" />
    <glyph glyph-name="L" unicode="L" horiz-adv-x="503" 
d="M488 0h-413v698h87v-612h326v-86z" />
    <glyph glyph-name="M" unicode="M" horiz-adv-x="738" 
d="M663 0h-88v450l-168 -450h-77l-167 447v-447h-88v698h73l221 -567l211 567h83v-698z" />
    <glyph glyph-name="N" unicode="N" horiz-adv-x="640" 
d="M565 0h-83l-319 523v-523h-88v698h83l320 -523v523h87v-698z" />
    <glyph glyph-name="O" unicode="O" horiz-adv-x="656" 
d="M611 349c0 -102.667 -18.666 -182 -55.999 -238c-52.667 -80 -128.334 -120 -227.001 -120s-174.334 40 -227.001 120c-37.333 56 -56 135.333 -56 238s18.667 182 56 238c53.333 80 129 120 227 120c98.667 0 174.334 -40 227.001 -120c37.333 -56 56 -135.333 56 -238z
M523.001 349c0 86 -14 149.667 -42 191c-35.333 53.333 -86.333 80 -153 80s-117.667 -26.667 -153 -80c-28 -41.333 -42 -105 -42 -191c0 -85.333 14 -149 42 -191c35.333 -53.333 86.333 -80 153 -80s117.667 26.667 153 80c28 42 42 105.667 42 191z" />
    <glyph glyph-name="P" unicode="P" horiz-adv-x="604" 
d="M574 499c0 -76.667 -28 -132.333 -84 -167c-36 -22 -87 -33 -153 -33h-174v-299h-88v698h262c66 0 117 -11 153 -33c56 -34.667 84 -90 84 -166zM486 499.001c0 44 -14.333 75 -43 93c-21.333 13.333 -56.666 20 -105.999 20h-174v-227h174c49.333 0 84.666 7 105.999 21
c28.667 17.333 43 48.333 43 93z" />
    <glyph glyph-name="Q" unicode="Q" horiz-adv-x="680" 
d="M640 0l-114.001 -0.000976562l-32 38c-45.333 -31.333 -97.333 -47 -156 -47c-99.333 0 -175 40 -227 120c-37.333 56.667 -56 136 -56 238s18.667 181.333 56 238c52.667 80 128.334 120 227.001 120c99.333 0 175 -40 227 -120c37.333 -56.667 56 -136 56 -238
c0 -109.333 -21.333 -192.666 -64 -249.999zM532.999 348.999c0 84.667 -14 148.334 -42 191.001c-34.667 53.333 -85.667 80 -153 80c-66.667 0 -117.667 -26.667 -153 -80c-28 -42.667 -42 -106.334 -42 -191.001s14 -148.334 42 -191.001
c35.333 -53.333 86.333 -80 153 -80c37.333 0 70 8.66699 98 26c-26.667 24.667 -65.667 39.334 -117 44.001v86c76 -6 135.333 -28.667 178 -68c24 40.667 36 101.667 36 183z" />
    <glyph glyph-name="R" unicode="R" horiz-adv-x="608" 
d="M576 0h-98l-150 257c-19.333 32.667 -44.333 49 -75 49h-91v-306h-86v698h243c69.333 0 124 -15 164 -45c44.667 -34 67 -84.333 67 -151c0 -48.667 -14.5 -91.334 -43.5 -128.001s-67.5 -59 -115.5 -67c4.66699 -5.33301 11 -13.666 19 -24.999zM464 502
c0 74 -48.333 111 -145 111h-157v-232h160c94.667 0 142 40.333 142 121z" />
    <glyph glyph-name="S" unicode="S" horiz-adv-x="618" 
d="M573 203c0 -65.333 -25.999 -117.999 -77.999 -157.999c-47.333 -36 -105 -54 -173 -54c-159.333 0 -251.666 72.333 -276.999 217l87 15c9.33301 -52.667 30.333 -90.667 63 -114c29.333 -20.667 71.666 -31 126.999 -31c43.333 0 80 9.66699 110 29
c35.333 23.333 53 55.333 53 96c0 50.667 -35.667 87.334 -107 110.001l-198 57c-71.333 30.667 -107 81.667 -107 153c0 60 24 106.333 72 139c42 28.667 94.333 43 157 43c64 0 115.667 -12.167 155 -36.5s72.666 -64.833 99.999 -121.5l-80 -37
c-20 41.333 -42.333 69.666 -67 84.999s-60.667 23 -108 23c-94 0 -141 -31.667 -141 -95c0 -40.667 35.667 -71.334 107 -92.001c123.333 -36 189.333 -56.333 198 -61c71.333 -35.333 107 -91 107 -167z" />
    <glyph glyph-name="T" unicode="T" horiz-adv-x="554" 
d="M534 612h-213v-612h-88v612h-213v86h514v-86z" />
    <glyph glyph-name="U" unicode="U" horiz-adv-x="654" 
d="M584 293c0 -201.333 -85.667 -302 -257 -302s-257 100.667 -257 302v405h88v-405c0 -69.333 10.333 -120.333 31 -153c26 -42.667 72 -64 138 -64s112.333 21.333 139 64c20 32.667 30 83.667 30 153v405h88v-405z" />
    <glyph glyph-name="V" unicode="V" horiz-adv-x="587" 
d="M562 698l-229 -698h-79l-229 698h92l176 -538l176 538h93z" />
    <glyph glyph-name="W" unicode="W" horiz-adv-x="785" 
d="M760 698l-168 -698h-82l-117 490l-118 -490h-82l-168 698h91l118 -497l118 497h81l118 -497l118 497h91z" />
    <glyph glyph-name="X" unicode="X" horiz-adv-x="620" 
d="M595 0h-105l-180 279l-181 -279h-104l233 360l-219 338h104l167 -258l167 258h104l-219 -338z" />
    <glyph glyph-name="Y" unicode="Y" horiz-adv-x="599" 
d="M574 698l-231 -466v-232h-87v234l-231 464h98l177 -356l176 356h98z" />
    <glyph glyph-name="Z" unicode="Z" horiz-adv-x="591" 
d="M536 0h-491v69l375 543h-340v86h456v-73l-373 -539h373v-86z" />
    <glyph glyph-name="bracketleft" unicode="[" horiz-adv-x="294" 
d="M244 -76h-174v850h174v-53h-92v-744h92v-53z" />
    <glyph glyph-name="backslash" unicode="\" horiz-adv-x="416" 
d="M411 -76h-86l-320 850h86z" />
    <glyph glyph-name="bracketright" unicode="]" horiz-adv-x="294" 
d="M224 -76h-174v53h92v744h-92v53h174v-850z" />
    <glyph glyph-name="asciicircum" unicode="^" horiz-adv-x="551" 
d="M496 411l-71 -39l-149 234l-149 -234l-72 39l183 287h75z" />
    <glyph glyph-name="underscore" unicode="_" horiz-adv-x="529" 
d="M514 -74h-499v74h499v-74z" />
    <glyph glyph-name="grave" unicode="`" horiz-adv-x="328" 
d="M253 545h-73l-105 146h94z" />
    <glyph glyph-name="a" unicode="a" horiz-adv-x="478" 
d="M433 12l-78.999 -24l-11 36c-38 -22.667 -81.667 -34 -131 -34c-44 0 -82.333 13.667 -115 41c-34.667 28.667 -52 65 -52 109c0 45.333 17 82 51 110c31.333 26.667 70 40 116 40h82c17.333 0 30.666 3.66699 39.999 11v45c0 21.333 -9.16699 38 -27.5 50
s-39.5 18 -63.5 18c-56 0 -91.667 -25.333 -107 -76l-76 29c26 85.333 87.667 128 185 128c45.333 0 84.333 -13 117 -39c36.667 -28 55 -64.667 55 -110v-282zM334.001 112l-0.000976562 105.001c-11.333 -3.33301 -22.666 -5 -33.999 -5h-89
c-22 0 -41.333 -6.83301 -58 -20.5s-25 -30.834 -25 -51.501s8.5 -37.5 25.5 -50.5s36.5 -19.5 58.5 -19.5c49.333 0 90 14 122 42z" />
    <glyph glyph-name="b" unicode="b" horiz-adv-x="506" 
d="M461 243c0 -168 -66.333 -252 -199 -252c-44.667 0 -81 10.667 -109 32v-23h-83v698h83v-240c30.667 24.667 67 37 109 37c132.667 0 199 -84 199 -252zM379 243c0 53.333 -7 93 -21 119c-18 34 -50 51 -96 51c-31.333 0 -57.333 -8.83301 -78 -26.5s-31 -41.5 -31 -71.5
v-145c0 -29.333 10.333 -52.833 31 -70.5s46.667 -26.5 78 -26.5c46 0 78 17 96 51c14 26 21 65.667 21 119z" />
    <glyph glyph-name="c" unicode="c" horiz-adv-x="490" 
d="M445 80c-29.333 -31.333 -55.666 -53.334 -78.999 -66.001c-28 -14.667 -61.333 -22 -100 -22c-70.667 0 -126 24.667 -166 74c-36.667 45.333 -55 104.333 -55 177s18.333 132 55 178c40 49.333 95.333 74 166 74c38.667 0 72 -7.66699 100 -23
c23.333 -12.667 49.666 -34.667 78.999 -66l-62 -55c-20.667 22.667 -37.667 38 -51 46c-19.333 12 -41.333 18 -66 18c-88.667 0 -133 -57.333 -133 -172s44.333 -172 133 -172c24.667 0 46.667 6 66 18c13.333 8.66699 30.333 24.334 51 47.001z" />
    <glyph glyph-name="d" unicode="d" horiz-adv-x="513" 
d="M453 12l-79 -24l-11 38c-32 -23.333 -71.333 -35 -118 -35c-133.333 0 -200 84 -200 252c0 168.667 66.667 253 200 253c44.667 0 81 -10.333 109 -31v233h83v-634zM354 172v147c0 26.667 -10.667 49 -32 67s-47 27 -77 27c-46 0 -78 -17 -96 -51
c-14 -26 -21 -65.667 -21 -119s7 -93 21 -119c18 -34 50 -51 96 -51c31.333 0 57.333 8.5 78 25.5s31 41.5 31 73.5z" />
    <glyph glyph-name="e" unicode="e" horiz-adv-x="493" 
d="M448 262l-0.999023 -49.999h-319c4 -92.667 49.667 -139 137 -139c49.333 0 89.333 19.333 120 58l58 -57c-44 -54.667 -103.333 -82 -178 -82c-146.667 0 -220 83 -220 249c0 75.333 16 134.666 48 177.999c36 49.333 90.333 74 163 74
c65.333 0 114.666 -22.667 147.999 -68c29.333 -40 44 -94.333 44 -163zM364.001 293.001c-4 80 -39.999 120 -107.999 120c-74.667 0 -116.334 -40 -125.001 -120h233z" />
    <glyph glyph-name="f" unicode="f" horiz-adv-x="306" 
d="M286 698l-0.000976562 -84c-57.333 0 -91.666 -20.333 -102.999 -61c-4.66699 -16 -7 -38 -7 -66h95v-73h-95v-414h-82v414h-44v73h44c0 60 9.66699 105.667 29 137c30.667 49.333 85 74 163 74z" />
    <glyph glyph-name="g" unicode="g" horiz-adv-x="510" 
d="M475 -7c0 -54.667 -25 -99.334 -75 -134.001c-44.667 -30.667 -95.667 -46 -153 -46c-53.333 0 -98 9.33301 -134 28c-45.333 23.333 -68 59.333 -68 108c0 15.333 3 32.666 9 51.999l77 -27c-2.66699 -7.33301 -4 -14 -4 -20c0 -44 40 -66 120 -66
c33.333 0 65 8.66699 95 26c34.667 20.667 52 46.334 52 77.001c0 13.333 -5.5 23.833 -16.5 31.5s-23.167 11.5 -36.5 11.5c-18 0 -44.5 -4.16699 -79.5 -12.5s-61.5 -12.5 -79.5 -12.5c-28 0 -51.333 7 -70 21c-20.667 15.333 -31 36.333 -31 63c0 34 16.667 64.667 50 92
c-41.333 28.667 -62 74.667 -62 138c0 54 16.5 96.167 49.5 126.5s76.833 45.5 131.5 45.5c49.333 0 89.666 -12 120.999 -36c11.333 5.33301 16.333 22 15 50h81c0.666992 -56.667 -15.333 -94.334 -48 -113.001c7.33301 -21.333 11 -45.666 11 -72.999
c0 -112.667 -60 -169 -180 -169c-16.667 0 -32.334 1.33301 -47.001 4c-29.333 -20.667 -44 -42 -44 -64c0 -10 6.33301 -15 19 -15c18.667 0 45.834 4.66699 81.501 14s62.834 14 81.501 14c36 0 66.667 -9.66699 92 -29c28 -21.333 42 -49.666 42 -84.999zM347 323
c0 62 -32.333 93 -97 93c-66 0 -99 -31 -99 -93c0 -64.667 33.333 -97 100 -97c64 0 96 32.333 96 97z" />
    <glyph glyph-name="h" unicode="h" horiz-adv-x="521" 
d="M461 0h-82v282c0 44.667 -8 77.334 -24 98.001c-18.667 22.667 -49.667 34 -93 34c-32 0 -58.167 -10.833 -78.5 -32.5s-30.5 -48.834 -30.5 -81.501v-300h-83v698h83v-241c30.667 26 67 39 109 39c132.667 0 199 -69.667 199 -209v-287z" />
    <glyph glyph-name="i" unicode="i" horiz-adv-x="232" 
d="M167 655c0 -14 -5 -26 -15 -36s-22 -15 -36 -15s-26 5 -36 15s-15 22 -15 36s5 26 15 36s22 15 36 15s26 -5 36 -15s15 -22 15 -36zM157 0h-83v487h83v-487z" />
    <glyph glyph-name="j" unicode="j" horiz-adv-x="254" 
d="M184 655c0 -14 -5 -26 -15 -36s-22 -15 -36 -15s-26 5 -36 15s-15 22 -15 36s5 26 15 36s22 15 36 15s26 -5 36 -15s15 -22 15 -36zM175 -13c0 -138 -65 -207 -195 -207v81c44 0 74.333 10.333 91 31c14 18 21 49.667 21 95v500h83v-500z" />
    <glyph glyph-name="k" unicode="k" horiz-adv-x="479" 
d="M469 0h-112l-204 254v-254h-83v698h83v-419l176 208h110l-190 -219z" />
    <glyph glyph-name="l" unicode="l" horiz-adv-x="226" 
d="M191 0c-80.667 0 -121 41.667 -121 125v573h81v-573c0 -16 2.66699 -26.833 8 -32.5s16 -8.5 32 -8.5v-84z" />
    <glyph glyph-name="m" unicode="m" horiz-adv-x="785" 
d="M725 0h-84.001v296c0 34 -8.83301 62 -26.5 84s-43.167 33 -76.5 33c-30 0 -54 -11.5 -72 -34.5s-27 -50.5 -27 -82.5v-296h-83v296c0 34.667 -8.66699 62.667 -26 84c-19.333 22 -45.666 33 -78.999 33c-27.333 0 -50.333 -11.167 -69 -33.5s-28 -48.833 -28 -79.5v-300
h-84v487h84v-28c30.667 24.667 63 37 97 37c62 0 110.667 -23.667 146 -71c37.333 47.333 84.333 71 141 71c57.333 0 103.333 -19.667 138 -59c32.667 -37.333 49 -84.333 49 -141v-296z" />
    <glyph glyph-name="n" unicode="n" horiz-adv-x="521" 
d="M461 0h-81.999v279c0 46 -8 79 -24 99c-18 22 -49 33 -93 33c-32 0 -58.167 -11 -78.5 -33s-30.5 -49 -30.5 -81v-297h-83v487h83v-35c33.333 28.667 69.666 43 108.999 43c132.667 0 199 -70.333 199 -211v-284z" />
    <glyph glyph-name="o" unicode="o" horiz-adv-x="507" 
d="M462 243c0 -166.667 -69.333 -250 -208 -250c-139.333 0 -209 83 -209 249c0 168 69.667 252 209 252c138.667 0 208 -83.667 208 -251zM379 242c0 54.667 -7.66699 95 -23 121c-19.333 33.333 -53.666 50 -102.999 50c-48.667 0 -82.667 -16.667 -102 -50
c-15.333 -26 -23 -66.333 -23 -121c0 -54 7.66699 -94 23 -120c19.333 -32 53.333 -48 102 -48c49.333 0 83.666 16 102.999 48c15.333 26 23 66 23 120z" />
    <glyph glyph-name="p" unicode="p" horiz-adv-x="506" 
d="M461 239c0 -166.667 -66.333 -250 -199 -250c-46.667 0 -83 9.33301 -109 28v-237h-83v707h83v-28c30.667 24 67 36 109 36c132.667 0 199 -85.333 199 -256zM379 240c0 52 -6.66699 91 -20 117c-18 35.333 -50.333 53 -97 53c-30.667 0 -56.5 -9.33301 -77.5 -28
s-31.5 -43 -31.5 -73v-138c0 -30 10.5 -54 31.5 -72s46.833 -27 77.5 -27c46.667 0 79 17.333 97 52c13.333 25.333 20 64 20 116z" />
    <glyph glyph-name="q" unicode="q" horiz-adv-x="514" 
d="M454 470l-15.999 -52v-638h-83v239c-32 -20 -68.333 -30 -109 -30c-134 0 -201 84 -201 252c0 168.667 67 253 201 253c43.333 0 82.666 -12.667 117.999 -38l11 38zM355.001 172v139c0 30 -10.5 54.167 -31.5 72.5s-46.833 27.5 -77.5 27.5c-46 0 -78.333 -17 -97 -51
c-13.333 -26 -20 -65.667 -20 -119c0 -54 6.66699 -93.667 20 -119c18 -33.333 50.333 -50 97 -50c31.333 0 57.333 9 78 27s31 42.333 31 73z" />
    <glyph glyph-name="r" unicode="r" horiz-adv-x="386" 
d="M356 465l-35 -71c-21.333 12 -42.333 18 -63 18c-29.333 0 -54 -7.66699 -74 -23c-22 -16.667 -33 -39 -33 -67v-322h-81v487h81v-25c28 22.667 63.667 34 107 34c42 0 74.667 -10.333 98 -31z" />
    <glyph glyph-name="s" unicode="s" horiz-adv-x="466" 
d="M426 142c0 -47.333 -19.6699 -85.001 -59.0029 -113.001c-34.667 -25.333 -76.667 -38 -126 -38c-110 0 -177 47.333 -201 142l83 15c10 -29.333 24.667 -49.333 44 -60c16.667 -10 41.334 -15 74.001 -15c25.333 0 47.333 5 66 15c23.333 12.667 35 30.667 35 54
c0 31.333 -24.667 54.333 -74 69l-137 39c-49.333 23.333 -74 60 -74 110c0 44.667 18 79.334 54 104.001c30.667 20.667 69.334 31 116.001 31c86 0 146 -34 180 -102l-75 -37c-20 37.333 -55 56 -105 56c-57.333 0 -86 -17.333 -86 -52c0 -21.333 24.667 -38.333 74 -51
c72.667 -18.667 118.334 -33 137.001 -43c49.333 -26.667 74 -68 74 -124z" />
    <glyph glyph-name="t" unicode="t" horiz-adv-x="291" 
d="M246 413h-72v-289c0 -26.667 13 -40 39 -40h22v-84h-23c-79.333 -0 -119 41.333 -119 124v289h-63v75h63v138h81v-138h72v-75z" />
    <glyph glyph-name="u" unicode="u" horiz-adv-x="516" 
d="M451 0l-82 -0.000976562v25c-32.667 -22.667 -69 -34 -109 -34c-133.333 0 -200 71.667 -200 215v281h83v-277c0 -47.333 8 -81.666 24 -102.999c17.333 -23.333 48.333 -35 93 -35c29.333 0 54.833 8.83301 76.5 26.5s32.5 40.5 32.5 68.5v320h82v-487z" />
    <glyph glyph-name="v" unicode="v" horiz-adv-x="486" 
d="M466 487l-185 -487h-77l-184 487h91l132 -350l132 350h91z" />
    <glyph glyph-name="w" unicode="w" horiz-adv-x="766" 
d="M746 487l-160 -487h-78l-126 344l-127 -344h-78l-157 487h90l109 -338l124 338h77l124 -339l111 339h91z" />
    <glyph glyph-name="x" unicode="x" horiz-adv-x="491" 
d="M471 0h-103l-123 177l-122 -177h-103l174 250l-164 237h102l113 -159l113 159h103l-164 -237z" />
    <glyph glyph-name="y" unicode="y" horiz-adv-x="485" 
d="M465 487l-223 -602c-11.333 -29.333 -26 -52.333 -44 -69c-27.333 -24.667 -60 -36.667 -98 -36h-38v84c33.333 0 54 1.33301 62 4c15.333 6 28 21.333 38 46l33 87l-175 486h91l130 -365l133 365h91z" />
    <glyph glyph-name="z" unicode="z" horiz-adv-x="466" 
d="M421 0h-381v74l264 331h-241v82h358v-71l-266 -334h266v-82z" />
    <glyph glyph-name="braceleft" unicode="{" horiz-adv-x="334" 
d="M303 -76c-128.667 0 -193 62.334 -193 187.001c0 12.667 2.5 31.5 7.5 56.5s7.5 43.833 7.5 56.5c0 62 -31.333 92.667 -94 92v66c62.667 -0.666992 94 30 94 92c0 12 -2.5 29.833 -7.5 53.5s-7.5 41.5 -7.5 53.5c0 66.667 15.333 115.667 46 147s79.667 47 147 47v-77
c-42.667 0 -71.667 -10.667 -87 -32c-13.333 -18 -20 -49 -20 -93c0 -10.667 2.66699 -26.834 8 -48.501s8 -37.834 8 -48.501c0 -56.667 -19 -99 -57 -127c38 -27.333 57 -69.333 57 -126c0 -11.333 -2.66699 -28.166 -8 -50.499s-8 -39.166 -8 -50.499
c0 -40.667 7.33301 -70.334 22 -89.001c16.667 -20.667 45 -31 85 -31v-78z" />
    <glyph glyph-name="bar" unicode="|" horiz-adv-x="276" 
d="M181 -76h-86v850h86v-850z" />
    <glyph glyph-name="braceright" unicode="}" horiz-adv-x="334" 
d="M303 316c-62.667 0.666992 -93.999 -30.001 -93.999 -92.001c0 -12.667 2.5 -31.5 7.5 -56.5s7.5 -43.833 7.5 -56.5c0 -124.667 -64.333 -187 -193 -187v78c40 0 68.333 10.333 85 31c14.667 18.667 22 48.334 22 89.001c0 11.333 -2.83301 28.166 -8.5 50.499
s-8.5 39.166 -8.5 50.499c0 56.667 19 98.667 57 126c-37.333 28 -56 70.333 -56 127c0 10.667 2.5 26.834 7.5 48.501s7.5 37.834 7.5 48.501c0 44 -6.33301 75 -19 93c-16 21.333 -45 32 -87 32v77c67.333 0 116.166 -15.667 146.499 -47s45.5 -80.333 45.5 -147
c0 -12 -2.33301 -29.833 -7 -53.5s-7 -41.5 -7 -53.5c0 -62 31.333 -92.667 94 -92v-66z" />
    <glyph glyph-name="asciitilde" unicode="~" horiz-adv-x="509" 
d="M459 295c-45.333 -48 -86.667 -72 -124 -72c-25.333 0 -54.833 10.667 -88.5 32s-58.834 32 -75.501 32c-19.333 0 -40 -15.667 -62 -47l-59 53c40.667 48.667 81.667 73 123 73c25.333 0 54.833 -10.667 88.5 -32s58.834 -32 75.501 -32c18 0 39.667 16 65 48z" />
    <glyph glyph-name="nonbreakingspace" unicode="&#xa0;" horiz-adv-x="140" 
 />
    <glyph glyph-name="exclamdown" unicode="&#xa1;" horiz-adv-x="295" 
d="M195 430c0 -16 -5.66699 -29.667 -17 -41s-25 -17 -41 -17c-15.333 0 -28.666 5.66699 -39.999 17s-17 25 -17 41c0 15.333 5.66699 28.666 17 39.999s24.666 17 39.999 17c16 0 29.667 -5.66699 41 -17s17 -24.666 17 -39.999zM182 -219h-89v334l5 198h79l5 -198v-334z
" />
    <glyph glyph-name="cent" unicode="&#xa2;" horiz-adv-x="488" 
d="M443 404l-55.999 -50c-30.667 33.333 -57.667 53.333 -81 60l-76 -350c12 -2.66699 24.333 -4 37 -4c23.333 0 43.333 4.33301 60 13s36.667 26 60 52l56 -51c-30.667 -32.667 -58.834 -55.167 -84.501 -67.5s-56.167 -18.5 -91.5 -18.5c-18 0 -35.333 1.66699 -52 5
l-18 -82l-66 14l20 92c-70.667 42 -106 116 -106 222c0 74 18.5 133.667 55.5 179s88.167 69.333 153.5 72l17 77l65 -14l-14 -68c38 -8 78.333 -35 121 -81zM238.001 416c-36 -6.66699 -63.833 -24.167 -83.5 -52.5s-29.5 -69.833 -29.5 -124.5
c0 -65.333 14.667 -112.333 44 -141z" />
    <glyph glyph-name="sterling" unicode="&#xa3;" horiz-adv-x="528" 
d="M483 601l-60.999 -53c-23.333 26.667 -42.666 44.667 -57.999 54c-20.667 12 -47.334 18 -80.001 18c-72.667 0 -109 -42.667 -109 -128c0 -24 4.33301 -58 13 -102h129l-17 -80h-96c6.66699 -35.333 10 -66.333 10 -93c0 -43.333 -8.33301 -88.666 -25 -135.999h278v-81
h-373v59c26 59.333 39 112.333 39 159c0 24 -3.66699 54.667 -11 92h-77l17 80h44c-8 42.667 -12 76.667 -12 102c0 61.333 16 110.666 48 147.999c35.333 40.667 82.666 61 141.999 61c47.333 0 87.333 -9.66699 120 -29c24 -14 50.333 -37.667 79 -71z" />
    <glyph glyph-name="currency" unicode="&#xa4;" horiz-adv-x="660" 
d="M602 63c-54 -48 -119.667 -72.001 -197 -72.001c-73.333 0 -135.666 22.333 -186.999 67c-48.667 42.667 -80.334 99.334 -95.001 170.001h-81l19 78h52c-0.666992 16.667 -0.666992 34.667 0 54h-71l19 79h56c10 79.333 39.333 143 88 191c52 51.333 118.667 77 200 77
c74.667 0 139 -24 193 -72l-46 -76c-25.333 24 -48.666 40.5 -69.999 49.5s-47 13.5 -77 13.5c-56.667 0 -101.834 -16.5 -135.501 -49.5s-54.834 -77.5 -63.501 -133.5h258l-18 -79h-245c0 -22.667 0.333008 -40.667 1 -54h262l-18 -78h-233
c12.667 -46.667 35.667 -83.667 69 -111s74.333 -41 123 -41c30 0 55.833 4.5 77.5 13.5s44.834 25.5 69.501 49.5z" />
    <glyph glyph-name="yen" unicode="&#xa5;" horiz-adv-x="619" 
d="M584 698l-152 -306h82l-18 -84h-105l-22 -44h145l-18 -84h-143v-180h-87v180h-161l18 84h128l-22 44h-124l18 84h64l-152 306h98l177 -356l176 356h98z" />
    <glyph glyph-name="brokenbar" unicode="&#xa6;" horiz-adv-x="357" 
d="M220 389h-77v386h77v-386zM220 -76h-77v386h77v-386z" />
    <glyph glyph-name="section" unicode="&#xa7;" horiz-adv-x="517" 
d="M452 223c0 -57.333 -16.332 -103.334 -48.999 -138.001c20 -26 30 -58.667 30 -98c0 -54.667 -16.5 -99.5 -49.5 -134.5s-75.5 -52.5 -127.5 -52.5c-71.333 0 -134.333 51.667 -189 155l71 39c39.333 -74.667 78.666 -112 117.999 -112c28.667 0 51.834 9.5 69.501 28.5
s26.5 44.5 26.5 76.5c0 24.667 -6.33301 43 -19 55c-14.667 13.333 -42.667 25 -84 35c-122.667 30 -184 94.667 -184 194c0 56.667 16.667 102.667 50 138c-20.667 26 -31 58.667 -31 98c0 54 16.5 98.5 49.5 133.5s75.5 52.5 127.5 52.5
c71.333 0 134.333 -51.333 189 -154l-70 -39c-40 74.667 -79.667 112 -119 112c-28.667 0 -51.834 -9.5 -69.501 -28.5s-26.5 -44.5 -26.5 -76.5c0 -24.667 6.66699 -43 20 -55c14 -14 41.667 -26 83 -36c122.667 -29.333 184 -93.666 184 -192.999zM372.001 222.999
c0 56.667 -41 94.666 -123 113.999c-27.333 6.66699 -50.333 14.334 -69 23.001c-22.667 -19.333 -34 -49 -34 -89c0 -56.667 40.667 -95 122 -115c27.333 -6.66699 50.333 -14 69 -22c23.333 19.333 35 49 35 89z" />
    <glyph glyph-name="dieresis" unicode="&#xa8;" horiz-adv-x="449" 
d="M384 598c0 -15.333 -5.5 -28.5 -16.5 -39.5s-24.167 -16.5 -39.5 -16.5s-28.5 5.5 -39.5 16.5s-16.5 24.167 -16.5 39.5s5.5 28.5 16.5 39.5s24.167 16.5 39.5 16.5s28.5 -5.5 39.5 -16.5s16.5 -24.167 16.5 -39.5zM177 598c0 -15.333 -5.5 -28.5 -16.5 -39.5
s-24.167 -16.5 -39.5 -16.5s-28.5 5.5 -39.5 16.5s-16.5 24.167 -16.5 39.5s5.5 28.5 16.5 39.5s24.167 16.5 39.5 16.5s28.5 -5.5 39.5 -16.5s16.5 -24.167 16.5 -39.5z" />
    <glyph glyph-name="copyright" unicode="&#xa9;" horiz-adv-x="790" 
d="M745 348c0 -96.667 -34.167 -179.167 -102.5 -247.5s-150.833 -102.5 -247.5 -102.5s-179.167 34.167 -247.5 102.5s-102.5 150.833 -102.5 247.5s34.167 179.167 102.5 247.5s150.833 102.5 247.5 102.5s179.167 -34.167 247.5 -102.5s102.5 -150.833 102.5 -247.5z
M675 348c0 77.333 -27.333 143.333 -82 198s-120.667 82 -198 82c-76.667 0 -142.334 -27.333 -197.001 -82s-82 -120.667 -82 -198s27.333 -143.166 82 -197.499s120.334 -81.5 197.001 -81.5c77.333 0 143.333 27.167 198 81.5s82 120.166 82 197.499zM535 475
l-58 -48.001c-26 31.333 -50.667 47 -74 47c-29.333 0 -51.333 -11.333 -66 -34c-12.667 -20 -19 -50.667 -19 -92s6.33301 -71.666 19 -90.999c14.667 -23.333 36.667 -35 66 -35c23.333 0 48 15.667 74 47l58 -48c-41.333 -49.333 -85.333 -74 -132 -74
c-56.667 0 -99.667 23 -129 69c-20.667 32 -31 76 -31 132s10.333 100 31 132c29.333 46.667 72.333 70 129 70c46.667 0 90.667 -25 132 -75z" />
    <glyph glyph-name="ordfeminine" unicode="&#xaa;" horiz-adv-x="413" 
d="M368 325l-77 -23.999l-7 22c-29.333 -16 -61.666 -24 -96.999 -24c-38.667 0 -72 12.333 -100 37s-42 54.667 -42 90s14 65.166 42 89.499s61.333 36.5 100 36.5h63c9.33301 0 17.333 2.66699 24 8v26c0 10.667 -5.33301 20.167 -16 28.5s-24.667 12.5 -42 12.5
c-32.667 0 -57.334 -12.667 -74.001 -38l-79 25c29.333 62 80.333 93 153 93c38 0 70.667 -11.667 98 -35s41 -52 41 -86v-219zM283 189.001h-157v73h157v-73zM274 414.001v61c-8 -1.33301 -16 -2 -24 -2h-63c-17.333 0 -31.833 -4.83301 -43.5 -14.5
s-17.5 -20.5 -17.5 -32.5s5.83301 -22.833 17.5 -32.5s26.167 -14.5 43.5 -14.5c32.667 0 61.667 11.667 87 35z" />
    <glyph glyph-name="guillemotleft" unicode="&#xab;" horiz-adv-x="491" 
d="M436 393l-144 -135l144 -135v-103l-224 209v57l223 210zM269 393l-144 -135l144 -135v-103l-224 209v57l223 210z" />
    <glyph glyph-name="logicalnot" unicode="&#xac;" horiz-adv-x="531" 
d="M476 88h-73v135h-358v73h431v-208z" />
    <glyph glyph-name="minus" unicode="&#xad;" horiz-adv-x="520" 
d="M467 238h-414v71h414v-71z" />
    <glyph glyph-name="minus" unicode="&#x2212;" horiz-adv-x="520" 
d="M467 238h-414v71h414v-71z" />
    <glyph glyph-name="registered" unicode="&#xae;" horiz-adv-x="790" 
d="M745 348c0 -96.667 -34.167 -179.167 -102.5 -247.5s-150.833 -102.5 -247.5 -102.5s-179.167 34.167 -247.5 102.5s-102.5 150.833 -102.5 247.5s34.167 179.167 102.5 247.5s150.833 102.5 247.5 102.5s179.167 -34.167 247.5 -102.5s102.5 -150.833 102.5 -247.5z
M675 348c0 77.333 -27.333 143.333 -82 198s-120.667 82 -198 82c-76.667 0 -142.334 -27.333 -197.001 -82s-82 -120.667 -82 -198s27.333 -143.166 82 -197.499s120.334 -81.5 197.001 -81.5c77.333 0 143.333 27.167 198 81.5s82 120.166 82 197.499zM569 153
l-88 0.000976562l-82 135c-8.66699 14 -18 21 -28 21h-31v-156h-75v391h142c36.667 0 65 -6.66699 85 -20c33.333 -20.667 50 -53.334 50 -98.001c0 -55.333 -24.333 -91.333 -73 -108l2 -3zM467 426.001c0 22.667 -10 36 -30 40c-7.33301 1.33301 -17.333 2 -30 2h-67v-84
h67c20.667 0 35 2.33301 43 7c11.333 6 17 17.667 17 35z" />
    <glyph glyph-name="macron" unicode="&#xaf;" horiz-adv-x="530" 
d="M425 579h-319v73h319v-73z" />
    <glyph glyph-name="macron" unicode="&#x2c9;" horiz-adv-x="530" 
d="M425 579h-319v73h319v-73z" />
    <glyph glyph-name="degree" unicode="&#xb0;" horiz-adv-x="305" 
d="M260 661c0 -30 -10.5 -55.5 -31.5 -76.5s-46.167 -31.5 -75.5 -31.5c-30 0 -55.5 10.5 -76.5 31.5s-31.5 46.5 -31.5 76.5c0 29.333 10.5 54.5 31.5 75.5s46.5 31.5 76.5 31.5c29.333 0 54.5 -10.5 75.5 -31.5s31.5 -46.167 31.5 -75.5zM201 661
c0 13.333 -4.66699 24.833 -14 34.5s-20.666 14.5 -33.999 14.5c-14 0 -25.667 -4.83301 -35 -14.5s-14 -21.167 -14 -34.5s4.66699 -24.833 14 -34.5s21 -14.5 35 -14.5c13.333 0 24.666 4.83301 33.999 14.5s14 21.167 14 34.5z" />
    <glyph glyph-name="plusminus" unicode="&#xb1;" horiz-adv-x="536" 
d="M481 274h-171v-168h-84v168h-171v83h171v168h84v-168h171v-83zM481 0h-426v82h426v-82z" />
    <glyph glyph-name="twosuperior" unicode="&#xb2;" horiz-adv-x="379" 
d="M316 274l-263.003 -0.00195312v55c10.667 28.667 20.834 50.167 30.501 64.5s31.167 39.5 64.5 75.5c60.667 64.667 91 105 91 121c0 26.667 -16.333 40 -49 40c-23.333 0 -45.666 -19.667 -66.999 -59l-67 35c34.667 66 79.334 99 134.001 99
c32.667 0 61 -9.33301 85 -28c27.333 -22 41 -51 41 -87c0 -23.333 -8.33301 -46.666 -25 -69.999c-12.667 -18 -40.667 -48.667 -84 -92c-24.667 -25.333 -45 -51.666 -61 -78.999h170v-75z" />
    <glyph glyph-name="threesuperior" unicode="&#xb3;" horiz-adv-x="376" 
d="M318 403c0 -36 -13 -66.834 -39 -92.501s-57 -38.5 -93 -38.5c-28.667 0 -54.5 8.33301 -77.5 25s-39.167 38.334 -48.5 65.001l-1 3l73 25l1 -5c8.66699 -25.333 26.334 -38 53.001 -38c15.333 0 28.333 5.5 39 16.5s16 24.167 16 39.5c0 16 -5.33301 29.5 -16 40.5
s-23.667 16.5 -39 16.5h-30v75h26c14.667 0 27 4.66699 37 14s15 20.666 15 33.999c0 12.667 -5 23.667 -15 33s-22.333 14 -37 14c-25.333 0 -41.666 -11 -48.999 -33l-2 -5l-72 25l2 5c8.66699 24.667 24.167 44.834 46.5 60.501s47.166 23.5 74.499 23.5
c35.333 0 65.666 -12 90.999 -36s38 -53 38 -87c0 -32.667 -11.667 -60.667 -35 -84c28 -26 42 -58 42 -96z" />
    <glyph glyph-name="acute" unicode="&#xb4;" horiz-adv-x="308" 
d="M243 691l-105 -146h-73l84 146h94z" />
    <glyph glyph-name="mu" unicode="&#xb5;" horiz-adv-x="523" 
d="M458 0h-83.999v22c-32 -20 -68 -30 -108 -30c-44.667 0 -83.334 10.333 -116.001 31v-214h-85v678h85v-276c0 -45.333 6.66699 -78 20 -98c18 -27.333 50 -41 96 -41c44 0 75.333 16 94 48c6 10 10.667 22.333 14 37v330h84v-487z" />
    <glyph glyph-name="mu" unicode="&#x3bc;" horiz-adv-x="523" 
d="M458 0h-83.999v22c-32 -20 -68 -30 -108 -30c-44.667 0 -83.334 10.333 -116.001 31v-214h-85v678h85v-276c0 -45.333 6.66699 -78 20 -98c18 -27.333 50 -41 96 -41c44 0 75.333 16 94 48c6 10 10.667 22.333 14 37v330h84v-487z" />
    <glyph glyph-name="paragraph" unicode="&#xb6;" horiz-adv-x="577" 
d="M492 -151l-87.001 -0.00195312v749h-78v-749h-87v442c-52.667 5.33301 -96.667 27.333 -132 66s-53 84.334 -53 137.001c0 56.667 19.833 104.834 59.5 144.501s87.834 59.5 144.501 59.5h233v-849z" />
    <glyph glyph-name="periodcentered" unicode="&#xb7;" 
d="M187 265c0 -17.333 -6 -31.833 -18 -43.5s-26.333 -17.5 -43 -17.5s-31 5.83301 -43 17.5s-18 26.167 -18 43.5c0 16.667 6 31 18 43s26.333 18 43 18s31 -6 43 -18s18 -26.333 18 -43z" />
    <glyph glyph-name="periodcentered" unicode="&#x2219;" 
d="M187 265c0 -17.333 -6 -31.833 -18 -43.5s-26.333 -17.5 -43 -17.5s-31 5.83301 -43 17.5s-18 26.167 -18 43.5c0 16.667 6 31 18 43s26.333 18 43 18s31 -6 43 -18s18 -26.333 18 -43z" />
    <glyph glyph-name="cedilla" unicode="&#xb8;" horiz-adv-x="527" 
d="M337 -67l-68 -129h-96l91 132l-27 72l65 23z" />
    <glyph glyph-name="onesuperior" unicode="&#xb9;" horiz-adv-x="302" 
d="M214 274h-74v324l-57 -35l-37 65l125 76h43v-430z" />
    <glyph glyph-name="ordmasculine" unicode="&#xba;" horiz-adv-x="436" 
d="M391 503c0 -56 -9.33301 -99.332 -28 -129.999c-30 -48.667 -78.333 -73 -145 -73s-115 24.333 -145 73c-18.667 30.667 -28 73.667 -28 129v1c0 56 9.33301 99.667 28 131c30 48.667 78.333 73 145 73s115 -24.333 145 -73c18.667 -30.667 28 -74.334 28 -131.001z
M297 189.001h-157v73h157v-73zM309 503.001c0 41.333 -5.33301 71 -16 89c-14.667 23.333 -39.667 35 -75 35s-60 -11.667 -74 -35c-11.333 -18 -17 -47.667 -17 -89s5.66699 -71 17 -89c14 -22.667 38.667 -34 74 -34s60.333 11.333 75 34c10.667 18 16 47.667 16 89z" />
    <glyph glyph-name="guillemotright" unicode="&#xbb;" horiz-adv-x="491" 
d="M446 229l-224 -209v103l144 135l-144 135v103l224 -210v-57zM279 229l-224 -209v103l144 135l-144 135v103l224 -210v-57z" />
    <glyph glyph-name="onequarter" unicode="&#xbc;" horiz-adv-x="786" 
d="M719 100h-26v-100h-77v100h-165v60l172 271h90l-162 -255h65v94l77 -15v-79h26v-76zM581 698l-316 -698h-77l315 698h78zM214 274h-74v324l-57 -35l-37 65l125 76h43v-430z" />
    <glyph glyph-name="onehalf" unicode="&#xbd;" horiz-adv-x="824" 
d="M763 0l-263.001 -0.000976562v55c10.667 28.667 20.834 50.167 30.501 64.5s31.167 39.5 64.5 75.5c60.667 65.333 91 106 91 122c0 26.667 -16.333 40 -49 40c-24 0 -46.333 -19.667 -67 -59l-68 35c35.333 66 80.333 99 135 99c32.667 0 61 -9.66699 85 -29
c26.667 -21.333 40 -50 40 -86c0 -24 -8.33301 -47.667 -25 -71c-12.667 -18 -40.334 -48.667 -83.001 -92c-25.333 -25.333 -45.666 -51.666 -60.999 -78.999h170v-75zM580.999 697.999l-316 -698h-77l315 698h78zM213.999 273.999h-74v324l-57 -35l-37 65l125 76h43v-430z
" />
    <glyph glyph-name="threequarters" unicode="&#xbe;" horiz-adv-x="867" 
d="M783 100h-27v-100h-76v100h-165v60l171 271h84l-160 -255h70v94l76 -15v-79h27v-76zM644 698l-315 -698h-77l315 698h77zM318 403c0 -36 -13 -66.834 -39 -92.501s-57 -38.5 -93 -38.5c-28.667 0 -54.5 8.33301 -77.5 25s-39.167 38.334 -48.5 65.001l-1 3l73 25l1 -5
c8.66699 -25.333 26.334 -38 53.001 -38c15.333 0 28.333 5.5 39 16.5s16 24.167 16 39.5c0 16 -5.33301 29.5 -16 40.5s-23.667 16.5 -39 16.5h-30v75h26c14.667 0 27 4.66699 37 14s15 20.666 15 33.999c0 12.667 -5 23.667 -15 33s-22.333 14 -37 14
c-25.333 0 -41.666 -11 -48.999 -33l-2 -5l-72 25l2 5c8.66699 24.667 24.167 44.834 46.5 60.501s47.166 23.5 74.499 23.5c35.333 0 65.666 -12 90.999 -36s38 -53 38 -87c0 -32.667 -11.667 -60.667 -35 -84c28 -26 42 -58 42 -96z" />
    <glyph glyph-name="questiondown" unicode="&#xbf;" horiz-adv-x="488" 
d="M304 431c0 -16 -5.66699 -29.667 -17 -41s-24.666 -17 -39.999 -17c-16 0 -29.667 5.66699 -41 17s-17 25 -17 41c0 15.333 5.66699 28.666 17 39.999s25 17 41 17c15.333 0 28.666 -5.66699 39.999 -17s17 -24.666 17 -39.999zM451 -23c0 -64 -21 -114.668 -63 -152.001
c-38 -34 -85 -51 -141 -51c-55.333 0 -102.666 17.167 -141.999 51.5s-59 79.833 -59 136.5c0 59.333 29.333 106.333 88 141c27.333 16 45.666 30 54.999 42c13.333 16 20.666 38 21.999 66l4 95h64c6 -47.333 9 -79.333 9 -96c0 -43.333 -9.33301 -78.666 -28 -105.999
c-12.667 -17.333 -32.5 -34.333 -59.5 -51s-43.833 -28.667 -50.5 -36c-14 -14 -21 -32.333 -21 -55c0 -32.667 11.167 -58.5 33.5 -77.5s50.5 -28.5 84.5 -28.5c34.667 0 63.334 10 86.001 30c25.333 22 38 52.333 38 91h80z" />
    <glyph glyph-name="Agrave" unicode="&#xc0;" horiz-adv-x="655" 
d="M373 775h-73l-105 146h94zM645 0h-95l-79 202h-288l-78 -202h-95l273 698h89zM439 286l-112 284l-111 -284h223z" />
    <glyph glyph-name="Aacute" unicode="&#xc1;" horiz-adv-x="655" 
d="M459 921l-105 -146h-73l84 146h94zM645 0h-95l-79 202h-288l-78 -202h-95l273 698h89zM439 286l-112 284l-111 -284h223z" />
    <glyph glyph-name="Acircumflex" unicode="&#xc2;" horiz-adv-x="655" 
d="M492 775h-104l-63 103l-63 -103h-104l116 146h102zM645 0h-95l-79 202h-288l-78 -202h-95l273 698h89zM439 286l-112 284l-111 -284h223z" />
    <glyph glyph-name="Atilde" unicode="&#xc3;" horiz-adv-x="655" 
d="M524 817c-40.667 -44 -78.335 -66 -113.002 -66c-22 0 -48.333 9.66699 -79 29s-53.334 29 -68.001 29c-18 0 -37 -14.333 -57 -43l-52 49c36.667 44 73.334 66 110.001 66c22.667 0 49.334 -9.66699 80.001 -29s53.334 -29 68.001 -29c16.667 0 36.667 14.333 60 43z
M644.999 0h-95l-79 202h-288l-78 -202h-95l273 698h89zM438.999 286l-112 284l-111 -284h223z" />
    <glyph glyph-name="Adieresis" unicode="&#xc4;" horiz-adv-x="655" 
d="M486 831c0 -15.333 -5.5 -28.5 -16.5 -39.5s-24.167 -16.5 -39.5 -16.5s-28.5 5.5 -39.5 16.5s-16.5 24.167 -16.5 39.5s5.5 28.5 16.5 39.5s24.167 16.5 39.5 16.5s28.5 -5.5 39.5 -16.5s16.5 -24.167 16.5 -39.5zM279 831c0 -15.333 -5.5 -28.5 -16.5 -39.5
s-24.167 -16.5 -39.5 -16.5s-28.5 5.5 -39.5 16.5s-16.5 24.167 -16.5 39.5s5.5 28.5 16.5 39.5s24.167 16.5 39.5 16.5s28.5 -5.5 39.5 -16.5s16.5 -24.167 16.5 -39.5zM645 0h-95l-79 202h-288l-78 -202h-95l273 698h89zM439 286l-112 284l-111 -284h223z" />
    <glyph glyph-name="Aring" unicode="&#xc5;" horiz-adv-x="655" 
d="M444 861c0 -32 -11.333 -59.333 -34 -82s-50.334 -34 -83.001 -34c-32 0 -59.333 11.333 -82 34s-34 50 -34 82s11.333 59.5 34 82.5s50 34.5 82 34.5c32.667 0 60.334 -11.5 83.001 -34.5s34 -50.5 34 -82.5zM645 0h-95l-79 202h-288l-78 -202h-95l273 698h89zM377 861
c0 14 -4.83301 25.833 -14.5 35.5s-21.5 14.5 -35.5 14.5c-13.333 0 -25 -4.83301 -35 -14.5s-15 -21.5 -15 -35.5s5 -25.833 15 -35.5s21.667 -14.5 35 -14.5c14 0 25.833 4.83301 35.5 14.5s14.5 21.5 14.5 35.5zM439 286l-112 284l-111 -284h223z" />
    <glyph glyph-name="AE" unicode="&#xc6;" horiz-adv-x="935" 
d="M890 0h-441l1 201h-236l-98 -201h-101l347 698h528v-86h-351v-209h304v-83h-304v-234h351v-86zM450 284v326h-40l-158 -326h198z" />
    <glyph glyph-name="Ccedilla" unicode="&#xc7;" horiz-adv-x="602" 
d="M557 581l-68 -54.999c-32 38 -59.167 63.167 -81.5 75.5s-49.166 18.5 -80.499 18.5c-66.667 0 -117.334 -26.667 -152.001 -80c-28 -42.667 -42 -106.334 -42 -191.001s14 -148.334 42 -191.001c34.667 -53.333 85.334 -80 152.001 -80
c31.333 0 58.166 6.33301 80.499 19s49.5 37.667 81.5 75l67 -55c-60.667 -72 -121 -112.667 -181 -122l22 -62l-68 -129h-96l90 132l-21 56c-87.333 7.33301 -154.333 47 -201 119c-37.333 56.667 -56 136 -56 238s18.667 181.333 56 238c52 80 127.333 120 226 120
c46 0 85.833 -9.16699 119.5 -27.5s70.5 -51.166 110.5 -98.499z" />
    <glyph glyph-name="Egrave" unicode="&#xc8;" horiz-adv-x="579" 
d="M372 775h-73l-105 146h94zM529 0h-454v698h454v-86h-367v-208h321v-84h-321v-234h367v-86z" />
    <glyph glyph-name="Eacute" unicode="&#xc9;" horiz-adv-x="579" 
d="M419 921l-105 -146h-73l84 146h94zM529 0h-454v698h454v-86h-367v-206h321v-86h-321v-234h367v-86z" />
    <glyph glyph-name="Ecircumflex" unicode="&#xca;" horiz-adv-x="579" 
d="M483 775h-104l-63 103l-63 -103h-104l116 146h102zM529 0h-454v698h454v-86h-367v-208h321v-84h-321v-234h367v-86z" />
    <glyph glyph-name="Edieresis" unicode="&#xcb;" horiz-adv-x="579" 
d="M477 831c0 -15.333 -5.5 -28.5 -16.5 -39.5s-24.167 -16.5 -39.5 -16.5s-28.5 5.5 -39.5 16.5s-16.5 24.167 -16.5 39.5s5.5 28.5 16.5 39.5s24.167 16.5 39.5 16.5s28.5 -5.5 39.5 -16.5s16.5 -24.167 16.5 -39.5zM270 831c0 -15.333 -5.5 -28.5 -16.5 -39.5
s-24.167 -16.5 -39.5 -16.5c-16 0 -29.333 5.5 -40 16.5s-16 24.167 -16 39.5s5.33301 28.5 16 39.5s24 16.5 40 16.5c15.333 0 28.5 -5.5 39.5 -16.5s16.5 -24.167 16.5 -39.5zM529 0h-454v698h454v-86h-367v-208h321v-84h-321v-234h367v-86z" />
    <glyph glyph-name="Igrave" unicode="&#xcc;" 
d="M187 775h-74l-105 146h95zM172 0h-90v698h90v-698z" />
    <glyph glyph-name="Iacute" unicode="&#xcd;" horiz-adv-x="258" 
d="M243 921l-105 -146h-73l84 146h94zM177 0h-91v698h91v-698z" />
    <glyph glyph-name="Icircumflex" unicode="&#xce;" 
d="M290 775h-103l-63 103l-63 -103h-104l115 146h103zM169 0h-90v698h90v-698z" />
    <glyph glyph-name="Idieresis" unicode="&#xcf;" 
d="M287 831c0 -15.333 -5.5 -28.5 -16.5 -39.5s-24.167 -16.5 -39.5 -16.5s-28.5 5.5 -39.5 16.5s-16.5 24.167 -16.5 39.5s5.5 28.5 16.5 39.5s24.167 16.5 39.5 16.5s28.5 -5.5 39.5 -16.5s16.5 -24.167 16.5 -39.5zM80 831c0 -15.333 -5.5 -28.5 -16.5 -39.5
s-24.167 -16.5 -39.5 -16.5s-28.5 5.5 -39.5 16.5s-16.5 24.167 -16.5 39.5s5.5 28.5 16.5 39.5s24.167 16.5 39.5 16.5s28.5 -5.5 39.5 -16.5s16.5 -24.167 16.5 -39.5zM173 0h-91v698h91v-698z" />
    <glyph glyph-name="Eth" unicode="&#xd0;" horiz-adv-x="705" 
d="M617 349c0 -64 -2.66699 -115.668 -8 -155.001c-10.667 -77.333 -44 -130.666 -100 -159.999c-42 -22.667 -104.333 -34 -187 -34h-216v304h-41v87h41v307h216c82.667 0 145 -11 187 -33c56 -30 89.333 -83.667 100 -161c5.33301 -39.333 8 -91 8 -155zM529 348.999
c0 60.667 -2.33301 108.667 -7 144c-6.66699 49.333 -25.334 81.5 -56.001 96.5s-78.667 22.5 -144 22.5h-128v-221h158v-87h-158v-217h128c65.333 0 113.333 7.33301 144 22s49.334 46.667 56.001 96c4.66699 36 7 84 7 144z" />
    <glyph glyph-name="Ntilde" unicode="&#xd1;" horiz-adv-x="640" 
d="M507 817c-40.667 -44 -78.335 -66 -113.002 -66c-22 0 -48.333 9.66699 -79 29s-53.334 29 -68.001 29c-18 0 -37 -14.333 -57 -43l-52 49c36.667 44 73.334 66 110.001 66c22.667 0 49.334 -9.66699 80.001 -29s53.334 -29 68.001 -29c16.667 0 36.667 14.333 60 43z
M564.999 0h-83l-319 523v-523h-88v698h83l320 -523v523h87v-698z" />
    <glyph glyph-name="Ograve" unicode="&#xd2;" horiz-adv-x="656" 
d="M396 775h-73l-105 146h94zM611 349c0 -102 -18.668 -181.333 -56.001 -238c-52 -80 -127.667 -120 -227 -120s-175 40 -227 120c-37.333 56.667 -56 136 -56 238s18.667 181.333 56 238c52.667 80 128.334 120 227.001 120c99.333 0 175 -40 227 -120
c37.333 -56.667 56 -136 56 -238zM522.999 349c0 84.667 -14 148.334 -42 191.001c-34.667 53.333 -85.667 80 -153 80s-118.333 -26.667 -153 -80c-28 -42.667 -42 -106.334 -42 -191.001s14 -148.334 42 -191.001c34.667 -53.333 85.667 -80 153 -80
s118.333 26.667 153 80c28 42.667 42 106.334 42 191.001z" />
    <glyph glyph-name="Oacute" unicode="&#xd3;" horiz-adv-x="656" 
d="M440 921l-105 -146h-73l84 146h94zM611 349c0 -102 -18.668 -181.333 -56.001 -238c-52 -80 -127.667 -120 -227 -120s-175 40 -227 120c-37.333 56.667 -56 136 -56 238s18.667 181.333 56 238c52.667 80 128.334 120 227.001 120c99.333 0 175 -40 227 -120
c37.333 -56.667 56 -136 56 -238zM522.999 349c0 84.667 -14 148.334 -42 191.001c-34.667 53.333 -85.667 80 -153 80s-118.333 -26.667 -153 -80c-28 -42.667 -42 -106.334 -42 -191.001s14 -148.334 42 -191.001c34.667 -53.333 85.667 -80 153 -80
s118.333 26.667 153 80c28 42.667 42 106.334 42 191.001z" />
    <glyph glyph-name="Ocircumflex" unicode="&#xd4;" horiz-adv-x="656" 
d="M493 775h-104l-63 103l-63 -103h-104l116 146h102zM611 349c0 -102 -18.668 -181.333 -56.001 -238c-52 -80 -127.667 -120 -227 -120s-175 40 -227 120c-37.333 56.667 -56 136 -56 238s18.667 181.333 56 238c52.667 80 128.334 120 227.001 120
c99.333 0 175 -40 227 -120c37.333 -56.667 56 -136 56 -238zM522.999 349c0 84.667 -14 148.334 -42 191.001c-34.667 53.333 -85.667 80 -153 80s-118.333 -26.667 -153 -80c-28 -42.667 -42 -106.334 -42 -191.001s14 -148.334 42 -191.001
c34.667 -53.333 85.667 -80 153 -80s118.333 26.667 153 80c28 42.667 42 106.334 42 191.001z" />
    <glyph glyph-name="Otilde" unicode="&#xd5;" horiz-adv-x="656" 
d="M522 817c-40.667 -44 -78.335 -66 -113.002 -66c-22 0 -48.333 9.66699 -79 29s-53.334 29 -68.001 29c-18 0 -37 -14.333 -57 -43l-52 49c36.667 44 73.334 66 110.001 66c22.667 0 49.334 -9.66699 80.001 -29s53.334 -29 68.001 -29c16.667 0 36.667 14.333 60 43z
M610.999 349c0 -102 -18.668 -181.333 -56.001 -238c-52 -80 -127.667 -120 -227 -120s-175 40 -227 120c-37.333 56.667 -56 136 -56 238s18.667 181.333 56 238c52.667 80 128.334 120 227.001 120c99.333 0 175 -40 227 -120c37.333 -56.667 56 -136 56 -238z
M522.998 349c0 84.667 -14 148.334 -42 191.001c-34.667 53.333 -85.667 80 -153 80s-118.333 -26.667 -153 -80c-28 -42.667 -42 -106.334 -42 -191.001s14 -148.334 42 -191.001c34.667 -53.333 85.667 -80 153 -80s118.333 26.667 153 80
c28 42.667 42 106.334 42 191.001z" />
    <glyph glyph-name="Odieresis" unicode="&#xd6;" horiz-adv-x="656" 
d="M486 831c0 -15.333 -5.5 -28.5 -16.5 -39.5s-24.167 -16.5 -39.5 -16.5s-28.5 5.5 -39.5 16.5s-16.5 24.167 -16.5 39.5s5.5 28.5 16.5 39.5s24.167 16.5 39.5 16.5s28.5 -5.5 39.5 -16.5s16.5 -24.167 16.5 -39.5zM279 831c0 -15.333 -5.5 -28.5 -16.5 -39.5
s-24.167 -16.5 -39.5 -16.5c-16 0 -29.333 5.5 -40 16.5s-16 24.167 -16 39.5s5.33301 28.5 16 39.5s24 16.5 40 16.5c15.333 0 28.5 -5.5 39.5 -16.5s16.5 -24.167 16.5 -39.5zM611 349c0 -102 -18.668 -181.333 -56.001 -238c-52 -80 -127.667 -120 -227 -120
s-175 40 -227 120c-37.333 56.667 -56 136 -56 238s18.667 181.333 56 238c52.667 80 128.334 120 227.001 120c99.333 0 175 -40 227 -120c37.333 -56.667 56 -136 56 -238zM522.999 349c0 84.667 -14 148.334 -42 191.001c-34.667 53.333 -85.667 80 -153 80
s-118.333 -26.667 -153 -80c-28 -42.667 -42 -106.334 -42 -191.001s14 -148.334 42 -191.001c34.667 -53.333 85.667 -80 153 -80s118.333 26.667 153 80c28 42.667 42 106.334 42 191.001z" />
    <glyph glyph-name="multiply" unicode="&#xd7;" horiz-adv-x="481" 
d="M419 152l-57 -57l-122 122l-121 -122l-57 57l121 122l-121 121l57 57l121 -121l122 121l57 -57l-122 -121z" />
    <glyph glyph-name="Oslash" unicode="&#xd8;" horiz-adv-x="656" 
d="M611 349c0 -102.667 -18.666 -182 -55.999 -238c-52.667 -80 -128.334 -120 -227.001 -120c-53.333 0 -101 13 -143 39l-18 -30h-97l50 85c-50 60 -75 148 -75 264c0 102.667 18.667 182 56 238c53.333 80 129 120 227 120c52 0 98.333 -12 139 -36l17 27h97l-48 -81
c52 -60 78 -149.333 78 -268zM523.001 349c0 82.667 -12.667 144.667 -38 186l-256 -431c28 -17.333 61 -26 99 -26c66.667 0 117.667 26.667 153 80c28 42 42 105.667 42 191zM423.001 596c-27.333 16 -59 24 -95 24c-66.667 0 -117.667 -26.667 -153 -80
c-28 -41.333 -42 -105 -42 -191c0 -80.667 12 -141 36 -181z" />
    <glyph glyph-name="Ugrave" unicode="&#xd9;" horiz-adv-x="654" 
d="M407 775h-73l-105 146h94zM584 303c0 -88 -13.9971 -155.332 -41.9971 -201.999c-44.667 -72.667 -116.334 -109.334 -215.001 -110.001c-98.667 0 -170 36.667 -214 110c-28.667 46.667 -43 114 -43 202v395h88v-395c0 -72 10 -124.667 30 -158
c27.333 -44.667 73.666 -67 138.999 -67s111.666 22.333 138.999 67c20 33.333 30 86 30 158v395h88v-395z" />
    <glyph glyph-name="Uacute" unicode="&#xda;" horiz-adv-x="654" 
d="M438 921l-105 -146h-73l84 146h94zM584 303c0 -88 -13.9971 -155.332 -41.9971 -201.999c-44.667 -72.667 -116.334 -109.334 -215.001 -110.001c-98.667 0 -170 36.667 -214 110c-28.667 46.667 -43 114 -43 202v395h88v-395c0 -72 10 -124.667 30 -158
c27.333 -44.667 73.666 -67 138.999 -67s111.666 22.333 138.999 67c20 33.333 30 86 30 158v395h88v-395z" />
    <glyph glyph-name="Ucircumflex" unicode="&#xdb;" horiz-adv-x="654" 
d="M501 775h-104l-63 103l-63 -103h-104l116 146h102zM584 303c0 -88 -13.9971 -155.332 -41.9971 -201.999c-44.667 -72.667 -116.334 -109.334 -215.001 -110.001c-98.667 0 -170 36.667 -214 110c-28.667 46.667 -43 114 -43 202v395h88v-395c0 -72 10 -124.667 30 -158
c27.333 -44.667 73.666 -67 138.999 -67s111.666 22.333 138.999 67c20 33.333 30 86 30 158v395h88v-395z" />
    <glyph glyph-name="Udieresis" unicode="&#xdc;" horiz-adv-x="654" 
d="M489 831c0 -15.333 -5.5 -28.5 -16.5 -39.5s-24.167 -16.5 -39.5 -16.5s-28.5 5.5 -39.5 16.5s-16.5 24.167 -16.5 39.5s5.5 28.5 16.5 39.5s24.167 16.5 39.5 16.5s28.5 -5.5 39.5 -16.5s16.5 -24.167 16.5 -39.5zM282 831c0 -15.333 -5.5 -28.5 -16.5 -39.5
s-24.167 -16.5 -39.5 -16.5c-16 0 -29.333 5.5 -40 16.5s-16 24.167 -16 39.5s5.33301 28.5 16 39.5s24 16.5 40 16.5c15.333 0 28.5 -5.5 39.5 -16.5s16.5 -24.167 16.5 -39.5zM584 303c0 -88 -13.9971 -155.332 -41.9971 -201.999
c-44.667 -72.667 -116.334 -109.334 -215.001 -110.001c-98.667 0 -170 36.667 -214 110c-28.667 46.667 -43 114 -43 202v395h88v-395c0 -72 10 -124.667 30 -158c27.333 -44.667 73.666 -67 138.999 -67s111.666 22.333 138.999 67c20 33.333 30 86 30 158v395h88v-395z
" />
    <glyph glyph-name="Yacute" unicode="&#xdd;" horiz-adv-x="599" 
d="M410 921l-105 -146h-73l83 146h95zM574 698l-231 -466v-232h-87v234l-231 464h98l177 -356l176 356h98z" />
    <glyph glyph-name="Thorn" unicode="&#xde;" horiz-adv-x="670" 
d="M607 360c0 -76.667 -28 -132.333 -84 -167c-36 -22 -87 -33 -153 -33h-174v-160h-88v698h88v-139h174c66 0 117 -11 153 -33c56 -34.667 84 -90 84 -166zM519 360.001c0 44 -14.333 75 -43 93c-21.333 13.333 -56.666 20 -105.999 20h-174v-226h174
c49.333 0 84.666 6.66699 105.999 20c28.667 17.333 43 48.333 43 93z" />
    <glyph glyph-name="germandbls" unicode="&#xdf;" horiz-adv-x="512" 
d="M467 245c0 -82 -16.999 -142.332 -50.999 -180.999c-35.333 -40.667 -93.333 -62 -174 -64v84c55.333 1.33301 93 15 113 41c18 23.333 27 63 27 119c0 57.333 -9 98 -27 122c-20.667 28 -58.334 42 -113.001 42v79c46 0 69 22.667 69 68
c0 17.333 -6.66699 32.666 -20 45.999s-29 20 -47 20c-62.667 0 -94 -43.333 -94 -130v-491h-85v414h-44v73h44c0 145.333 59.667 218 179 218c43.333 0 79.5 -14.5 108.5 -43.5s43.5 -64.5 43.5 -106.5c0 -37.333 -11.667 -67 -35 -89c70.667 -30 106 -103.667 106 -221z
" />
    <glyph glyph-name="agrave" unicode="&#xe0;" horiz-adv-x="488" 
d="M314 545h-73l-105 146h94zM433 12l-78.999 -24l-11 36c-38 -22.667 -81.667 -34 -131 -34c-44 0 -82.333 13.667 -115 41c-34.667 28.667 -52 65 -52 109c0 45.333 17 82 51 110c31.333 26.667 70 40 116 40h82c17.333 0 30.666 3.66699 39.999 11v45
c0 21.333 -9.16699 38 -27.5 50s-39.5 18 -63.5 18c-56 0 -91.667 -25.333 -107 -76l-76 29c26 85.333 87.667 128 185 128c45.333 0 84.333 -13 117 -39c36.667 -28 55 -64.667 55 -110v-282zM334.001 112l-0.000976562 105.001c-11.333 -3.33301 -22.666 -5 -33.999 -5
h-89c-22 0 -41.333 -6.83301 -58 -20.5s-25 -30.834 -25 -51.501s8.5 -37.5 25.5 -50.5s36.5 -19.5 58.5 -19.5c49.333 0 90 14 122 42z" />
    <glyph glyph-name="aacute" unicode="&#xe1;" horiz-adv-x="488" 
d="M360 691l-105 -146h-73l83 146h95zM433 12l-78.999 -24l-11 36c-38 -22.667 -81.667 -34 -131 -34c-44 0 -82.333 13.667 -115 41c-34.667 28.667 -52 65 -52 109c0 45.333 17 82 51 110c31.333 26.667 70 40 116 40h82c17.333 0 30.666 3.66699 39.999 11v45
c0 21.333 -9.16699 38 -27.5 50s-39.5 18 -63.5 18c-56 0 -91.667 -25.333 -107 -76l-76 29c26 85.333 87.667 128 185 128c45.333 0 84.333 -13 117 -39c36.667 -28 55 -64.667 55 -110v-282zM334.001 112l-0.000976562 105.001c-11.333 -3.33301 -22.666 -5 -33.999 -5
h-89c-22 0 -41.333 -6.83301 -58 -20.5s-25 -30.834 -25 -51.501s8.5 -37.5 25.5 -50.5s36.5 -19.5 58.5 -19.5c49.333 0 90 14 122 42z" />
    <glyph glyph-name="acircumflex" unicode="&#xe2;" horiz-adv-x="488" 
d="M410 533h-104l-63 103l-63 -103h-103l115 146h103zM433 12l-78.999 -24l-11 36c-38 -22.667 -81.667 -34 -131 -34c-44 0 -82.333 13.667 -115 41c-34.667 28.667 -52 65 -52 109c0 45.333 17 82 51 110c31.333 26.667 70 40 116 40h82
c17.333 0 30.666 3.66699 39.999 11v45c0 21.333 -9.16699 38 -27.5 50s-39.5 18 -63.5 18c-56 0 -91.667 -25.333 -107 -76l-76 29c26 85.333 87.667 128 185 128c45.333 0 84.333 -13 117 -39c36.667 -28 55 -64.667 55 -110v-282zM334.001 112l-0.000976562 105.001
c-11.333 -3.33301 -22.666 -5 -33.999 -5h-89c-22 0 -41.333 -6.83301 -58 -20.5s-25 -30.834 -25 -51.501s8.5 -37.5 25.5 -50.5s36.5 -19.5 58.5 -19.5c49.333 0 90 14 122 42z" />
    <glyph glyph-name="atilde" unicode="&#xe3;" horiz-adv-x="488" 
d="M420 595c-37.333 -44.667 -75.333 -67 -114 -67c-24 0 -48.333 8.5 -73 25.5s-43.667 25.5 -57 25.5c-17.333 0 -35.666 -13.667 -54.999 -41l-56 45c34 45.333 71.333 68 112 68c22 0 46.167 -8.5 72.5 -25.5s45.833 -25.5 58.5 -25.5c19.333 0 38.666 14 57.999 42z
M433 12l-78.999 -23.999l-11 36c-38 -22.667 -81.667 -34 -131 -34c-44 0 -82.333 13.667 -115 41c-34.667 28.667 -52 65 -52 109c0 45.333 16.333 81.666 49 108.999s72 41 118 41h82c17.333 0 30.666 3.66699 39.999 11v45c0 21.333 -9.16699 38 -27.5 50
s-39.5 18 -63.5 18c-56 0 -91.667 -25.333 -107 -76l-76 29c26 85.333 87.667 128 185 128c45.333 0 84.333 -13 117 -39c36.667 -28 55 -64.667 55 -110v-282zM334.001 112.001l-0.000976562 105.001c-11.333 -3.33301 -22.666 -5 -33.999 -5h-89
c-22 0 -41.333 -6.83301 -58 -20.5s-25 -30.834 -25 -51.501s8.5 -37.5 25.5 -50.5s36.5 -19.5 58.5 -19.5c49.333 0 90 14 122 42z" />
    <glyph glyph-name="adieresis" unicode="&#xe4;" horiz-adv-x="488" 
d="M404 598c0 -15.333 -5.5 -28.5 -16.5 -39.5s-24.167 -16.5 -39.5 -16.5s-28.5 5.5 -39.5 16.5s-16.5 24.167 -16.5 39.5s5.5 28.5 16.5 39.5s24.167 16.5 39.5 16.5s28.5 -5.5 39.5 -16.5s16.5 -24.167 16.5 -39.5zM197 598c0 -15.333 -5.5 -28.5 -16.5 -39.5
s-24.167 -16.5 -39.5 -16.5s-28.5 5.5 -39.5 16.5s-16.5 24.167 -16.5 39.5s5.5 28.5 16.5 39.5s24.167 16.5 39.5 16.5s28.5 -5.5 39.5 -16.5s16.5 -24.167 16.5 -39.5zM433 12l-78.999 -24l-11 36c-38 -22.667 -81.667 -34 -131 -34c-44 0 -82.333 13.667 -115 41
c-34.667 28.667 -52 65 -52 109c0 45.333 17 82 51 110c31.333 26.667 70 40 116 40h82c17.333 0 30.666 3.66699 39.999 11v45c0 21.333 -9.16699 38 -27.5 50s-39.5 18 -63.5 18c-56 0 -91.667 -25.333 -107 -76l-76 29c26 85.333 87.667 128 185 128
c45.333 0 84.333 -13 117 -39c36.667 -28 55 -64.667 55 -110v-282zM334.001 112l-0.000976562 105.001c-11.333 -3.33301 -22.666 -5 -33.999 -5h-89c-22 0 -41.333 -6.83301 -58 -20.5s-25 -30.834 -25 -51.501s8.5 -37.5 25.5 -50.5s36.5 -19.5 58.5 -19.5
c49.333 0 90 14 122 42z" />
    <glyph glyph-name="aring" unicode="&#xe5;" horiz-adv-x="488" 
d="M368 649c0 -32 -11.333 -59.5 -34 -82.5s-50 -34.5 -82 -34.5c-32.667 0 -60.334 11.5 -83.001 34.5s-34 50.5 -34 82.5s11.333 59.333 34 82s50.334 34 83.001 34c32 0 59.333 -11.333 82 -34s34 -50 34 -82zM433 12l-78.999 -24l-11 36
c-38 -22.667 -81.667 -34 -131 -34c-44 0 -82.333 13.667 -115 41c-34.667 28.667 -52 65 -52 109c0 45.333 17 82 51 110c31.333 26.667 70 40 116 40h82c17.333 0 30.666 3.66699 39.999 11v45c0 21.333 -9.16699 38 -27.5 50s-39.5 18 -63.5 18
c-56 0 -91.667 -25.333 -107 -76l-76 29c26 85.333 87.667 128 185 128c45.333 0 84.333 -13 117 -39c36.667 -28 55 -64.667 55 -110v-282zM302.001 649c0 14 -5 25.833 -15 35.5s-21.667 14.5 -35 14.5c-14 0 -25.833 -4.83301 -35.5 -14.5s-14.5 -21.5 -14.5 -35.5
s4.83301 -25.833 14.5 -35.5s21.5 -14.5 35.5 -14.5c13.333 0 25 4.83301 35 14.5s15 21.5 15 35.5zM334.001 112l-0.000976562 105.001c-11.333 -3.33301 -22.666 -5 -33.999 -5h-89c-22 0 -41.333 -6.83301 -58 -20.5s-25 -30.834 -25 -51.501s8.5 -37.5 25.5 -50.5
s36.5 -19.5 58.5 -19.5c49.333 0 90 14 122 42z" />
    <glyph glyph-name="ae" unicode="&#xe6;" horiz-adv-x="800" 
d="M755 80c-48.667 -59.333 -112 -89.002 -190 -89.002c-72 0 -128.333 21.333 -169 64c-52 -43.333 -111 -65 -177 -65c-47.333 0 -88.166 14.5 -122.499 43.5s-51.5 64.5 -51.5 106.5c0 42.667 17.167 78.834 51.5 108.501s75.166 44.5 122.499 44.5h82
c16 0 30.333 5.33301 43 16l-3 47c-0.666992 14.667 -8.83398 27.834 -24.501 39.501s-35.5 17.5 -59.5 17.5c-61.333 0 -100.666 -27.333 -117.999 -82l-82 24c14.667 48 42.667 84.333 84 109c34 20.667 72.667 31 116 31c60 0 107 -20.333 141 -61
c38.667 40.667 91 61 157 61c72.667 0 128.334 -28.667 167.001 -86c15.333 -22.667 24.666 -54.667 27.999 -96c2 -16.667 2.66699 -50.667 2 -102h-326c2.66699 -39.333 10.667 -69 24 -89c22 -32.667 60.333 -49 115 -49c50 0 90.667 19 122 57zM665 292.998
c-2.66699 36 -8.00098 59.668 -16.001 71.001c-21.333 32.667 -52.666 49 -93.999 49c-48 0 -83 -16.333 -105 -49c-10 -14.667 -17.333 -38.334 -22 -71.001h237zM352.999 128.999c-7.33301 24 -11.667 52.667 -13 86c-12.667 -2.66699 -25.667 -4 -39 -4h-82
c-24.667 0 -45.5 -7.33301 -62.5 -22s-25.5 -31 -25.5 -49c0 -17.333 8.5 -32.833 25.5 -46.5s37.833 -20.5 62.5 -20.5c50 0 94.667 18.667 134 56z" />
    <glyph glyph-name="ccedilla" unicode="&#xe7;" horiz-adv-x="490" 
d="M445 80c-47.333 -50.667 -94.332 -79.334 -140.999 -86.001l22 -61l-68 -129h-96l91 132l-22 58c-60 8 -106.333 35.667 -139 83c-31.333 44.667 -47 100 -47 166c0 72.667 18.333 132 55 178c40 49.333 95.333 74 166 74c38.667 0 72 -7.66699 100 -23
c23.333 -12.667 49.666 -34.667 78.999 -66l-62 -55c-20.667 22.667 -37.667 38 -51 46c-19.333 12 -41.333 18 -66 18c-88.667 0 -133 -57.333 -133 -172s44.333 -172 133 -172c24.667 0 46.667 6 66 18c13.333 8.66699 30.333 24.334 51 47.001z" />
    <glyph glyph-name="egrave" unicode="&#xe8;" horiz-adv-x="498" 
d="M322 545h-73l-105 146h94zM448 262l-0.999023 -49.999h-319c4 -92.667 49.667 -139 137 -139c49.333 0 89.333 19.333 120 58l58 -57c-44 -54.667 -103.333 -82 -178 -82c-146.667 0 -220 83 -220 249c0 75.333 16 134.666 48 177.999c36 49.333 90.333 74 163 74
c65.333 0 114.666 -22.667 147.999 -68c29.333 -40 44 -94.333 44 -163zM364.001 293.001c-4 80 -39.999 120 -107.999 120c-74.667 0 -116.334 -40 -125.001 -120h233z" />
    <glyph glyph-name="eacute" unicode="&#xe9;" horiz-adv-x="498" 
d="M353 691l-105 -146h-73l84 146h94zM448 262l-0.999023 -49.999h-319c4 -92.667 49.667 -139 137 -139c49.333 0 89.333 19.333 120 58l58 -57c-44 -54.667 -103.333 -82 -178 -82c-146.667 0 -220 83 -220 249c0 75.333 16 134.666 48 177.999
c36 49.333 90.333 74 163 74c65.333 0 114.666 -22.667 147.999 -68c29.333 -40 44 -94.333 44 -163zM364.001 293.001c-4 80 -39.999 120 -107.999 120c-74.667 0 -116.334 -40 -125.001 -120h233z" />
    <glyph glyph-name="ecircumflex" unicode="&#xea;" horiz-adv-x="498" 
d="M424 533h-104l-63 103l-63 -103h-104l115 146h103zM448 262l-0.999023 -49.999h-319c4 -92.667 49.667 -139 137 -139c49.333 0 89.333 19.333 120 58l58 -57c-44 -54.667 -103.333 -82 -178 -82c-146.667 0 -220 83 -220 249c0 75.333 16 134.666 48 177.999
c36 49.333 90.333 74 163 74c65.333 0 114.666 -22.667 147.999 -68c29.333 -40 44 -94.333 44 -163zM364.001 293.001c-4 80 -39.999 120 -107.999 120c-74.667 0 -116.334 -40 -125.001 -120h233z" />
    <glyph glyph-name="edieresis" unicode="&#xeb;" horiz-adv-x="498" 
d="M406 598c0 -15.333 -5.33301 -28.5 -16 -39.5s-23.667 -16.5 -39 -16.5c-16 0 -29.333 5.5 -40 16.5s-16 24.167 -16 39.5s5.33301 28.5 16 39.5s24 16.5 40 16.5c15.333 0 28.333 -5.5 39 -16.5s16 -24.167 16 -39.5zM199 598c0 -15.333 -5.33301 -28.5 -16 -39.5
s-24 -16.5 -40 -16.5c-15.333 0 -28.333 5.5 -39 16.5s-16 24.167 -16 39.5s5.33301 28.5 16 39.5s23.667 16.5 39 16.5c16 0 29.333 -5.5 40 -16.5s16 -24.167 16 -39.5zM448 262l-0.999023 -49.999h-319c4 -92.667 49.667 -139 137 -139c49.333 0 89.333 19.333 120 58
l58 -57c-44 -54.667 -103.333 -82 -178 -82c-146.667 0 -220 83 -220 249c0 75.333 16 134.666 48 177.999c36 49.333 90.333 74 163 74c65.333 0 114.666 -22.667 147.999 -68c29.333 -40 44 -94.333 44 -163zM364.001 293.001c-4 80 -39.999 120 -107.999 120
c-74.667 0 -116.334 -40 -125.001 -120h233z" />
    <glyph glyph-name="igrave" unicode="&#xec;" horiz-adv-x="249" 
d="M184 545h-74l-105 146h95zM167 0h-84v487h84v-487z" />
    <glyph glyph-name="iacute" unicode="&#xed;" horiz-adv-x="246" 
d="M243 691l-105 -146h-73l84 146h94zM160 0h-83v487h83v-487z" />
    <glyph glyph-name="icircumflex" unicode="&#xee;" horiz-adv-x="255" 
d="M293 533h-104l-63 103l-62 -103h-104l115 146h103zM169 0h-83v487h83v-487z" />
    <glyph glyph-name="idieresis" unicode="&#xef;" horiz-adv-x="258" 
d="M278 598c0 -15.333 -5.5 -28.5 -16.5 -39.5s-24.167 -16.5 -39.5 -16.5s-28.5 5.5 -39.5 16.5s-16.5 24.167 -16.5 39.5s5.5 28.5 16.5 39.5s24.167 16.5 39.5 16.5c16 0 29.333 -5.5 40 -16.5s16 -24.167 16 -39.5zM91 598c0 -15.333 -5.5 -28.5 -16.5 -39.5
s-24.167 -16.5 -39.5 -16.5s-28.5 5.5 -39.5 16.5s-16.5 24.167 -16.5 39.5s5.5 28.5 16.5 39.5s24.167 16.5 39.5 16.5s28.5 -5.5 39.5 -16.5s16.5 -24.167 16.5 -39.5zM168 0h-83v487h83v-487z" />
    <glyph glyph-name="eth" unicode="&#xf0;" horiz-adv-x="565" 
d="M492 244c0 -70.667 -11.333 -125.001 -34 -163.001c-36.667 -60 -95 -90 -175 -90c-80.667 0 -139 30 -175 90c-23.333 38 -35 92.333 -35 163s11.667 125.334 35 164.001c36 60 94.333 90 175 90c16 0 31.667 -1.66699 47 -5l-23 53h-122v82h86l-54 122h89l54 -122h90
v-82h-54l44 -92l22 -42c20 -36.667 30 -92.667 30 -168zM407 243.999c0 55.333 -7.33301 95.333 -22 120c-20 32.667 -54.333 49 -103 49c-48 0 -82 -16.333 -102 -49c-14.667 -24.667 -22 -64.667 -22 -120s7.33301 -95.333 22 -120c20 -32.667 54 -49 102 -49
c48.667 0 83 16.333 103 49c14.667 25.333 22 65.333 22 120z" />
    <glyph glyph-name="ntilde" unicode="&#xf1;" horiz-adv-x="521" 
d="M447 595c-37.333 -44.667 -75.333 -67 -114 -67c-24 0 -48.333 8.5 -73 25.5s-43.667 25.5 -57 25.5c-17.333 0 -35.666 -13.667 -54.999 -41l-56 45c34 45.333 71.333 68 112 68c22 0 46.167 -8.5 72.5 -25.5s45.833 -25.5 58.5 -25.5c19.333 0 38.666 14 57.999 42z
M461 0h-81.999v279c0 46 -8 79 -24 99c-18 22 -49 33 -93 33c-32 0 -58.167 -11 -78.5 -33s-30.5 -49 -30.5 -81v-297h-83v487h83v-35c33.333 28.667 69.666 43 108.999 43c132.667 0 199 -70.333 199 -211v-284z" />
    <glyph glyph-name="ograve" unicode="&#xf2;" horiz-adv-x="522" 
d="M315 545h-73l-105 146h94zM462 243c0 -166.667 -69.333 -250 -208 -250c-139.333 0 -209 83 -209 249c0 168 69.667 252 209 252c138.667 0 208 -83.667 208 -251zM379 242c0 54.667 -7.66699 95 -23 121c-19.333 33.333 -53.666 50 -102.999 50
c-48.667 0 -82.667 -16.667 -102 -50c-15.333 -26 -23 -66.333 -23 -121c0 -54 7.66699 -94 23 -120c19.333 -32 53.333 -48 102 -48c49.333 0 83.666 16 102.999 48c15.333 26 23 66 23 120z" />
    <glyph glyph-name="oacute" unicode="&#xf3;" horiz-adv-x="522" 
d="M371 691l-105 -146h-73l84 146h94zM462 243c0 -166.667 -69.333 -250 -208 -250c-139.333 0 -209 83 -209 249c0 168 69.667 252 209 252c138.667 0 208 -83.667 208 -251zM379 242c0 54.667 -7.66699 95 -23 121c-19.333 33.333 -53.666 50 -102.999 50
c-48.667 0 -82.667 -16.667 -102 -50c-15.333 -26 -23 -66.333 -23 -121c0 -54 7.66699 -94 23 -120c19.333 -32 53.333 -48 102 -48c49.333 0 83.666 16 102.999 48c15.333 26 23 66 23 120z" />
    <glyph glyph-name="ocircumflex" unicode="&#xf4;" horiz-adv-x="522" 
d="M420 533h-103l-63 103l-63 -103h-104l115 146h103zM462 243c0 -166.667 -69.333 -250 -208 -250c-139.333 0 -209 83 -209 249c0 168 69.667 252 209 252c138.667 0 208 -83.667 208 -251zM379 242c0 54.667 -7.66699 95 -23 121c-19.333 33.333 -53.666 50 -102.999 50
c-48.667 0 -82.667 -16.667 -102 -50c-15.333 -26 -23 -66.333 -23 -121c0 -54 7.66699 -94 23 -120c19.333 -32 53.333 -48 102 -48c49.333 0 83.666 16 102.999 48c15.333 26 23 66 23 120z" />
    <glyph glyph-name="otilde" unicode="&#xf5;" horiz-adv-x="522" 
d="M442 595c-37.333 -44.667 -75.333 -67 -114 -67c-24 0 -48.333 8.5 -73 25.5s-43.667 25.5 -57 25.5c-17.333 0 -35.666 -13.667 -54.999 -41l-56 45c34 45.333 71.333 68 112 68c22 0 46.167 -8.5 72.5 -25.5s45.833 -25.5 58.5 -25.5c19.333 0 38.666 14 57.999 42z
M462 243c0 -166.667 -69.333 -250 -208 -250c-139.333 0 -209 83 -209 249c0 168 69.667 252 209 252c138.667 0 208 -83.667 208 -251zM379 242c0 54.667 -7.66699 95 -23 121c-19.333 33.333 -53.666 50 -102.999 50c-48.667 0 -82.667 -16.333 -102 -49
c-15.333 -26 -23 -66.667 -23 -122c0 -54 7.66699 -94 23 -120c19.333 -32 53.333 -48 102 -48c49.333 0 83.666 16 102.999 48c15.333 26 23 66 23 120z" />
    <glyph glyph-name="odieresis" unicode="&#xf6;" horiz-adv-x="522" 
d="M412 598c0 -15.333 -5.33301 -28.5 -16 -39.5s-23.667 -16.5 -39 -16.5c-16 0 -29.333 5.5 -40 16.5s-16 24.167 -16 39.5s5.33301 28.5 16 39.5s24 16.5 40 16.5c15.333 0 28.333 -5.5 39 -16.5s16 -24.167 16 -39.5zM205 598c0 -15.333 -5.33301 -28.5 -16 -39.5
s-24 -16.5 -40 -16.5c-15.333 0 -28.333 5.5 -39 16.5s-16 24.167 -16 39.5s5.33301 28.5 16 39.5s23.667 16.5 39 16.5c16 0 29.333 -5.5 40 -16.5s16 -24.167 16 -39.5zM462 243c0 -166.667 -69.333 -250 -208 -250c-139.333 0 -209 83 -209 249c0 168 69.667 252 209 252
c138.667 0 208 -83.667 208 -251zM379 242c0 54.667 -7.66699 95 -23 121c-19.333 33.333 -53.666 50 -102.999 50c-48.667 0 -82.667 -16.667 -102 -50c-15.333 -26 -23 -66.333 -23 -121c0 -54 7.66699 -94 23 -120c19.333 -32 53.333 -48 102 -48
c49.333 0 83.666 16 102.999 48c15.333 26 23 66 23 120z" />
    <glyph glyph-name="divide" unicode="&#xf7;" horiz-adv-x="524" 
d="M313 429c0 -14.667 -5.16699 -27.167 -15.5 -37.5s-22.833 -15.5 -37.5 -15.5s-27.167 5.16699 -37.5 15.5s-15.5 22.833 -15.5 37.5s5.16699 27.334 15.5 38.001s22.833 16 37.5 16s27.167 -5.33301 37.5 -16s15.5 -23.334 15.5 -38.001zM469 238h-414v71h414v-71z
M313 119c0 -15.333 -5.16699 -28.166 -15.5 -38.499s-22.833 -15.5 -37.5 -15.5s-27.167 5.16699 -37.5 15.5s-15.5 23.166 -15.5 38.499c0 14.667 5.16699 27.167 15.5 37.5s22.833 15.5 37.5 15.5s27.167 -5.16699 37.5 -15.5s15.5 -22.833 15.5 -37.5z" />
    <glyph glyph-name="oslash" unicode="&#xf8;" horiz-adv-x="517" 
d="M467 243c0 -166.667 -69.333 -250 -208 -250c-40 0 -74 6.66699 -102 20l-8 -13h-86l36 58c-32.667 42 -49 103.333 -49 184c0 168 69.667 252 209 252c38.667 0 72 -6.66699 100 -20l8 13h86l-36 -58c33.333 -42 50 -104 50 -186zM384 242
c0 46.667 -5.33301 82.668 -16 108.001l-167 -267c16 -6 35 -9 57 -9c49.333 0 84 16.667 104 50c14.667 25.333 22 64.666 22 117.999zM315 404.001c-16 6 -35.001 9 -57.001 9c-49.333 0 -83.666 -17 -102.999 -51c-14.667 -26 -22 -66 -22 -120
c0 -44.667 5 -79.667 15 -105z" />
    <glyph glyph-name="ugrave" unicode="&#xf9;" horiz-adv-x="526" 
d="M324 545h-73l-105 146h94zM451 0l-82 -0.000976562v25c-32.667 -22.667 -69 -34 -109 -34c-133.333 0 -200 71.667 -200 215v281h83v-277c0 -47.333 8 -81.666 24 -102.999c17.333 -23.333 48.333 -35 93 -35c29.333 0 54.833 8.83301 76.5 26.5s32.5 40.5 32.5 68.5v320
h82v-487z" />
    <glyph glyph-name="uacute" unicode="&#xfa;" horiz-adv-x="526" 
d="M355 691l-105 -146h-73l84 146h94zM451 0l-82 -0.000976562v25c-32.667 -22.667 -69 -34 -109 -34c-133.333 0 -200 71.667 -200 215v281h83v-277c0 -47.333 8 -81.666 24 -102.999c17.333 -23.333 48.333 -35 93 -35c29.333 0 54.833 8.83301 76.5 26.5
s32.5 40.5 32.5 68.5v320h82v-487z" />
    <glyph glyph-name="ucircumflex" unicode="&#xfb;" horiz-adv-x="526" 
d="M425 533h-103l-63 103l-63 -103h-104l115 146h103zM451 0l-82 -0.000976562v25c-32.667 -22.667 -69 -34 -109 -34c-133.333 0 -200 71.667 -200 215v281h83v-277c0 -47.333 8 -81.666 24 -102.999c17.333 -23.333 48.333 -35 93 -35c29.333 0 54.833 8.83301 76.5 26.5
s32.5 40.5 32.5 68.5v320h82v-487z" />
    <glyph glyph-name="udieresis" unicode="&#xfc;" horiz-adv-x="526" 
d="M417 598c0 -15.333 -5.5 -28.5 -16.5 -39.5s-24.167 -16.5 -39.5 -16.5s-28.5 5.5 -39.5 16.5s-16.5 24.167 -16.5 39.5s5.5 28.5 16.5 39.5s24.167 16.5 39.5 16.5s28.5 -5.5 39.5 -16.5s16.5 -24.167 16.5 -39.5zM210 598c0 -15.333 -5.5 -28.5 -16.5 -39.5
s-24.167 -16.5 -39.5 -16.5s-28.5 5.5 -39.5 16.5s-16.5 24.167 -16.5 39.5s5.5 28.5 16.5 39.5s24.167 16.5 39.5 16.5s28.5 -5.5 39.5 -16.5s16.5 -24.167 16.5 -39.5zM451 0l-82 -0.000976562v25c-32.667 -22.667 -69 -34 -109 -34c-133.333 0 -200 71.667 -200 215v281
h83v-277c0 -47.333 8 -81.666 24 -102.999c17.333 -23.333 48.333 -35 93 -35c29.333 0 54.833 8.83301 76.5 26.5s32.5 40.5 32.5 68.5v320h82v-487z" />
    <glyph glyph-name="yacute" unicode="&#xfd;" horiz-adv-x="484" 
d="M347 691l-105 -146h-73l84 146h94zM465 487l-223.997 -602c-10.667 -29.333 -25.334 -52.333 -44.001 -69c-26.667 -24.667 -59.334 -36.667 -98.001 -36h-38l1 84c33.333 0 54 1.33301 62 4c15.333 6 27.666 21.333 36.999 46l34 87l-176 486h91l130 -365l134 365h91z
" />
    <glyph glyph-name="thorn" unicode="&#xfe;" horiz-adv-x="554" 
d="M496 247c0 -71.333 -10.667 -126.332 -32 -164.999c-34.667 -60.667 -90.667 -91 -168 -91c-40.667 0 -76.667 9.66699 -108 29v-240h-85v918h85v-225c31.333 19.333 67.333 29 108 29c77.333 0 133.333 -30.333 168 -91c21.333 -38.667 32 -93.334 32 -164.001z
M412 246.001c0 56.667 -7.33301 97.667 -22 123c-18 32 -49.333 48 -94 48c-66 0 -102 -33.333 -108 -100v-142c2 -21.333 6.66699 -38.333 14 -51c18 -32 49.333 -48 94 -48s76 16 94 48c14.667 26 22 66.667 22 122z" />
    <glyph glyph-name="ydieresis" unicode="&#xff;" horiz-adv-x="485" 
d="M404 598c0 -15.333 -5.5 -28.5 -16.5 -39.5s-24.167 -16.5 -39.5 -16.5s-28.5 5.5 -39.5 16.5s-16.5 24.167 -16.5 39.5s5.5 28.5 16.5 39.5s24.167 16.5 39.5 16.5s28.5 -5.5 39.5 -16.5s16.5 -24.167 16.5 -39.5zM197 598c0 -15.333 -5.5 -28.5 -16.5 -39.5
s-24.167 -16.5 -39.5 -16.5s-28.5 5.5 -39.5 16.5s-16.5 24.167 -16.5 39.5s5.5 28.5 16.5 39.5s24.167 16.5 39.5 16.5s28.5 -5.5 39.5 -16.5s16.5 -24.167 16.5 -39.5zM465 487l-223 -602c-11.333 -29.333 -26 -52.333 -44 -69c-27.333 -24.667 -60 -36.667 -98 -36h-38
v84c33.333 0 54 1.33301 62 4c15.333 6 28 21.333 38 46l33 87l-175 486h91l130 -365l133 365h91z" />
    <glyph glyph-name="dotlessi" unicode="&#x131;" horiz-adv-x="277" 
d="M181 0h-85v487h85v-487z" />
    <glyph glyph-name="Lslash" unicode="&#x141;" horiz-adv-x="542" 
d="M499 0h-414l-1 245l-36 -16v90l36 16v363h88v-325l161 71v-91l-161 -70v-197h327v-86z" />
    <glyph glyph-name="lslash" unicode="&#x142;" horiz-adv-x="295" 
d="M247 332l-68.999 -32v-175c0 -17.333 2 -28 6 -32c5.33301 -6 17.666 -9 36.999 -9v-84c-82.667 0 -124 41.667 -124 125v136l-49 -23v90l49 23v347h81v-308l69 33v-91z" />
    <glyph glyph-name="OE" unicode="&#x152;" horiz-adv-x="1016" 
d="M971 -1h-440.999v73c-52 -54 -118 -81 -198 -81c-100.667 0 -177.334 40 -230.001 120c-38 56.667 -57 136 -57 238s19 181.333 57 238c53.333 80 130 120 230 120c80 0 146 -26.667 198 -80v72h441v-87h-352v-206h305v-86h-305v-234h352v-87zM530.001 349
c0 84.667 -14.333 148.334 -43 191.001c-35.333 53.333 -87 80 -155 80s-119.667 -26.667 -155 -80c-28.667 -42.667 -43 -106.334 -43 -191.001s14.333 -148.334 43 -191.001c35.333 -53.333 87 -80 155 -80s119.667 26.667 155 80c28.667 42.667 43 106.334 43 191.001z
" />
    <glyph glyph-name="oe" unicode="&#x153;" horiz-adv-x="849" 
d="M804 80c-48.667 -59.333 -112.334 -89 -191.001 -89c-81.333 0 -142 26 -182 78c-38 -52 -95.333 -78 -172 -78c-82 0 -141.667 29 -179 87c-23.333 37.333 -35 92 -35 164c0 72.667 11.667 127.667 35 165c37.333 58 97 87 179 87c76.667 0 134 -26 172 -78
c38.667 52 96.334 78 173.001 78c72 0 127.333 -28.667 166 -86c15.333 -22.667 25 -54.334 29 -95.001c1.33301 -16 2 -49.333 2 -100h-327c2.66699 -41.333 10.667 -71.666 24 -90.999c22 -32.667 60.333 -49 115 -49c50.667 0 91.667 19 123 57zM714 295
c-2.66699 33.333 -8 56 -16 68c-22 32.667 -53.333 49 -94 49c-48.667 0 -84 -16.333 -106 -49c-10.667 -15.333 -18 -38 -22 -68h238zM387 242c0 57.333 -7.66699 98 -23 122c-20.667 32 -55.667 48 -105 48c-50 0 -85 -16 -105 -48c-15.333 -24 -23 -64.667 -23 -122
c0 -56.667 7.66699 -97 23 -121c20.667 -32 55.667 -48 105 -48s84.333 16 105 48c15.333 24 23 64.333 23 121z" />
    <glyph glyph-name="Scaron" unicode="&#x160;" horiz-adv-x="618" 
d="M469 921l-116 -146h-103l-115 146h104l63 -103l63 103h104zM573 201c0 -37.333 -10.3369 -72.665 -31.0039 -105.998c-43.333 -70.667 -116.666 -106 -219.999 -106c-159.333 0 -251.666 72.333 -276.999 217l87 15c10.667 -63.333 38.334 -105 83.001 -125
c30 -13.333 65.667 -20 107 -20c70 0 118.333 21.333 145 64c12 19.333 18 39.666 18 60.999c0 42 -22.333 73.667 -67 95c-20.667 10 -63.667 22.667 -129 38c-83.333 20 -138.666 42.667 -165.999 68c-33.333 32 -50 71.667 -50 119c0 52.667 21.333 97 64 133
c38.667 32.667 93.667 49 165 49c112 0 190.333 -39.667 235 -119c3.33301 -6 10 -19 20 -39l-80 -37c-20.667 43.333 -42.667 71.666 -66 84.999c-28 15.333 -64.333 23 -109 23c-50 0 -86 -9.16699 -108 -27.5s-33 -40.833 -33 -67.5
c0 -27.333 9.66699 -47.666 29 -60.999s59.333 -27.333 120 -42c71.333 -16.667 120.333 -31.334 147 -44.001c77.333 -37.333 116 -95 116 -173z" />
    <glyph glyph-name="scaron" unicode="&#x161;" horiz-adv-x="466" 
d="M405 679l-115 -146h-103l-115 146h103l63 -103l63 103h104zM426 142c0 -26.667 -7.66699 -51.999 -23 -75.999c-32.667 -50 -86.667 -75 -162 -75c-110 0 -177 47.333 -201 142l83 15c10 -29.333 24.667 -49.666 44 -60.999c16.667 -9.33301 41.334 -14 74.001 -14
c44 0 74 12.333 90 37c7.33301 10.667 11 21.334 11 32.001c0 25.333 -13 44 -39 56c-14 6 -43 14 -87 24c-60 13.333 -100 29.333 -120 48c-26 23.333 -39 52.333 -39 87c0 40.667 16.333 74 49 100c28.667 23.333 69 35 121 35c81.333 0 138.666 -27.667 171.999 -83
c2 -3.33301 4.66699 -8.66602 8 -15.999l-75 -37c-10.667 18.667 -22 31.667 -34 39c-17.333 9.33301 -41 14 -71 14c-32 0 -54.333 -5 -67 -15s-19 -22.333 -19 -37c0 -10.667 4.33301 -19.834 13 -27.501s35.667 -16.834 81 -27.501
c50 -10.667 84.333 -20.334 103 -29.001c58.667 -26.667 88 -70.334 88 -131.001z" />
    <glyph glyph-name="Ydieresis" unicode="&#x178;" horiz-adv-x="599" 
d="M461 831c0 -15.333 -5.5 -28.5 -16.5 -39.5s-24.167 -16.5 -39.5 -16.5s-28.5 5.5 -39.5 16.5s-16.5 24.167 -16.5 39.5s5.5 28.5 16.5 39.5s24.167 16.5 39.5 16.5s28.5 -5.5 39.5 -16.5s16.5 -24.167 16.5 -39.5zM254 831c0 -15.333 -5.5 -28.5 -16.5 -39.5
s-24.167 -16.5 -39.5 -16.5s-28.5 5.5 -39.5 16.5s-16.5 24.167 -16.5 39.5s5.5 28.5 16.5 39.5s24.167 16.5 39.5 16.5s28.5 -5.5 39.5 -16.5s16.5 -24.167 16.5 -39.5zM574 698l-231 -466v-232h-87v234l-231 464h98l177 -356l176 356h98z" />
    <glyph glyph-name="Zcaron" unicode="&#x17d;" horiz-adv-x="591" 
d="M465 921l-115 -146h-103l-115 146h104l63 -103l63 103h103zM536 0h-491v69l375 543h-340v86h456v-73l-373 -539h373v-86z" />
    <glyph glyph-name="zcaron" unicode="&#x17e;" horiz-adv-x="466" 
d="M405 679l-115 -146h-103l-115 146h103l63 -103l63 103h104zM421 0h-381v74l264 331h-241v82h358v-71l-266 -334h266v-82z" />
    <glyph glyph-name="florin" unicode="&#x192;" horiz-adv-x="384" 
d="M359 698v-85c-42 0 -73.167 -8.5 -93.5 -25.5s-34.833 -44.833 -43.5 -83.5c-2.66699 -11.333 -6.66699 -32 -12 -62h71v-85h-86l-97 -560l-83 15l95 545h-56v85h70c8.66699 50 15 82.333 19 97c10 36 24.333 65.667 43 89c38 46.667 95.667 70 173 70z" />
    <glyph glyph-name="circumflex" unicode="&#x2c6;" horiz-adv-x="513" 
d="M423 533h-104l-63 103l-63 -103h-103l115 146h103z" />
    <glyph glyph-name="caron" unicode="&#x2c7;" horiz-adv-x="513" 
d="M423 679l-115 -146h-103l-115 146h103l63 -103l63 103h104z" />
    <glyph glyph-name="breve" unicode="&#x2d8;" horiz-adv-x="533" 
d="M453 703c-17.333 -42 -42.5 -74.667 -75.5 -98s-70.167 -35 -111.5 -35c-40.667 0 -77.5 11.667 -110.5 35s-58.167 56 -75.5 98h75c26 -44.667 63 -67 111 -67c48.667 0 86 22.333 112 67h75z" />
    <glyph glyph-name="dotaccent" unicode="&#x2d9;" horiz-adv-x="543" 
d="M327 585c0 -15.333 -5.33301 -28.333 -16 -39s-24 -16 -40 -16c-15.333 0 -28.333 5.33301 -39 16s-16 23.667 -16 39c0 16 5.33301 29.333 16 40s23.667 16 39 16c16 0 29.333 -5.33301 40 -16s16 -24 16 -40z" />
    <glyph glyph-name="ring" unicode="&#x2da;" horiz-adv-x="529" 
d="M381 649c0 -32 -11.333 -59.5 -34 -82.5s-50 -34.5 -82 -34.5c-32.667 0 -60.334 11.5 -83.001 34.5s-34 50.5 -34 82.5s11.333 59.333 34 82s50.334 34 83.001 34c32 0 59.333 -11.333 82 -34s34 -50 34 -82zM315 649c0 14 -5 25.833 -15 35.5s-21.667 14.5 -35 14.5
c-14 0 -25.833 -4.83301 -35.5 -14.5s-14.5 -21.5 -14.5 -35.5s4.83301 -25.833 14.5 -35.5s21.5 -14.5 35.5 -14.5c13.333 0 25 4.83301 35 14.5s15 21.5 15 35.5z" />
    <glyph glyph-name="ogonek" unicode="&#x2db;" horiz-adv-x="555" 
d="M388 -196h-95l-110 196h76z" />
    <glyph glyph-name="tilde" unicode="&#x2dc;" horiz-adv-x="494" 
d="M426 595c-37.333 -44.667 -75.333 -67 -114 -67c-24 0 -48.333 8.5 -73 25.5s-43.667 25.5 -57 25.5c-17.333 0 -35.666 -13.667 -54.999 -41l-56 45c34 45.333 71.333 68 112 68c22 0 46.167 -8.5 72.5 -25.5s45.833 -25.5 58.5 -25.5c19.333 0 38.666 14 57.999 42z
" />
    <glyph glyph-name="hungarumlaut" unicode="&#x2dd;" horiz-adv-x="481" 
d="M432 716l-109 -146h-61l78 146h92zM300 716l-109 -146h-61l78 146h92z" />
    <glyph glyph-name="Delta" unicode="&#x394;" horiz-adv-x="608" 
d="M593 0h-578l289 729zM468 82l-164 416l-165 -416h329z" />
    <glyph glyph-name="Delta" unicode="&#x2206;" horiz-adv-x="608" 
d="M593 0h-578l289 729zM468 82l-164 416l-165 -416h329z" />
    <glyph glyph-name="Omega" unicode="&#x3a9;" horiz-adv-x="618" 
d="M563 0h-209.002v88c38.667 14 67.667 38 87 72c23.333 42 35 104.667 35 188c0 84 -11.667 147 -35 189c-28 50 -67.333 75 -118 75h-27c-51.333 0 -90.666 -25 -117.999 -75c-23.333 -42 -35 -105 -35 -189c0 -83.333 11.667 -146 35 -188
c18.667 -34 47.334 -58 86.001 -72v-88h-209l15 82h57c-47.333 58 -71 146.667 -71 266c0 98 15.333 174.667 46 230c44 79.333 108.667 119 194 119h27c85.333 0 150 -39.667 194 -119c30 -55.333 45 -132 45 -230c0 -119.333 -23.333 -208 -70 -266h57z" />
    <glyph glyph-name="Omega" unicode="&#x2126;" horiz-adv-x="618" 
d="M563 0h-209.002v88c38.667 14 67.667 38 87 72c23.333 42 35 104.667 35 188c0 84 -11.667 147 -35 189c-28 50 -67.333 75 -118 75h-27c-51.333 0 -90.666 -25 -117.999 -75c-23.333 -42 -35 -105 -35 -189c0 -83.333 11.667 -146 35 -188
c18.667 -34 47.334 -58 86.001 -72v-88h-209l15 82h57c-47.333 58 -71 146.667 -71 266c0 98 15.333 174.667 46 230c44 79.333 108.667 119 194 119h27c85.333 0 150 -39.667 194 -119c30 -55.333 45 -132 45 -230c0 -119.333 -23.333 -208 -70 -266h57z" />
    <glyph glyph-name="pi" unicode="&#x3c0;" horiz-adv-x="550" 
d="M505 0l-36.999 0.000976562c-41.333 0 -72 15 -92 45c-12.667 19.333 -19 45 -19 77v274h-207v-396h-85v478h377v-356c0 -14.667 1.33301 -24.334 4 -29.001c3.33301 -7.33301 10.666 -11 21.999 -11h37v-82z" />
    <glyph glyph-name="endash" unicode="&#x2013;" horiz-adv-x="524" 
d="M469 238h-414v71h414v-71z" />
    <glyph glyph-name="emdash" unicode="&#x2014;" horiz-adv-x="822" 
d="M767 238h-712v71h712v-71z" />
    <glyph glyph-name="quoteleft" unicode="&#x2018;" 
d="M182 752l-7 -176c-0.666992 -14 -6 -25.833 -16 -35.5s-22 -14.5 -36 -14.5c-14.667 0 -27.5 5 -38.5 15s-15.833 21.667 -14.5 35l7 50l81 126h24z" />
    <glyph glyph-name="quoteright" unicode="&#x2019;" 
d="M182 702l-7 -50l-81 -126h-24l7 176c0.666992 14 6 25.833 16 35.5s22 14.5 36 14.5c15.333 0 28.5 -5 39.5 -15s15.5 -21.667 13.5 -35z" />
    <glyph glyph-name="quotesinglbase" unicode="&#x201a;" 
d="M182 50l-7 -50l-81 -126h-24l7 176c0.666992 14 6 25.833 16 35.5s22 14.5 36 14.5c15.333 0 28.5 -5 39.5 -15s15.5 -21.667 13.5 -35z" />
    <glyph glyph-name="quotedblleft" unicode="&#x201c;" horiz-adv-x="416" 
d="M346 752l-7 -176c-0.666992 -14 -6 -25.833 -16 -35.5s-22 -14.5 -36 -14.5c-15.333 0 -28.5 5 -39.5 15s-15.5 21.667 -13.5 35l7 50l81 126h24zM182 752l-7 -176c-0.666992 -14 -6 -25.833 -16 -35.5s-22 -14.5 -36 -14.5c-14.667 0 -27.5 5 -38.5 15
s-15.833 21.667 -14.5 35l7 50l81 126h24z" />
    <glyph glyph-name="quotedblright" unicode="&#x201d;" horiz-adv-x="416" 
d="M346 702l-7 -50l-82 -126h-23l7 176c0.666992 14 6 25.833 16 35.5s22 14.5 36 14.5c14.667 0 27.5 -5 38.5 -15s15.833 -21.667 14.5 -35zM182 702l-7 -50l-81 -126h-24l7 176c0.666992 14 6 25.833 16 35.5s22 14.5 36 14.5c15.333 0 28.5 -5 39.5 -15
s15.5 -21.667 13.5 -35z" />
    <glyph glyph-name="quotedblbase" unicode="&#x201e;" horiz-adv-x="416" 
d="M346 50l-7 -50l-82 -126h-23l7 176c0.666992 14 6 25.833 16 35.5s22 14.5 36 14.5c14.667 0 27.5 -5 38.5 -15s15.833 -21.667 14.5 -35zM182 50l-7 -50l-81 -126h-24l7 176c0.666992 14 6 25.833 16 35.5s22 14.5 36 14.5c15.333 0 28.5 -5 39.5 -15
s15.5 -21.667 13.5 -35z" />
    <glyph glyph-name="dagger" unicode="&#x2020;" horiz-adv-x="499" 
d="M444 408h-156v-408h-77v408h-156v80h156v210h77v-210h156v-80z" />
    <glyph glyph-name="daggerdbl" unicode="&#x2021;" horiz-adv-x="499" 
d="M444 12h-155v-212h-78v212h-156v81h156v313h-156v81h156v211h78v-211h155v-81h-155v-313h155v-81z" />
    <glyph glyph-name="bullet" unicode="&#x2022;" horiz-adv-x="449" 
d="M384 338c0 -44 -15.5 -81.667 -46.5 -113s-68.5 -47 -112.5 -47s-81.667 15.667 -113 47s-47 69 -47 113s15.667 81.667 47 113s69 47 113 47s81.5 -15.667 112.5 -47s46.5 -69 46.5 -113z" />
    <glyph glyph-name="ellipsis" unicode="&#x2026;" horiz-adv-x="724" 
d="M649 52c0 -16.667 -5.83301 -30.834 -17.5 -42.501s-26.167 -17.5 -43.5 -17.5c-16.667 0 -30.834 5.83301 -42.501 17.5s-17.5 25.834 -17.5 42.501c0 17.333 5.83301 31.833 17.5 43.5s25.834 17.5 42.501 17.5c17.333 0 31.833 -5.83301 43.5 -17.5
s17.5 -26.167 17.5 -43.5zM423 52c0 -16.667 -6 -30.834 -18 -42.501s-26.333 -17.5 -43 -17.5s-31 5.83301 -43 17.5s-18 25.834 -18 42.501c0 17.333 6 31.833 18 43.5s26.333 17.5 43 17.5s31 -5.83301 43 -17.5s18 -26.167 18 -43.5zM197 52
c0 -16.667 -6 -30.834 -18 -42.501s-26.333 -17.5 -43 -17.5s-31 5.83301 -43 17.5s-18 25.834 -18 42.501c0 17.333 6 31.833 18 43.5s26.333 17.5 43 17.5s31 -5.83301 43 -17.5s18 -26.167 18 -43.5z" />
    <glyph glyph-name="perthousand" unicode="&#x2030;" horiz-adv-x="997" 
d="M952 186c0 -54.667 -9.66699 -97.334 -29 -128.001c-27.333 -45.333 -67.333 -68 -120 -68c-48.667 0 -87 19.333 -115 58c-27.333 -38.667 -65.333 -58 -114 -58c-52.667 0 -93 22.667 -121 68c-18.667 30.667 -28 73.334 -28 128.001c0 55.333 9.33301 98.333 28 129
c28 45.333 68.333 68 121 68c48.667 0 86.667 -19.667 114 -59c28 39.333 66.333 59 115 59c52.667 0 92.667 -22.667 120 -68c19.333 -31.333 29 -74.333 29 -129zM581 698l-314 -698h-80l314 698h80zM343 511c0 -54.667 -9.33301 -97.667 -28 -129
c-28 -45.333 -68.333 -68 -121 -68s-93 22.667 -121 68c-18.667 31.333 -28 74.333 -28 129s9.33301 97.667 28 129c28 45.333 68.333 68 121 68s93 -22.667 121 -68c18.667 -31.333 28 -74.333 28 -129zM883 186c0 42 -6.66699 73.833 -20 95.5s-33.333 32.5 -60 32.5
s-47.334 -11.333 -62.001 -34c-12 -20.667 -18 -52 -18 -94c0 -41.333 6 -72.333 18 -93c14.667 -23.333 35.334 -35 62.001 -35s47 11.667 61 35c12.667 20.667 19 51.667 19 93zM654 186c0 42 -6.66699 73.833 -20 95.5s-33.333 32.5 -60 32.5
s-47.334 -11.333 -62.001 -34c-12 -20.667 -18 -52 -18 -94c0 -41.333 6 -72.333 18 -93c14.667 -23.333 35.334 -35 62.001 -35s47 11.667 61 35c12.667 20.667 19 51.667 19 93zM274 511c0 42 -6.33398 73 -19.001 93c-14 23.333 -34.333 35 -61 35s-47 -11.667 -61 -35
c-12.667 -20 -19 -51 -19 -93s6.33301 -73 19 -93c14 -23.333 34.333 -35 61 -35s47.334 11.667 62.001 35c12 20 18 51 18 93z" />
    <glyph glyph-name="guilsinglleft" unicode="&#x2039;" horiz-adv-x="324" 
d="M269 396l-144 -138l144 -138v-106l-224 215v58l223 214z" />
    <glyph glyph-name="guilsinglright" unicode="&#x203a;" horiz-adv-x="324" 
d="M279 229l-224 -215v106l144 138l-144 138v105l224 -214v-58z" />
    <glyph glyph-name="fraction" unicode="&#x2044;" horiz-adv-x="193" 
d="M293 698l-316 -698h-77l316 698h77z" />
    <glyph glyph-name="trademark" unicode="&#x2122;" horiz-adv-x="507" 
d="M447 485h-37v115l-49 -115h-36l-48 115v-115h-38v213h37l67 -159l68 159h36v-213zM212 662h-67v-177h-38v177h-67v36h172v-36z" />
    <glyph glyph-name="partialdiff" unicode="&#x2202;" horiz-adv-x="502" 
d="M447 213c0 -59.333 -19.4961 -110.166 -58.4961 -152.499s-86.5 -63.5 -142.5 -63.5s-103.5 21.167 -142.5 63.5s-58.5 93.166 -58.5 152.499c0 60 19.5 111.167 58.5 153.5s86.5 63.5 142.5 63.5c37.333 0 72 -10.333 104 -31c-8.66699 58 -22.334 106 -41.001 144
c-22.667 46.667 -49.334 70 -80.001 70c-30 0 -62.667 -22.667 -98 -68l-68 54c53.333 68 108.666 102 165.999 102c16 0 31.333 -2.66699 46 -8c113.333 -39.333 170.666 -194 171.999 -464v-16zM363.004 213c0 37.333 -11.5 68.666 -34.5 93.999s-50.5 38 -82.5 38
c-31.333 0 -58.5 -12.667 -81.5 -38s-34.5 -56.666 -34.5 -93.999c0 -36.667 11.5 -67.667 34.5 -93s50.167 -38 81.5 -38c32 0 59.5 12.667 82.5 38s34.5 56.333 34.5 93z" />
    <glyph glyph-name="product" unicode="&#x220f;" horiz-adv-x="609" 
d="M534 -197h-85v864h-289v-864h-85v949h459v-949z" />
    <glyph glyph-name="summation" unicode="&#x2211;" horiz-adv-x="531" 
d="M476 -220h-421v68l251 391l-251 391v68h421v-81h-315l242 -378l-242 -377h315v-82z" />
    <glyph glyph-name="radical" unicode="&#x221a;" horiz-adv-x="630" 
d="M618 622h-98l-205 -622h-73l-188 488h85l135 -361l187 571h157v-76z" />
    <glyph glyph-name="infinity" unicode="&#x221e;" horiz-adv-x="781" 
d="M736 261c2 -40 -10.002 -73.001 -36.002 -99.001c-28.667 -29.333 -65.667 -44 -111 -44c-55.333 0 -121.333 30.667 -198 92c-77.333 -61.333 -143.666 -92 -198.999 -92c-37.333 0 -69.666 11.333 -96.999 34c-30.667 25.333 -47.334 60.333 -50.001 105
c-2 42 11.333 76.333 40 103s64.334 40.334 107.001 41.001c55.333 0 121.666 -30.667 198.999 -92c76.667 61.333 142.667 92 198 92c38 -0.666992 70.333 -12 97 -34c30.667 -26 47.334 -61.333 50.001 -106zM657.998 256.999c-2.66699 44.667 -26 67.333 -70 68
c-34 0 -79.333 -22 -136 -66c56.667 -43.333 102 -65 136 -65c24 0 42.667 7 56 21c10 10 14.667 24 14 42zM328.998 258.998c-56.667 44 -102 66 -136 66c-23.333 -0.666992 -42 -7.66699 -56 -21c-10 -10.667 -14.667 -25 -14 -43c2.66699 -44.667 26 -67 70 -67
c34 0 79.333 21.667 136 65z" />
    <glyph glyph-name="integral" unicode="&#x222b;" horiz-adv-x="332" 
d="M297 613l-65.001 0.000976562c-11.333 0 -18.666 -4 -21.999 -12c-2 -5.33301 -3 -15 -3 -29v-642c0 -32.667 -6 -58.667 -18 -78c-19.333 -32 -49.333 -48 -90 -48h-64v85h64c12 0 19.333 4.33301 22 13c2 4.66699 3 14 3 28v642c0 33.333 6 59.666 18 78.999
c20 31.333 50 47 90 47h65v-85z" />
    <glyph glyph-name="approxequal" unicode="&#x2248;" horiz-adv-x="541" 
d="M496 365c-22.667 -22 -41.666 -37 -56.999 -45c-21.333 -11.333 -45 -17 -71 -17c-24.667 0 -58.834 7.66699 -102.501 23s-75.834 23 -96.501 23s-44 -12.333 -70 -37l-54 53c44 41.333 87 62 129 62c24 0 57.833 -7.5 101.5 -22.5s76.834 -22.5 99.501 -22.5
c14.667 0 27 3.33301 37 10c4 2 14 10.333 30 25zM496.001 200c-22.667 -21.333 -41.666 -36.334 -56.999 -45.001c-21.333 -11.333 -45 -17 -71 -17c-24.667 0 -58.834 7.66699 -102.501 23s-75.834 23 -96.501 23s-44 -12 -70 -36l-54 52c44 41.333 87 62 129 62
c24 0 57.833 -7.5 101.5 -22.5s76.834 -22.5 99.501 -22.5c14.667 0 27 3.33301 37 10c4 2.66699 14 11.334 30 26.001z" />
    <glyph glyph-name="approxequal" unicode="&#x22f2;" horiz-adv-x="541" 
d="M496 365c-22.667 -22 -41.666 -37 -56.999 -45c-21.333 -11.333 -45 -17 -71 -17c-24.667 0 -58.834 7.66699 -102.501 23s-75.834 23 -96.501 23s-44 -12.333 -70 -37l-54 53c44 41.333 87 62 129 62c24 0 57.833 -7.5 101.5 -22.5s76.834 -22.5 99.501 -22.5
c14.667 0 27 3.33301 37 10c4 2 14 10.333 30 25zM496.001 200c-22.667 -21.333 -41.666 -36.334 -56.999 -45.001c-21.333 -11.333 -45 -17 -71 -17c-24.667 0 -58.834 7.66699 -102.501 23s-75.834 23 -96.501 23s-44 -12 -70 -36l-54 52c44 41.333 87 62 129 62
c24 0 57.833 -7.5 101.5 -22.5s76.834 -22.5 99.501 -22.5c14.667 0 27 3.33301 37 10c4 2.66699 14 11.334 30 26.001z" />
    <glyph glyph-name="notequal" unicode="&#x2260;" horiz-adv-x="541" 
d="M486 121h-226l-39 -107l-64 23l30 84h-132v79h161l36 100h-197v79h226l39 108l65 -24l-31 -84h132v-79h-161l-36 -100h197v-79z" />
    <glyph glyph-name="lessequal" unicode="&#x2264;" horiz-adv-x="495" 
d="M440 89l-385 176v74l385 176v-90l-269 -123l269 -123v-90zM440 0h-385v83h385v-83z" />
    <glyph glyph-name="greaterequal" unicode="&#x2265;" horiz-adv-x="495" 
d="M440 265l-385 -176v90l270 123l-270 123v90l385 -176v-74zM440 0h-385v83h385v-83z" />
    <glyph glyph-name="lozenge" unicode="&#x25ca;" horiz-adv-x="554" 
d="M499 345l-222 -359l-222 359l222 358zM405 345l-128 206l-128 -206l128 -207z" />
    <glyph glyph-name="fi" unicode="&#xf001;" horiz-adv-x="491" 
d="M426 655c0 -14 -5 -26 -15 -36s-22 -15 -36 -15s-26 5 -36 15s-15 22 -15 36s5 26 15 36s22 15 36 15s26 -5 36 -15s15 -22 15 -36zM416 0h-83v414h-162v-414h-82v414h-44v73h44c0 70 14 122 42 156c31.333 36.667 81.333 55 150 55v-84c-43.333 0 -73 -10.667 -89 -32
c-14 -18 -21 -49.667 -21 -95h245v-487z" />
    <glyph glyph-name="fl" unicode="&#xf002;" horiz-adv-x="518" 
d="M463 0c-80.667 0 -121 41.667 -121 125v489h-61c-44 0 -73.667 -10.667 -89 -32c-14 -18 -21 -49.667 -21 -95h95v-73h-95v-414h-82v414h-44v73h44c0 70 14.333 122 43 156c30.667 36.667 80.334 55 149.001 55h143v-573c0 -18 2.16699 -29.333 6.5 -34
s15.166 -7 32.499 -7v-84z" />
    <glyph glyph-name=".null" horiz-adv-x="0" 
 />
    <glyph glyph-name="nonmarkingreturn" horiz-adv-x="280" 
 />
    </font>
</defs>
</svg>
