<?xml version="1.0" standalone="no"?> <!DOCTYPE svg PUBLIC "-//W3C//DTD SVG 1.0//EN" "http://www.w3.org/TR/2001/REC-SVG-20010904/DTD/svg10.dtd" > <svg xmlns="http://www.w3.org/2000/svg" width="100%" height="100%">
<defs >
<font id="AauxProLight" horiz-adv-x="402" ><font-face
    font-family="Aaux ProLight"
    units-per-em="1000"
    panose-1="0 0 4 0 0 0 0 0 0 0"
    ascent="978"
    descent="-225"
    alphabetic="0" />
<missing-glyph horiz-adv-x="500" d="M63 0V775H438V0H63ZM125 63H375V713H125V63Z" />
<glyph unicode=" " glyph-name="space" horiz-adv-x="270" />
<glyph unicode="!" glyph-name="exclam" horiz-adv-x="280" d="M167 359L157 172H124L113 359V698H167V359ZM180 31Q180 15 168 4T140 -8Q123 -8 112 3T100 31Q100 48 111 59T140 71Q156 71 168 60T180 31Z" />
<glyph unicode="&quot;" glyph-name="quotedbl" horiz-adv-x="340" d="M270 547H204V698Q204 712 213 721T237 731Q250 731 260 722T270 698V547ZM136 547H70V698Q70 712 80 721T103 731Q117 731 126 722T136 698V547Z" />
<glyph unicode="#" glyph-name="numbersign" horiz-adv-x="692" d="M637 486L626 436H501L464 262H589L579 213H453L408 0H359L404 213H230L184 0H135L180 213H55L65 262H191L228 436H103L113 486H238L284 698H333L288 486H462L507 698H556L511 486H637ZM452 436H277L240
262H415L452 436Z" />
<glyph unicode="$" glyph-name="dollar" horiz-adv-x="506" d="M459 227Q459 155 406 110Q359 69 284 61V0H234V62Q157 69 112 105T45 216L95 228Q126 121 234 111V342Q62 376 62 493Q62 560 116 602Q164 641 234 644V698H284V644Q335 641 377 611T441 535L397
515Q354 590 284 594V383Q459 339 459 227ZM234 393V594Q183 594 150 569Q114 542 114 493Q114 421 234 393ZM409 227Q409 293 284 332V110Q409 131 409 227Z" />
<glyph unicode="%" glyph-name="percent" horiz-adv-x="788" d="M728 186Q728 104 698 53Q661 -10 584 -10Q507 -10 470 53Q440 104 440 186Q440 268 470 320Q507 383 584 383Q661 383 698 320Q728 268 728 186ZM571 698L269 0H216L519 698H571ZM348 511Q348 429
318 378Q281 314 204 314Q127 314 90 378Q60 429 60 511Q60 593 90 644Q127 708 204 708Q281 708 318 644Q348 593 348 511ZM683 186Q683 338 584 338Q485 338 485 186Q485 35 584 35Q683 35 683 186ZM303 511Q303 663 204 663Q105 663 105 511Q105 359 204 359Q303
359 303 511Z" />
<glyph unicode="&amp;" glyph-name="ampersand" horiz-adv-x="649" d="M583 44L558 0Q508 38 475 67Q400 -10 267 -10Q175 -10 115 38Q49 90 49 179Q49 255 86 308Q118 353 190 395Q124 492 124 564Q124 626 162 665T262 705Q322 705 357 668T393 570Q393 508
352 460Q324 427 258 384Q357 248 468 143Q511 215 511 317H562Q562 194 506 108Q546 72 583 44ZM343 570Q343 655 262 655Q222 655 198 630T174 564Q174 500 232 421Q285 455 308 481Q343 521 343 570ZM437 104Q321 214 217 356Q155 317 131 285Q100 243 100 179Q100
113 152 74Q199 38 267 38Q372 38 437 104Z" />
<glyph unicode="&apos;" glyph-name="quotesingle" horiz-adv-x="206" d="M136 547H70V698Q70 712 80 721T103 731Q117 731 126 722T136 698V547Z" />
<glyph unicode="(" glyph-name="parenleft" horiz-adv-x="316" d="M266 0H203Q137 65 98 161Q60 254 60 349Q60 444 98 539T203 698H266Q196 643 152 541Q110 443 110 349Q110 255 152 158Q196 55 266 0Z" />
<glyph unicode=")" glyph-name="parenright" horiz-adv-x="316" d="M266 349Q266 254 228 161Q190 65 123 0H60Q130 55 174 158Q216 255 216 349Q216 443 174 541Q130 643 60 698H123Q189 634 227 539T266 349Z" />
<glyph unicode="*" glyph-name="asterisk" horiz-adv-x="423" d="M378 559L246 520L330 411L289 382L211 495L134 382L93 411L177 520L45 559L61 607L190 561L186 698H237L233 561L362 607L378 559Z" />
<glyph unicode="+" glyph-name="plus" horiz-adv-x="491" d="M446 248H271V73H220V248H45V299H220V474H271V299H446V248Z" />
<glyph unicode="," glyph-name="comma" horiz-adv-x="210" d="M145 -12L69 -135H65V32Q65 48 76 59T105 71Q121 71 133 60T145 32V-12Z" />
<glyph unicode="-" glyph-name="hyphen" horiz-adv-x="387" d="M322 248H65V299H322V248Z" />
<glyph unicode="." glyph-name="period" horiz-adv-x="217" d="M152 35Q152 17 139 5T108 -8Q90 -8 78 4T65 35Q65 53 77 65T108 78Q126 78 139 66T152 35Z" />
<glyph unicode="/" glyph-name="slash" horiz-adv-x="403" d="M383 774L74 -76H20L329 774H383Z" />
<glyph unicode="0" glyph-name="zero" horiz-adv-x="557" d="M507 349Q507 207 464 115Q405 -7 279 -7Q152 -7 94 115Q50 207 50 349Q50 492 94 582Q152 703 279 703Q405 703 464 582Q507 492 507 349ZM458 349Q458 471 427 547Q382 656 279 656Q175 656 130 547Q99
471 99 349Q99 227 130 150Q175 40 279 40Q382 40 427 150Q458 227 458 349Z" />
<glyph unicode="1" glyph-name="one" horiz-adv-x="353" d="M223 0H173V630L66 558L40 593L193 698H223V0Z" />
<glyph unicode="2" glyph-name="two" horiz-adv-x="549" d="M489 0H60V49Q122 212 244 310Q303 353 362 395Q420 447 420 523Q420 586 373 624Q329 658 263 658Q152 658 112 564L69 584Q94 642 146 674T263 706Q352 706 409 659Q470 609 470 522Q470 456 441 409Q418
374 368 337Q321 304 275 271Q223 231 179 171Q132 107 114 49H489V0Z" />
<glyph unicode="3" glyph-name="three" horiz-adv-x="509" d="M459 193Q459 102 400 48T249 -7Q94 -7 50 129L97 144Q113 94 154 68T249 41Q317 41 362 83T408 193Q408 268 359 308Q313 344 237 343V386Q307 385 348 417Q393 452 393 521Q393 579 348 619T244
660Q195 660 157 634Q116 608 101 563L55 580Q79 639 130 672T246 706Q329 706 385 655T441 521Q441 406 348 366Q459 325 459 193Z" />
<glyph unicode="4" glyph-name="four" horiz-adv-x="542" d="M492 183H424V0H375V183H45V232L339 698H395L103 232H375V529L424 519V232H492V183Z" />
<glyph unicode="5" glyph-name="five" horiz-adv-x="528" d="M478 232Q478 126 420 61Q359 -7 255 -7Q186 -7 135 27Q80 63 60 126L107 141Q122 93 164 66Q203 41 256 41Q339 41 385 96Q428 147 428 232Q428 315 386 366Q341 421 259 421Q181 421 126 368H80V698H432V651H126V420Q183
468 258 468Q363 468 422 401Q478 338 478 232Z" />
<glyph unicode="6" glyph-name="six" horiz-adv-x="536" d="M486 208Q486 117 424 56T271 -6Q170 -6 108 65Q50 133 50 236Q50 520 296 698L372 699Q145 550 107 342Q177 433 272 433Q369 433 429 366Q486 302 486 208ZM438 208Q438 280 394 331Q347 385 272 385Q202
385 151 333T100 212Q100 143 151 92T272 41Q342 41 390 89T438 208Z" />
<glyph unicode="7" glyph-name="seven" horiz-adv-x="491" d="M451 649Q211 390 221 0H165Q164 219 236 395Q287 518 391 649H89V591H40V698H451V649Z" />
<glyph unicode="8" glyph-name="eight" horiz-adv-x="530" d="M480 193Q480 103 418 48T265 -7Q173 -7 113 47Q50 103 50 193Q50 325 161 366Q69 406 69 521Q69 603 126 655Q182 704 265 704Q348 704 403 655Q461 603 461 521Q461 472 439 431Q415 386 369 366Q480
325 480 193ZM411 521Q411 580 368 618T265 657Q205 657 162 619T119 521Q119 457 161 421Q200 388 265 388Q330 388 370 422T411 521ZM429 193Q429 265 384 303T265 341Q191 341 147 305Q100 265 100 193Q100 125 148 83T265 41Q333 41 381 83T429 193Z" />
<glyph unicode="9" glyph-name="nine" horiz-adv-x="519" d="M469 464Q469 180 219 0H149Q373 153 411 357Q350 278 254 278Q164 278 105 339T45 491Q45 579 106 642T255 705Q354 705 413 633Q469 566 469 464ZM418 491Q418 559 370 608T254 658Q187 658 140 608T93
491Q93 424 140 375T254 325Q323 325 370 373T418 491Z" />
<glyph unicode=":" glyph-name="colon" horiz-adv-x="217" d="M152 338Q152 320 139 308T108 295Q91 295 78 307T65 338Q65 356 78 369T108 382Q126 382 139 369T152 338ZM152 35Q152 17 139 5T108 -8Q91 -8 78 4T65 35Q65 53 78 65T108 78Q126 78 139 66T152 35Z" />
<glyph unicode=";" glyph-name="semicolon" horiz-adv-x="227" d="M157 338Q157 320 144 308T113 295Q95 295 83 307T70 338Q70 356 82 369T113 382Q131 382 144 369T157 338ZM153 -12L78 -135H73V32Q73 48 85 59T113 71Q130 71 141 60T153 32V-12Z" />
<glyph unicode="&lt;" glyph-name="less" horiz-adv-x="447" d="M397 0H335L50 349L335 698H397L112 349L397 0Z" />
<glyph unicode="=" glyph-name="equal" horiz-adv-x="511" d="M456 325H55V374H456V325ZM456 126H55V176H456V126Z" />
<glyph unicode="&gt;" glyph-name="greater" horiz-adv-x="447" d="M397 349L112 0H50L335 349L50 698H112L397 349Z" />
<glyph unicode="?" glyph-name="question" horiz-adv-x="468" d="M428 523Q428 454 384 416Q342 388 300 361Q254 324 251 257L247 174H214Q207 231 207 257Q207 338 251 382Q292 410 333 438Q377 470 377 523Q377 585 336 620T231 656Q170 656 126 622Q79 586
79 527H31Q31 607 92 658Q149 706 231 706Q314 706 371 656T428 523ZM271 31Q271 16 259 4T232 -8Q216 -8 204 4T192 31Q192 47 204 59T232 71Q247 71 259 59T271 31Z" />
<glyph unicode="@" glyph-name="at" horiz-adv-x="700" d="M635 416Q635 389 626 344Q616 294 615 273L598 -2L548 1L554 113Q479 -12 374 -12Q304 -12 265 48Q231 100 231 173Q231 277 295 376Q366 486 465 486Q545 486 585 407Q586 501 550 567Q505 650 417
650Q290 650 195 501Q111 368 111 234Q111 173 137 113Q166 49 209 22L182 -21Q123 17 90 90Q60 157 60 233Q60 390 159 537Q269 700 419 700Q524 700 584 607Q635 528 635 416ZM557 300Q557 351 537 389Q512 435 465 435Q389 435 332 340Q282 256 282 174Q282
122 302 85Q326 38 373 38Q450 38 507 134Q557 218 557 300Z" />
<glyph unicode="A" glyph-name="A" horiz-adv-x="617" d="M607 0H553L471 213H146L64 0H10L277 698H340L607 0ZM453 261L308 640L164 261H453Z" />
<glyph unicode="B" glyph-name="B" horiz-adv-x="606" d="M561 191Q561 0 327 0H75V698H309Q534 698 534 515Q534 466 512 424Q488 379 446 361Q500 345 532 296Q561 249 561 191ZM484 515Q484 649 309 649H126V379H316Q484 379 484 515ZM511 191Q511 334 327
334H126V50H327Q511 50 511 191Z" />
<glyph unicode="C" glyph-name="C" horiz-adv-x="573" d="M528 101Q482 44 437 19Q386 -9 318 -9Q174 -9 103 103Q45 196 45 349Q45 502 104 595Q174 707 318 707Q386 707 437 679Q482 654 528 597L490 565Q450 613 415 633Q375 656 318 656Q96 656 96 349Q96
42 318 42Q375 42 415 65Q450 86 490 133L528 101Z" />
<glyph unicode="D" glyph-name="D" horiz-adv-x="624" d="M564 349Q564 241 556 188Q539 75 463 33Q403 0 279 0H75V698H278Q403 698 463 666Q539 624 556 511Q564 457 564 349ZM513 349Q513 474 505 516Q492 586 445 615Q393 648 278 648H126V51H278Q393 51 445
83Q492 113 505 182Q513 224 513 349Z" />
<glyph unicode="E" glyph-name="E" horiz-adv-x="559" d="M509 0H75V698H509V648H126V386H461V338H126V50H509V0Z" />
<glyph unicode="F" glyph-name="F" horiz-adv-x="539" d="M499 648H126V386H461V339H126V0H75V698H499V648Z" />
<glyph unicode="G" glyph-name="G" horiz-adv-x="618" d="M553 364L552 0H502V105Q452 -9 316 -9Q174 -9 104 104Q45 198 45 349Q45 498 107 594Q180 707 321 707Q389 707 440 679Q485 654 531 597L493 565Q453 613 418 633Q377 656 321 656Q199 656 142 559Q96
480 96 349Q96 220 141 141Q197 42 316 42Q418 42 465 132Q502 201 502 313H322V364H553Z" />
<glyph unicode="H" glyph-name="H" horiz-adv-x="644" d="M569 0H518V338H126V0H75V698H126V386H518V698H569V0Z" />
<glyph unicode="I" glyph-name="I" horiz-adv-x="221" d="M136 0H85V698H136V0Z" />
<glyph unicode="J" glyph-name="J" horiz-adv-x="521" d="M451 210Q451 -7 235 -7Q159 -7 106 28Q49 66 30 137L79 150Q107 44 235 44Q322 44 361 84T401 210V698H451V210Z" />
<glyph unicode="K" glyph-name="K" horiz-adv-x="549" d="M529 0H457L126 349V0H75V698H126V350L437 698H503L193 351L529 0Z" />
<glyph unicode="L" glyph-name="L" horiz-adv-x="493" d="M468 0H75V698H126V47H468V0Z" />
<glyph unicode="M" glyph-name="M" horiz-adv-x="718" d="M643 0H592V562L384 0H333L126 560V0H75V698H126L359 70L592 698H643V0Z" />
<glyph unicode="N" glyph-name="N" horiz-adv-x="620" d="M545 0H491L126 607V0H75V698H129L495 91V698H545V0Z" />
<glyph unicode="O" glyph-name="O" horiz-adv-x="636" d="M591 349Q591 196 533 104Q463 -9 318 -9Q173 -9 103 104Q45 196 45 349Q45 502 103 594Q173 707 318 707Q463 707 533 594Q591 502 591 349ZM541 349Q541 656 318 656Q96 656 96 349Q96 42 318 42Q541
42 541 349Z" />
<glyph unicode="P" glyph-name="P" horiz-adv-x="589" d="M554 507Q554 316 327 316H126V0H75V698H327Q554 698 554 507ZM504 507Q504 587 452 620Q411 647 327 647H126V365H327Q504 365 504 507Z" />
<glyph unicode="Q" glyph-name="Q" horiz-adv-x="631" d="M591 349Q591 173 519 84L588 0H522L483 48Q414 -9 318 -9Q173 -9 103 104Q45 196 45 349Q45 502 103 594Q173 707 318 707Q463 707 533 594Q591 502 591 349ZM541 349Q541 656 318 656Q96 656 96 349Q96
42 318 42Q396 42 450 87Q394 151 318 158V206Q419 198 485 123Q541 198 541 349Z" />
<glyph unicode="R" glyph-name="R" horiz-adv-x="593" d="M543 0H484L338 252Q297 322 247 322H126V0H75V698H309Q409 698 465 655Q527 607 527 510Q527 424 478 377T342 323Q373 292 389 266L543 0ZM477 510Q477 647 309 647H126V371H309Q477 371 477 510Z" />
<glyph unicode="S" glyph-name="S" horiz-adv-x="595" d="M550 193Q550 98 475 42Q408 -9 310 -9Q77 -9 45 175L95 183Q120 40 310 40Q386 40 439 77Q499 119 499 193Q499 284 388 324Q285 353 182 382Q71 427 71 531Q71 617 140 664Q199 705 288 705Q461 705
526 566L480 544Q429 654 288 654Q221 654 176 628Q122 595 122 531Q122 453 233 417Q336 387 439 357Q550 307 550 193Z" />
<glyph unicode="T" glyph-name="T" horiz-adv-x="534" d="M514 648H292V0H242V648H20V698H514V648Z" />
<glyph unicode="U" glyph-name="U" horiz-adv-x="634" d="M564 301Q564 -9 317 -9Q70 -9 70 301V698H121V301Q121 181 158 120Q205 42 317 42Q429 42 476 120Q513 182 513 301V698H564V301Z" />
<glyph unicode="V" glyph-name="V" horiz-adv-x="552" d="M537 698L303 0H249L15 698H68L276 83L484 698H537Z" />
<glyph unicode="W" glyph-name="W" horiz-adv-x="765" d="M735 698L571 0H520L382 587L245 0H193L30 698H82L219 111L356 698H408L545 111L683 698H735Z" />
<glyph unicode="X" glyph-name="X" horiz-adv-x="567" d="M542 0H482L284 313L85 0H25L254 360L39 698H99L284 407L468 698H528L314 360L542 0Z" />
<glyph unicode="Y" glyph-name="Y" horiz-adv-x="555" d="M530 698L303 230V0H252V232L25 698H81L278 295L474 698H530Z" />
<glyph unicode="Z" glyph-name="Z" horiz-adv-x="571" d="M516 0H45V47L455 648H81V698H516V648L109 51H516V0Z" />
<glyph unicode="[" glyph-name="bracketleft" horiz-adv-x="269" d="M219 -61H70V759H219V718H121V-20H219V-61Z" />
<glyph unicode="\" glyph-name="backslash" horiz-adv-x="403" d="M383 -76H329L20 774H74L383 -76Z" />
<glyph unicode="]" glyph-name="bracketright" horiz-adv-x="269" d="M219 -61H70V-20H169V718H70V759H219V-61Z" />
<glyph unicode="^" glyph-name="asciicircum" horiz-adv-x="513" d="M458 403L416 378L257 650L97 378L55 403L228 698H285L458 403Z" />
<glyph unicode="_" glyph-name="underscore" horiz-adv-x="529" d="M504 -49H25V0H504V-49Z" />
<glyph unicode="`" glyph-name="grave" horiz-adv-x="302" d="M227 545H170L75 691H142L227 545Z" />
<glyph unicode="a" glyph-name="a" horiz-adv-x="466" d="M421 5L377 -8L358 40Q294 -10 214 -10Q141 -10 95 26Q45 65 45 135Q45 201 94 240Q139 275 206 275H276Q334 275 356 299V345Q356 385 319 412Q285 436 244 436Q138 436 114 357L68 371Q109 484 246 484Q307
484 354 447Q404 407 404 348V51L421 5ZM356 101V244Q328 229 288 229H206Q159 229 128 206Q94 181 94 135Q94 88 131 61Q164 38 214 38Q295 38 356 101Z" />
<glyph unicode="b" glyph-name="b" horiz-adv-x="488" d="M443 237Q443 -9 253 -9Q157 -9 118 47V0H70V698H118V426Q164 484 253 484Q443 484 443 237ZM395 237Q395 328 370 374Q336 436 253 436Q196 436 157 402T118 312V162Q118 107 157 73T253 39Q336 39 370
101Q395 147 395 237Z" />
<glyph unicode="c" glyph-name="c" horiz-adv-x="462" d="M417 66Q380 25 345 9T258 -8Q153 -8 96 65Q45 131 45 239Q45 347 96 414Q153 487 258 487Q310 487 345 470T417 413L382 381Q328 442 258 442Q172 442 131 380Q96 328 96 239Q96 150 131 98Q172 37 258
37Q328 37 382 98L417 66Z" />
<glyph unicode="d" glyph-name="d" horiz-adv-x="492" d="M432 7L386 -7L371 44Q320 -9 237 -9Q45 -9 45 237Q45 484 239 484Q319 484 371 431V698H419V47Q419 47 432 7ZM371 162V312Q371 368 333 402T239 436Q155 436 120 375Q94 328 94 237Q94 39 237 39Q294
39 332 72T371 162Z" />
<glyph unicode="e" glyph-name="e" horiz-adv-x="477" d="M432 266V226H95Q98 39 259 39Q341 39 382 92L420 62Q365 -9 259 -9Q45 -9 45 237Q45 484 249 484Q342 484 390 419Q432 362 432 266ZM383 274Q380 436 249 436Q106 436 96 274H383Z" />
<glyph unicode="f" glyph-name="f" horiz-adv-x="286" d="M266 698V650Q197 650 168 605Q146 571 146 499V478H250V430H146V0H100V430H50V478H100V499Q100 588 127 630Q171 698 266 698Z" />
<glyph unicode="g" glyph-name="g" horiz-adv-x="488" d="M453 -13Q453 -91 380 -142Q315 -188 235 -188Q164 -188 110 -159Q45 -123 45 -58Q45 -38 52 -16L98 -31Q93 -46 93 -58Q93 -100 146 -124Q187 -143 235 -143Q295 -143 346 -110Q405 -72 405 -14Q405 15
381 32Q361 47 331 47Q303 47 249 35T166 22Q85 22 85 88Q85 141 143 185Q69 223 69 327Q69 487 237 487Q319 487 359 450Q398 461 398 501H446Q446 432 387 412Q405 375 405 327Q405 168 237 168Q209 168 181 172Q130 141 130 94Q130 66 164 66Q192 66 247 80T331
94Q382 94 417 65T453 -13ZM357 327Q357 441 237 441Q117 441 117 327Q117 211 237 211Q357 211 357 327Z" />
<glyph unicode="h" glyph-name="h" horiz-adv-x="503" d="M443 0H395V268Q395 350 366 390Q331 436 253 436Q202 436 162 406Q118 373 118 324V0H70V698H118V425Q166 484 253 484Q443 484 443 268V0Z" />
<glyph unicode="i" glyph-name="i" horiz-adv-x="202" d="M137 662Q137 647 127 637T101 626Q86 626 76 636T65 662Q65 677 75 687T101 698Q116 698 126 688T137 662ZM125 0H77V478H125V0Z" />
<glyph unicode="j" glyph-name="j" horiz-adv-x="230" d="M160 662Q160 647 150 637T124 626Q109 626 99 636T88 662Q88 677 98 687T124 698Q139 698 149 688T160 662ZM148 -21Q148 -220 -20 -220V-172Q100 -172 100 -21V478H148V-21Z" />
<glyph unicode="k" glyph-name="k" horiz-adv-x="439" d="M429 0H362L118 256V0H70V698H118V259L322 478H385L181 259L429 0Z" />
<glyph unicode="l" glyph-name="l" horiz-adv-x="201" d="M166 0Q70 0 70 112V698H118V112Q118 48 166 48V0Z" />
<glyph unicode="m" glyph-name="m" horiz-adv-x="770" d="M710 0H662V268Q662 436 535 436Q412 436 412 268V0H364V268Q364 436 237 436Q192 436 155 406T118 332V0H70V478H118V427Q161 484 240 484Q346 484 391 397Q437 484 535 484Q710 484 710 268V0Z" />
<glyph unicode="n" glyph-name="n" horiz-adv-x="503" d="M443 0H395V268Q395 350 366 390Q331 436 253 436Q195 436 157 402T118 318V0H70V478H118V426Q167 484 253 484Q443 484 443 268V0Z" />
<glyph unicode="o" glyph-name="o" horiz-adv-x="489" d="M444 237Q444 -9 245 -9Q45 -9 45 237Q45 484 245 484Q444 484 444 237ZM396 237Q396 330 367 377Q331 436 245 436Q158 436 122 377Q94 330 94 237Q94 145 122 98Q158 39 244 39Q331 39 367 98Q396 145 396 237Z" />
<glyph unicode="p" glyph-name="p" horiz-adv-x="488" d="M443 241Q443 -6 253 -6Q164 -6 118 50V-220H70V478H118V427Q166 488 253 488Q443 488 443 241ZM395 241Q395 331 370 378Q336 440 253 440Q197 440 158 406T118 316V166Q118 111 157 77T253 43Q336 43
370 104Q395 151 395 241Z" />
<glyph unicode="q" glyph-name="q" horiz-adv-x="491" d="M431 471L418 431V-220H370V49Q320 -6 236 -6Q45 -6 45 241Q45 488 236 488Q316 488 370 433L385 486L431 471ZM370 166V316Q370 371 331 405T236 440Q93 440 93 241Q93 43 236 43Q292 43 331 77T370 166Z" />
<glyph unicode="r" glyph-name="r" horiz-adv-x="374" d="M344 466L320 421Q284 436 253 436Q200 436 159 402T118 318V0H70V478H118V422Q164 484 253 484Q303 484 344 466Z" />
<glyph unicode="s" glyph-name="s" horiz-adv-x="447" d="M407 134Q407 67 351 27Q302 -9 232 -9Q158 -9 109 22Q52 57 40 126L87 134Q105 39 232 39Q282 39 317 61Q359 87 359 134Q359 192 281 217Q208 237 136 257Q58 289 58 362Q58 424 109 457Q152 485 217
485Q342 485 389 389L346 368Q312 437 217 437Q106 437 106 362Q106 314 184 291Q257 271 329 250Q407 214 407 134Z" />
<glyph unicode="t" glyph-name="t" horiz-adv-x="271" d="M226 440H147V112Q147 71 162 59Q174 48 213 48V0H195Q99 0 99 112V440H30V478H99V626H147V478H226V440Z" />
<glyph unicode="u" glyph-name="u" horiz-adv-x="498" d="M433 0H385V47Q333 -6 251 -6Q60 -6 60 210V478H108V210Q108 127 137 87Q171 41 251 41Q298 41 339 71Q385 104 385 150V478H433V0Z" />
<glyph unicode="v" glyph-name="v" horiz-adv-x="448" d="M428 478L249 0H198L20 478H71L224 69L377 478H428Z" />
<glyph unicode="w" glyph-name="w" horiz-adv-x="731" d="M711 478L560 0H509L364 405L220 0H169L20 478H70L196 76L339 478H389L533 76L660 478H711Z" />
<glyph unicode="x" glyph-name="x" horiz-adv-x="436" d="M416 0H357L218 204L78 0H20L189 247L28 478H88L218 289L347 478H406L247 247L416 0Z" />
<glyph unicode="y" glyph-name="y" horiz-adv-x="448" d="M428 478L204 -122Q167 -221 74 -220H55V-172H75Q134 -172 159 -105L198 0L20 478H71L224 69L376 478H428Z" />
<glyph unicode="z" glyph-name="z" horiz-adv-x="446" d="M401 0H40V52L340 430H64V478H401V429L98 48H401V0Z" />
<glyph unicode="{" glyph-name="braceleft" horiz-adv-x="334" d="M284 -61Q129 -61 129 106Q129 126 136 164T144 222Q144 330 50 330V369Q144 368 144 477Q144 495 137 531T129 586Q129 673 162 714Q198 759 284 759V718Q220 718 196 677Q177 647 177 578Q177
561 185 528T193 478Q193 370 114 349Q155 340 176 300Q193 266 193 221Q193 203 185 169T177 117Q177 -20 284 -20V-61Z" />
<glyph unicode="|" glyph-name="bar" horiz-adv-x="241" d="M146 -76H95V774H146V-76Z" />
<glyph unicode="}" glyph-name="braceright" horiz-adv-x="334" d="M284 330Q190 330 190 222Q190 202 197 164T205 106Q205 -61 50 -61V-20Q157 -20 157 117Q157 135 149 169T140 221Q140 266 158 300Q179 340 219 349Q141 370 141 478Q141 495 148 528T156 578Q156
647 138 677Q114 718 50 718V759Q135 759 172 714Q204 673 204 586Q204 568 197 532T190 477Q190 368 284 369V330Z" />
<glyph unicode="~" glyph-name="asciitilde" horiz-adv-x="465" d="M415 295Q362 239 312 239Q279 239 229 271T149 303Q111 303 84 264L50 294Q97 350 151 350Q185 350 235 318T314 286Q349 286 382 326L415 295Z" />
</font>
</defs>
</svg>
