<?xml version="1.0" encoding="utf-8"?>
<!-- Generator: Adobe Illustrator 18.1.0, SVG Export Plug-In . SVG Version: 6.00 Build 0)  -->
<!DOCTYPE svg PUBLIC "-//W3C//DTD SVG 1.1//EN" "http://www.w3.org/Graphics/SVG/1.1/DTD/svg11.dtd">
<svg version="1.1" id="Layer_1" xmlns="http://www.w3.org/2000/svg" xmlns:xlink="http://www.w3.org/1999/xlink" x="0px" y="0px"
	 viewBox="0 0 73 146" enable-background="new 0 0 73 146" xml:space="preserve">
<g>
	<path fill="#0085B6" d="M37.1,72.7c19.7-0.4,35.6-16.5,35.6-36.3C72.7,16.3,56.4,0,36.3,0S0,16.3,0,36.3
		c0,19.8,15.9,35.9,35.6,36.3H37.1z M38.3,68.6v-3c0-1.1-0.9-2-2-2s-2,0.9-2,2v3c-16.2-1-29.2-13.9-30.3-30.1h3.2c1.1,0,2-0.9,2-2
		s-0.9-2-2-2H4.1C5,18.2,18,5.1,34.3,4.1v3.4c0,1.1,0.9,2,2,2s2-0.9,2-2V4.1c16.3,1,29.4,14.1,30.3,30.5h-3.2c-1.1,0-2,0.9-2,2
		s0.9,2,2,2h3.2C67.5,54.7,54.5,67.6,38.3,68.6z"/>
	<path fill="#0085B6" d="M52.8,34.3H38.3V17.3c0-1.1-0.9-2-2-2s-2,0.9-2,2v19.1c0,1.1,0.9,2,2,2h16.5c1.1,0,2-0.9,2-2
		S53.9,34.3,52.8,34.3z"/>
</g>
<g>
	<path fill="#EF0072" d="M37.1,145.7c19.7-0.4,35.6-16.5,35.6-36.3c0-20-16.3-36.3-36.3-36.3S0,89.3,0,109.3
		c0,19.8,15.9,35.9,35.6,36.3H37.1z M38.3,141.6v-3c0-1.1-0.9-2-2-2s-2,0.9-2,2v3c-16.2-1-29.2-13.9-30.3-30.1h3.2c1.1,0,2-0.9,2-2
		s-0.9-2-2-2H4.1C5,91.2,18,78.1,34.3,77.1v3.4c0,1.1,0.9,2,2,2s2-0.9,2-2v-3.4c16.3,1,29.4,14.1,30.3,30.5h-3.2c-1.1,0-2,0.9-2,2
		s0.9,2,2,2h3.2C67.5,127.7,54.5,140.6,38.3,141.6z"/>
	<path fill="#EF0072" d="M52.8,107.3H38.3V90.3c0-1.1-0.9-2-2-2s-2,0.9-2,2v19.1c0,1.1,0.9,2,2,2h16.5c1.1,0,2-0.9,2-2
		S53.9,107.3,52.8,107.3z"/>
</g>
</svg>
