<?xml version="1.0" standalone="no"?> <!DOCTYPE svg PUBLIC "-//W3C//DTD SVG 1.0//EN" "http://www.w3.org/TR/2001/REC-SVG-20010904/DTD/svg10.dtd" > <svg xmlns="http://www.w3.org/2000/svg" width="100%" height="100%">
<defs >
<font id="AauxProBold" horiz-adv-x="434" ><font-face
    font-family="Aaux ProBold"
    units-per-em="1000"
    panose-1="0 0 4 0 0 0 0 0 0 0"
    ascent="988"
    descent="-233"
    alphabetic="0" />
<missing-glyph horiz-adv-x="500" d="M63 0V775H438V0H63ZM125 63H375V713H125V63Z" />
<glyph unicode=" " glyph-name="space" horiz-adv-x="300" />
<glyph unicode="!" glyph-name="exclam" horiz-adv-x="310" d="M217 698V366L212 176H118L113 366V698H217ZM230 57Q230 30 211 11T165 -8Q138 -8 119 11T100 57Q100 84 119 103T165 122Q192 122 211 103T230 57Z" />
<glyph unicode="&quot;" glyph-name="quotedbl" horiz-adv-x="395" d="M330 550H229V698Q229 719 243 734T280 749Q301 749 315 734T330 698V550ZM166 550H65V698Q65 719 80 734T116 749Q137 749 151 734T166 698V550Z" />
<glyph unicode="#" glyph-name="numbersign" horiz-adv-x="730" d="M675 502L653 404H534L510 295H629L608 197H489L446 0H344L387 197H276L233 0H131L174 197H55L76 295H196L220 404H100L122 502H241L284 698H386L343 502H454L497 698H598L555 502H675ZM432 404H321L297
295H408L432 404Z" />
<glyph unicode="$" glyph-name="dollar" horiz-adv-x="528" d="M490 231Q490 157 438 108Q391 64 319 52V0H224V53Q95 73 53 185L145 220Q167 163 224 149V328Q151 345 116 372Q63 412 63 484Q63 552 114 595Q157 631 224 640V698H319V639Q412 623 464 533L380
487Q355 530 319 541V401Q398 381 436 351Q490 309 490 231ZM224 424V544Q159 534 159 484Q159 444 224 424ZM394 231Q394 283 319 305V149Q394 168 394 231Z" />
<glyph unicode="%" glyph-name="percent" horiz-adv-x="818" d="M763 186Q763 106 734 59Q691 -10 609 -10Q527 -10 484 59Q455 106 455 186Q455 267 484 314Q527 383 609 383Q691 383 734 314Q763 267 763 186ZM617 698L297 0H201L521 698H617ZM363 511Q363 430
334 384Q291 314 209 314Q127 314 84 384Q55 430 55 511Q55 592 84 638Q127 708 209 708Q291 708 334 638Q363 592 363 511ZM676 186Q676 243 659 270T609 298Q575 298 558 271T541 186Q541 129 558 103Q575 74 609 74Q642 74 660 103Q676 129 676 186ZM277 511Q277
568 260 595T209 623Q176 623 159 596T142 511Q142 454 159 427T209 399Q242 399 259 426T277 511Z" />
<glyph unicode="&amp;" glyph-name="ampersand" horiz-adv-x="707" d="M595 84L538 0Q517 15 469 53Q390 -10 269 -10Q171 -10 104 42Q31 99 31 194Q31 319 157 400Q105 480 105 548Q105 616 150 660T264 705Q332 705 374 663T417 553Q417 451 300 375Q376 276
457 197Q487 253 487 344H585Q585 216 532 132Q551 117 595 84ZM314 553Q314 605 264 605Q208 605 208 548Q208 506 243 452Q314 500 314 553ZM391 123Q298 211 215 320Q133 267 133 194Q133 144 178 114Q217 88 269 88Q339 88 391 123Z" />
<glyph unicode="&apos;" glyph-name="quotesingle" horiz-adv-x="231" d="M166 550H65V698Q65 719 80 734T116 749Q137 749 151 734T166 698V550Z" />
<glyph unicode="(" glyph-name="parenleft" horiz-adv-x="343" d="M319 0H188Q118 68 79 162Q41 253 41 349Q41 444 80 537T188 698H319Q232 627 186 532Q144 443 144 349Q144 151 319 0Z" />
<glyph unicode=")" glyph-name="parenright" horiz-adv-x="343" d="M319 349Q319 253 281 162Q242 68 171 0H41Q216 151 216 349Q216 443 173 532Q128 627 41 698H171Q241 631 280 538T319 349Z" />
<glyph unicode="*" glyph-name="asterisk" horiz-adv-x="467" d="M422 547L298 511L377 408L307 357L234 464L160 357L90 408L170 511L45 547L72 630L194 586L190 716H277L273 586L396 630L422 547Z" />
<glyph unicode="+" glyph-name="plus" horiz-adv-x="526" d="M481 231H306V56H220V231H45V316H220V492H306V316H481V231Z" />
<glyph unicode="," glyph-name="comma" horiz-adv-x="250" d="M185 0L100 -131H65V70Q65 95 82 111T125 128Q149 128 167 112T185 70V0Z" />
<glyph unicode="-" glyph-name="hyphen" horiz-adv-x="417" d="M352 233H65V314H352V233Z" />
<glyph unicode="." glyph-name="period" horiz-adv-x="267" d="M202 60Q202 32 182 12T133 -8Q105 -8 85 12T65 60Q65 88 85 108T133 128Q162 128 182 108T202 60Z" />
<glyph unicode="/" glyph-name="slash" horiz-adv-x="438" d="M433 774L107 -76H5L331 774H433Z" />
<glyph unicode="0" glyph-name="zero" horiz-adv-x="593" d="M543 349Q543 206 495 114Q432 -7 297 -7Q162 -7 98 114Q50 206 50 349Q50 492 98 584Q162 703 297 703Q432 703 495 584Q543 492 543 349ZM442 349Q442 606 297 606Q152 606 152 349Q152 90 297 90Q442
90 442 349Z" />
<glyph unicode="1" glyph-name="one" horiz-adv-x="413" d="M283 0H178V559L81 495L30 576L221 698H283V0Z" />
<glyph unicode="2" glyph-name="two" horiz-adv-x="565" d="M515 0H50V81Q113 242 237 334Q288 368 338 402Q395 447 395 502Q395 551 357 581Q322 608 271 608Q182 608 141 512L51 553Q117 706 271 706Q366 706 430 652Q497 595 497 501Q497 434 468 389Q445
356 394 321Q347 289 300 256Q214 191 169 99H515V0Z" />
<glyph unicode="3" glyph-name="three" horiz-adv-x="550" d="M500 205Q500 109 435 51T270 -7Q97 -7 40 164L139 195Q173 93 271 93Q326 93 360 124T395 205Q395 323 231 322V404Q380 404 380 507Q380 548 346 577T266 607Q181 607 147 512L51 550Q115 706 266
706Q358 706 421 651T484 507Q484 413 417 367Q500 315 500 205Z" />
<glyph unicode="4" glyph-name="four" horiz-adv-x="563" d="M528 169H463V0H361V169H30V246L326 698H440L157 265H361V484L463 469V265H528V169Z" />
<glyph unicode="5" glyph-name="five" horiz-adv-x="547" d="M507 240Q507 130 442 63Q377 -7 267 -7Q97 -7 45 155L140 191Q173 91 268 91Q334 91 369 131T405 240Q405 308 371 347T270 387Q207 387 154 337H72V698H464V600H170V456Q223 484 269 484Q380 484
443 417T507 240Z" />
<glyph unicode="6" glyph-name="six" horiz-adv-x="555" d="M515 218Q515 120 450 57T286 -6Q181 -6 116 62T50 235Q50 525 301 698H437Q249 566 183 420Q230 453 297 453Q397 453 456 386T515 218ZM414 218Q414 276 379 315T287 355Q223 355 188 320T152 222Q152
169 192 130T287 91Q341 91 377 127T414 218Z" />
<glyph unicode="7" glyph-name="seven" horiz-adv-x="507" d="M477 616Q374 506 322 378Q257 215 263 0H158Q156 205 213 365Q256 486 341 600H128V553H30V698H477V616Z" />
<glyph unicode="8" glyph-name="eight" horiz-adv-x="546" d="M506 207Q506 110 439 52T273 -7Q174 -7 109 50Q40 110 40 207Q40 315 127 367Q58 416 58 506Q58 593 123 649Q185 704 273 704Q361 704 423 650Q488 593 488 506Q488 412 424 367Q506 319 506 207ZM385
506Q385 550 352 578T273 607Q228 607 194 579T160 506Q160 457 193 431Q223 407 273 407Q323 407 354 432T385 506ZM403 207Q403 263 367 295T273 327Q215 327 180 296Q142 264 142 207Q142 155 181 123T273 91Q326 91 364 123T403 207Z" />
<glyph unicode="9" glyph-name="nine" horiz-adv-x="542" d="M497 450Q497 175 252 0H112Q209 71 262 126Q330 198 368 284Q317 255 266 255Q170 255 105 320T40 480Q40 574 105 639T264 705Q371 705 436 630Q497 559 497 450ZM393 480Q393 534 355 571T263 608Q211
608 176 570T140 480Q140 428 175 391T263 353Q317 353 355 389T393 480Z" />
<glyph unicode=":" glyph-name="colon" horiz-adv-x="267" d="M202 348Q202 320 182 300T133 280Q105 280 85 300T65 348Q65 376 85 396T133 417Q162 417 182 397T202 348ZM202 60Q202 32 182 12T133 -8Q105 -8 85 12T65 60Q65 88 85 108T133 128Q162 128 182
108T202 60Z" />
<glyph unicode=";" glyph-name="semicolon" horiz-adv-x="267" d="M202 348Q202 320 182 300T133 280Q105 280 85 300T65 348Q65 376 85 396T133 417Q162 417 182 397T202 348ZM193 0L108 -131H73V70Q73 95 90 111T133 128Q157 128 175 112T193 70V0Z" />
<glyph unicode="&lt;" glyph-name="less" horiz-adv-x="510" d="M460 0H327L50 349L327 698H460L183 349L460 0Z" />
<glyph unicode="=" glyph-name="equal" horiz-adv-x="536" d="M481 307H55V391H481V307ZM481 109H55V193H481V109Z" />
<glyph unicode="&gt;" glyph-name="greater" horiz-adv-x="510" d="M460 349L183 0H50L327 349L50 698H183L460 349Z" />
<glyph unicode="?" glyph-name="question" horiz-adv-x="503" d="M455 515Q455 424 364 371Q326 348 313 332Q296 311 294 274L290 174H211Q201 251 201 275Q201 341 231 382Q250 410 292 436Q328 458 336 466Q356 485 356 515Q356 558 327 583T250 608Q202 608
172 581Q138 550 138 492H42Q42 594 106 653Q164 706 250 706Q334 706 393 655Q455 601 455 515ZM315 56Q315 29 296 10T251 -9Q224 -9 205 10T186 56Q186 83 205 102T251 121Q277 121 296 102T315 56Z" />
<glyph unicode="@" glyph-name="at" horiz-adv-x="729" d="M644 274L627 -4L529 2L532 53Q464 -13 387 -13Q361 -13 336 -4Q281 15 252 68Q224 117 224 184Q224 247 248 309Q298 438 403 484Q439 500 476 500Q522 500 560 475Q539 573 469 598Q451 605 430 605Q364
605 299 548Q229 488 191 388Q162 313 162 240Q162 137 217 75L166 1Q65 93 65 246Q65 333 99 422Q146 543 238 621T430 700Q468 700 503 688Q589 657 632 566Q664 498 664 411Q664 343 644 274ZM514 395T493 402Q471 410 443 398Q390 374 355 308Q323 247 323
185Q323 148 336 120Q353 83 386 83Q420 83 457 115Q498 152 522 212Q540 258 540 303Q540 341 527 368Z" />
<glyph unicode="A" glyph-name="A" horiz-adv-x="674" d="M664 0H550L472 196H202L124 0H10L287 698H387L664 0ZM432 297L337 537L242 297H432Z" />
<glyph unicode="B" glyph-name="B" horiz-adv-x="639" d="M584 204Q584 98 513 45Q451 0 341 0H75V698H325Q430 698 490 654Q559 604 559 501Q559 418 509 365Q584 310 584 204ZM453 501Q453 559 414 580Q386 595 324 595H181V408H325Q386 408 414 422Q453 443
453 501ZM478 204Q478 265 437 287Q408 304 341 304H181V103H341Q408 103 437 120Q478 143 478 204Z" />
<glyph unicode="C" glyph-name="C" horiz-adv-x="616" d="M571 574L489 507Q446 558 421 576Q382 603 331 603Q151 603 151 349Q151 95 331 95Q382 95 421 123Q446 140 489 191L571 124Q512 56 467 28Q408 -9 331 -9Q184 -9 109 101Q45 195 45 349Q45 503 109
597Q184 707 331 707Q408 707 467 670Q512 642 571 574Z" />
<glyph unicode="D" glyph-name="D" horiz-adv-x="649" d="M594 349Q594 249 586 197Q569 81 488 36Q423 0 296 0H75V698H296Q423 698 488 662Q569 617 586 501Q594 449 594 349ZM488 349Q488 460 482 492Q473 548 433 571T296 595H181V104H296Q393 104 433 127T482
207Q488 238 488 349Z" />
<glyph unicode="E" glyph-name="E" horiz-adv-x="589" d="M539 0H75V698H539V595H180V407H494V311H180V103H539V0Z" />
<glyph unicode="F" glyph-name="F" horiz-adv-x="569" d="M529 595H180V407H493V311H180V0H75V698H529V595Z" />
<glyph unicode="G" glyph-name="G" horiz-adv-x="644" d="M579 0H482V64Q426 -9 327 -9Q182 -9 108 102Q45 197 45 349Q45 503 109 597Q184 707 332 707Q409 707 467 670Q513 642 572 574L490 507Q414 603 332 603Q151 603 151 349Q151 95 327 95Q402 95 442 155Q478
208 478 287H304V391H579V0Z" />
<glyph unicode="H" glyph-name="H" horiz-adv-x="674" d="M599 0H493V311H181V0H75V698H181V411H493V698H599V0Z" />
<glyph unicode="I" glyph-name="I" horiz-adv-x="269" d="M189 0H80V698H189V0Z" />
<glyph unicode="J" glyph-name="J" horiz-adv-x="538" d="M473 221Q473 110 414 52T242 -7Q64 -7 15 174L117 201Q133 140 155 120Q180 97 242 97Q311 97 339 125T368 221V698H473V221Z" />
<glyph unicode="K" glyph-name="K" horiz-adv-x="618" d="M603 0H468L181 349V0H75V698H181V357L428 698H550L299 353L603 0Z" />
<glyph unicode="L" glyph-name="L" horiz-adv-x="513" d="M498 0H75V698H180V103H498V0Z" />
<glyph unicode="M" glyph-name="M" horiz-adv-x="748" d="M673 0H566V394L418 0H329L182 394V0H75V698H173L373 165L574 698H673V0Z" />
<glyph unicode="N" glyph-name="N" horiz-adv-x="650" d="M575 0H478L181 483V0H75V698H172L470 215V698H575V0Z" />
<glyph unicode="O" glyph-name="O" horiz-adv-x="666" d="M621 349Q621 195 557 101Q482 -9 333 -9Q185 -9 109 101Q45 195 45 349Q45 503 109 597Q185 707 333 707Q482 707 557 597Q621 503 621 349ZM515 349Q515 603 333 603Q151 603 151 349Q151 95 333 95Q515
95 515 349Z" />
<glyph unicode="P" glyph-name="P" horiz-adv-x="619" d="M584 494Q584 389 516 335Q454 286 346 286H181V0H75V698H341Q451 698 513 652Q584 600 584 494ZM478 494Q478 555 437 578Q407 595 341 595H181V384H341Q478 384 478 494Z" />
<glyph unicode="Q" glyph-name="Q" horiz-adv-x="716" d="M661 -1H523L495 33Q428 -9 343 -9Q195 -9 120 101Q55 195 55 349Q55 503 120 597Q195 707 343 707Q491 707 567 597Q632 503 632 349Q632 192 571 106L661 -1ZM525 349Q525 603 343 603Q161 603 161 349Q161
95 343 95Q391 95 429 113Q388 147 338 153V246Q436 237 496 187Q525 242 525 349Z" />
<glyph unicode="R" glyph-name="R" horiz-adv-x="626" d="M594 0H471L333 247Q306 295 264 295H181V0H75V698H325Q430 698 494 651Q564 597 564 495Q564 424 525 374T416 307L594 0ZM453 495Q453 595 325 595H181V392H325Q453 392 453 495Z" />
<glyph unicode="S" glyph-name="S" horiz-adv-x="630" d="M585 205Q585 105 505 45Q432 -11 329 -11Q86 -11 45 218L150 236Q165 159 207 126T329 93Q387 93 429 119Q479 150 479 205Q479 273 374 305Q276 333 179 361Q74 409 74 516Q74 608 148 659Q213 703 309
703Q409 703 469 664T572 535L476 491Q443 555 411 577T309 599Q180 599 180 516Q180 462 285 434Q453 388 480 373Q585 319 585 205Z" />
<glyph unicode="T" glyph-name="T" horiz-adv-x="564" d="M544 595H335V0H229V595H20V698H544V595Z" />
<glyph unicode="U" glyph-name="U" horiz-adv-x="664" d="M594 296Q594 -9 332 -9Q70 -9 70 296V698H176V296Q176 199 204 153Q240 95 332 95Q424 95 460 153Q488 199 488 297V698H594V296Z" />
<glyph unicode="V" glyph-name="V" horiz-adv-x="604" d="M579 698L348 0H256L25 698H137L302 178L468 698H579Z" />
<glyph unicode="W" glyph-name="W" horiz-adv-x="800" d="M785 698L614 0H519L400 465L282 0H189L15 698H125L238 236L356 698H444L563 236L675 698H785Z" />
<glyph unicode="X" glyph-name="X" horiz-adv-x="646" d="M621 0H495L323 268L151 0H25L260 359L38 698H164L323 448L482 698H608L386 359L621 0Z" />
<glyph unicode="Y" glyph-name="Y" horiz-adv-x="621" d="M596 698L364 233V0H257V235L25 698H143L309 363L478 698H596Z" />
<glyph unicode="Z" glyph-name="Z" horiz-adv-x="601" d="M546 0H45V80L404 595H79V698H546V615L189 104H546V0Z" />
<glyph unicode="[" glyph-name="bracketleft" horiz-adv-x="309" d="M259 -76H70V774H259V708H167V-9H259V-76Z" />
<glyph unicode="\" glyph-name="backslash" horiz-adv-x="438" d="M433 -76H331L5 774H107L433 -76Z" />
<glyph unicode="]" glyph-name="bracketright" horiz-adv-x="309" d="M239 -76H50V-9H142V708H50V774H239V-76Z" />
<glyph unicode="^" glyph-name="asciicircum" horiz-adv-x="573" d="M518 414L433 370L286 590L140 370L55 414L245 698H328L518 414Z" />
<glyph unicode="_" glyph-name="underscore" horiz-adv-x="529" d="M514 -89H15V0H514V-89Z" />
<glyph unicode="`" glyph-name="grave" horiz-adv-x="348" d="M273 545H191L75 691H188L273 545Z" />
<glyph unicode="a" glyph-name="a" horiz-adv-x="495" d="M450 19L352 -9L344 17Q291 -10 221 -10Q150 -10 98 34T45 144Q45 210 97 256T221 302H302Q319 302 331 310V353Q331 371 311 386T257 401Q180 401 155 338L57 367Q105 500 257 500Q328 500 380 458T433
353V73L450 19ZM331 121V211Q317 208 302 208H221Q190 208 169 187T147 144Q147 123 168 104T221 85Q291 85 331 121Z" />
<glyph unicode="b" glyph-name="b" horiz-adv-x="513" d="M468 246Q468 141 435 84Q382 -9 263 -9Q200 -9 167 18V0H65V698H167V474Q214 501 263 501Q382 501 435 408Q468 351 468 246ZM366 246Q366 324 346 358Q323 400 263 400Q204 400 180 358Q170 342 167
313V178Q170 150 180 134Q204 92 263 92Q323 92 346 134Q366 168 366 246Z" />
<glyph unicode="c" glyph-name="c" horiz-adv-x="504" d="M459 87Q406 31 366 12T271 -8Q166 -8 105 64Q45 133 45 246Q45 359 105 430T271 501Q325 501 365 481T459 405L384 339Q351 374 334 386Q306 405 271 405Q208 405 176 360Q150 324 150 246Q150 168 176
133Q208 88 271 88Q306 88 334 107Q351 119 384 153L459 87Z" />
<glyph unicode="d" glyph-name="d" horiz-adv-x="513" d="M468 15L370 -14L360 19Q311 -10 251 -10Q132 -10 78 83Q45 141 45 246Q45 351 78 408Q132 501 251 501Q303 501 347 480V698H450V75L468 15ZM347 314Q344 342 335 358Q311 400 251 400Q191 400 167 358Q148
324 148 246Q148 168 167 134Q191 92 251 92Q311 92 335 134Q344 150 347 178V314Z" />
<glyph unicode="e" glyph-name="e" horiz-adv-x="504" d="M459 205H149Q153 157 169 134Q199 89 270 89Q331 89 374 136L456 75Q380 -9 271 -9Q143 -9 83 80Q45 137 45 243Q45 349 83 406Q142 493 262 493Q371 493 429 405Q453 370 458 308Q460 287 459 205ZM355
304Q351 340 343 352Q314 394 261 394Q169 394 152 304H355Z" />
<glyph unicode="f" glyph-name="f" horiz-adv-x="326" d="M301 698V597Q239 597 218 575T196 494H287V403H196V0H97V403H55V493H97Q99 597 146 647T301 698Z" />
<glyph unicode="g" glyph-name="g" horiz-adv-x="513" d="M474 -34Q464 -75 429 -114Q363 -188 246 -188Q169 -188 113 -154Q45 -112 45 -34Q45 -15 49 5L147 -25Q139 -46 151 -62Q175 -95 246 -95Q299 -95 337 -64Q371 -38 375 -7Q377 12 365 23T326 31Q309 29
256 18Q212 9 185 9Q144 9 119 25Q79 50 79 99Q79 147 114 186Q63 234 63 323Q63 424 128 470Q171 501 248 501Q322 501 365 472Q369 479 369 514H472Q472 423 424 392Q434 361 434 323Q434 221 368 175Q325 144 248 144Q245 144 202 149Q177 131 177 117Q177 90
210 96Q233 99 262 105Q313 122 342 122Q398 122 438 89T478 2Q478 -15 474 -34ZM331 323Q331 372 308 388T248 405Q212 405 189 389T166 323Q166 268 188 252Q216 232 248 232Q280 232 308 252Q331 268 331 323Z" />
<glyph unicode="h" glyph-name="h" horiz-adv-x="523" d="M468 0H366V275Q366 338 348 365Q325 400 263 400Q204 400 180 359Q172 345 167 327V0H65V698H167V480Q211 502 263 502Q380 502 434 421Q468 369 468 275V0Z" />
<glyph unicode="i" glyph-name="i" horiz-adv-x="260" d="M192 662Q192 637 174 619T131 601Q106 601 88 619T70 662Q70 687 88 705T131 723Q156 723 174 705T192 662ZM182 0H79V494H182V0Z" />
<glyph unicode="j" glyph-name="j" horiz-adv-x="264" d="M199 662Q199 637 181 619T138 601Q113 601 95 619T77 662Q77 687 95 705T138 723Q163 723 181 705T199 662ZM187 -9Q187 -96 157 -144Q109 -220 -20 -220V-122Q46 -122 68 -95Q87 -72 87 -9V494H187V-9Z" />
<glyph unicode="k" glyph-name="k" horiz-adv-x="479" d="M474 0H351L167 266V0H65V698H167V274L293 494H403L274 268L474 0Z" />
<glyph unicode="l" glyph-name="l" horiz-adv-x="241" d="M196 0Q108 0 81 51Q65 81 65 131V698H159V131Q159 110 164 106T196 101V0Z" />
<glyph unicode="m" glyph-name="m" horiz-adv-x="790" d="M738 0H633V280Q633 342 616 368Q595 401 541 401Q489 401 468 362Q457 343 453 311Q454 296 454 280V0H349V280Q349 342 332 368Q311 401 254 401Q207 401 182 371Q170 356 170 333V0H65V486H170V468Q202
493 254 493Q355 493 402 444Q451 493 541 493Q658 493 706 420Q738 370 738 280V0Z" />
<glyph unicode="n" glyph-name="n" horiz-adv-x="523" d="M468 0H366V280Q366 341 348 367Q325 401 263 401Q203 401 179 360Q172 348 167 330V0H65V486H167V471Q213 493 263 493Q384 493 434 421Q468 371 468 280V0Z" />
<glyph unicode="o" glyph-name="o" horiz-adv-x="519" d="M474 243Q474 135 439 79Q383 -9 260 -9Q136 -9 80 79Q45 136 45 242Q45 349 80 405Q136 494 260 494Q383 494 439 405Q474 350 474 243ZM371 242Q371 322 351 354Q325 395 259 395Q194 395 168 354Q148
322 148 242Q148 163 168 131Q194 89 259 89Q325 89 351 131Q371 163 371 242Z" />
<glyph unicode="p" glyph-name="p" horiz-adv-x="513" d="M468 240Q468 139 435 82Q382 -11 263 -11Q211 -11 167 11V-220H65V486H167V471Q211 493 263 493Q382 493 435 400Q469 342 468 240ZM366 241Q366 316 346 350Q323 391 263 391Q204 391 180 350Q170 333
167 305V177Q170 149 180 132Q204 90 263 90Q323 90 346 132Q366 166 366 241Z" />
<glyph unicode="q" glyph-name="q" horiz-adv-x="533" d="M468 469L450 409V-220H347V9Q303 -13 251 -13Q132 -13 78 80Q45 137 45 240Q45 343 78 401Q131 494 251 494Q312 494 360 465L370 499L468 469ZM347 176V307Q344 334 335 351Q311 393 251 393Q191 393
167 351Q147 316 148 241Q148 164 167 130Q191 88 251 88Q311 88 335 130Q344 147 347 176Z" />
<glyph unicode="r" glyph-name="r" horiz-adv-x="399" d="M369 468L324 376Q288 396 258 396Q223 396 196 378Q165 358 165 325V0H65V489H165V474Q208 494 258 494Q310 494 369 468Z" />
<glyph unicode="s" glyph-name="s" horiz-adv-x="479" d="M439 146Q439 73 378 30Q324 -9 249 -9Q89 -9 45 129L146 148Q160 112 186 99Q207 89 249 89Q281 89 306 101Q337 117 337 146Q337 186 265 205Q144 237 131 243Q59 278 59 355Q59 424 115 461Q163 494
235 494Q366 494 417 399L325 354Q301 395 235 395Q161 395 161 355Q161 330 233 313Q332 290 367 270Q439 230 439 146Z" />
<glyph unicode="t" glyph-name="t" horiz-adv-x="301" d="M256 402H188V130Q188 101 201 101H245V0H201Q139 0 108 50Q90 80 90 130V402H30V494H90V626H188V494H256V402Z" />
<glyph unicode="u" glyph-name="u" horiz-adv-x="528" d="M463 0H361V16Q312 -8 265 -8Q60 -8 60 204V494H162V204Q162 144 182 120Q205 93 265 93Q298 93 327 111Q361 132 361 164V494H463V0Z" />
<glyph unicode="v" glyph-name="v" horiz-adv-x="505" d="M485 494L296 0H208L20 494H130L252 169L375 494H485Z" />
<glyph unicode="w" glyph-name="w" horiz-adv-x="783" d="M763 494L599 0H508L390 312L273 0H182L20 494H130L231 182L346 494H435L550 181L653 494H763Z" />
<glyph unicode="x" glyph-name="x" horiz-adv-x="519" d="M499 0H374L260 165L145 0H20L197 253L29 494H154L260 338L365 494H490L322 253L499 0Z" />
<glyph unicode="y" glyph-name="y" horiz-adv-x="504" d="M484 494L260 -112Q243 -156 215 -182Q172 -221 112 -220H65L66 -118Q111 -119 115 -118Q148 -116 164 -76L193 0L20 494H130L248 147L374 494H484Z" />
<glyph unicode="z" glyph-name="z" horiz-adv-x="476" d="M431 0H40V84L287 396H62V494H431V413L182 99H431V0Z" />
<glyph unicode="{" glyph-name="braceleft" horiz-adv-x="410" d="M350 -96Q248 -96 193 -47Q135 5 135 106Q135 125 144 166T154 227Q154 275 130 293Q110 308 60 308V390Q109 390 131 407T154 471Q154 489 145 529T135 586Q135 795 350 795V702Q287 702 263
673T239 579Q239 562 249 526T259 473Q259 394 208 349Q259 305 259 226Q259 209 249 172T239 117Q239 -3 350 -2V-96Z" />
<glyph unicode="|" glyph-name="bar" horiz-adv-x="291" d="M196 -76H95V774H196V-76Z" />
<glyph unicode="}" glyph-name="braceright" horiz-adv-x="410" d="M350 308Q300 308 279 293Q256 275 256 227Q256 208 265 167T275 106Q275 5 219 -45T60 -96V-2Q171 -3 171 117Q171 134 161 171T150 226Q150 305 202 349Q151 394 151 473Q151 489 160 525T170
579Q170 643 148 671Q122 702 60 702V795Q274 795 274 586Q274 569 265 529T256 471Q256 424 280 406Q300 390 350 390V308Z" />
<glyph unicode="~" glyph-name="asciitilde" horiz-adv-x="509" d="M472 295Q409 214 335 214Q295 214 244 246T171 278Q146 278 110 226L38 292Q102 375 173 375Q213 375 264 343T337 311Q360 311 402 363L472 295Z" />
</font>
</defs>
</svg>
